<svg xmlns="http://www.w3.org/2000/svg" xmlns:xlink="http://www.w3.org/1999/xlink" width="375" viewBox="0 0 375 375" height="375" version="1.0"><defs><g id="i"><path d="M 6.078125 -9.421875 L 6.078125 -7.53125 L 2.828125 -7.53125 L 2.828125 -5.671875 L 5.9375 -5.671875 L 5.9375 -3.78125 L 2.828125 -3.78125 L 2.828125 -1.890625 L 6.078125 -1.890625 L 6.078125 0 L 0.6875 0 L 0.6875 -9.421875 Z M 6.078125 -9.421875"/></g><g id="j"><path d="M 2.171875 -5.859375 L 3.59375 -2.671875 L 5.03125 -5.859375 L 7.421875 -5.859375 L 4.28125 0 L 2.90625 0 L -0.234375 -5.859375 Z M 2.171875 -5.859375"/></g><g id="k"><path d="M 6.609375 -2.65625 L 2.359375 -2.65625 C 2.359375 -2.238281 2.488281 -1.929688 2.75 -1.734375 C 3.019531 -1.535156 3.3125 -1.4375 3.625 -1.4375 C 3.957031 -1.4375 4.21875 -1.476562 4.40625 -1.5625 C 4.59375 -1.65625 4.8125 -1.832031 5.0625 -2.09375 L 6.515625 -1.359375 C 5.910156 -0.335938 4.898438 0.171875 3.484375 0.171875 C 2.597656 0.171875 1.835938 -0.128906 1.203125 -0.734375 C 0.578125 -1.335938 0.265625 -2.066406 0.265625 -2.921875 C 0.265625 -3.773438 0.578125 -4.503906 1.203125 -5.109375 C 1.835938 -5.722656 2.597656 -6.03125 3.484375 -6.03125 C 4.410156 -6.03125 5.164062 -5.757812 5.75 -5.21875 C 6.332031 -4.6875 6.625 -3.921875 6.625 -2.921875 C 6.625 -2.785156 6.617188 -2.695312 6.609375 -2.65625 Z M 2.421875 -3.765625 L 4.65625 -3.765625 C 4.601562 -4.066406 4.476562 -4.300781 4.28125 -4.46875 C 4.09375 -4.632812 3.847656 -4.71875 3.546875 -4.71875 C 3.203125 -4.71875 2.929688 -4.628906 2.734375 -4.453125 C 2.535156 -4.273438 2.429688 -4.046875 2.421875 -3.765625 Z M 2.421875 -3.765625"/></g><g id="l"><path d="M 0.6875 0 L 0.6875 -5.859375 L 2.703125 -5.859375 L 2.703125 -5.015625 L 2.734375 -5.015625 C 2.742188 -5.046875 2.765625 -5.082031 2.796875 -5.125 C 2.835938 -5.175781 2.914062 -5.257812 3.03125 -5.375 C 3.144531 -5.488281 3.265625 -5.585938 3.390625 -5.671875 C 3.523438 -5.765625 3.691406 -5.847656 3.890625 -5.921875 C 4.097656 -5.992188 4.304688 -6.03125 4.515625 -6.03125 C 4.742188 -6.03125 4.960938 -6 5.171875 -5.9375 C 5.390625 -5.875 5.546875 -5.8125 5.640625 -5.75 L 5.796875 -5.671875 L 4.953125 -3.953125 C 4.703125 -4.160156 4.351562 -4.265625 3.90625 -4.265625 C 3.664062 -4.265625 3.457031 -4.210938 3.28125 -4.109375 C 3.101562 -4.003906 2.976562 -3.875 2.90625 -3.71875 C 2.832031 -3.570312 2.78125 -3.441406 2.75 -3.328125 C 2.71875 -3.222656 2.703125 -3.140625 2.703125 -3.078125 L 2.703125 0 Z M 0.6875 0"/></g><g id="m"><path d="M 5.125 -5.859375 L 7.453125 -5.859375 L 2.859375 2.96875 L 0.53125 2.96875 L 2.546875 -0.90625 L -0.234375 -5.859375 L 2.109375 -5.859375 L 3.734375 -2.859375 Z M 5.125 -5.859375"/></g><g id="n"><path d="M 1.03125 -5.859375 L 1.03125 -8.046875 L 3.046875 -8.046875 L 3.046875 -5.859375 L 4.28125 -5.859375 L 4.28125 -4.3125 L 3.046875 -4.3125 L 3.046875 -2.453125 C 3.046875 -1.910156 3.195312 -1.640625 3.5 -1.640625 C 3.582031 -1.640625 3.664062 -1.65625 3.75 -1.6875 C 3.832031 -1.71875 3.894531 -1.75 3.9375 -1.78125 L 4.015625 -1.828125 L 4.515625 -0.1875 C 4.078125 0.0507812 3.582031 0.171875 3.03125 0.171875 C 2.644531 0.171875 2.316406 0.101562 2.046875 -0.03125 C 1.773438 -0.164062 1.566406 -0.34375 1.421875 -0.5625 C 1.273438 -0.789062 1.171875 -1.023438 1.109375 -1.265625 C 1.054688 -1.515625 1.03125 -1.78125 1.03125 -2.0625 L 1.03125 -4.3125 L 0.1875 -4.3125 L 0.1875 -5.859375 Z M 1.03125 -5.859375"/></g><g id="o"><path d="M 0.6875 0 L 0.6875 -9.828125 L 2.703125 -9.828125 L 2.703125 -5.25 L 2.734375 -5.25 C 3.253906 -5.769531 3.8125 -6.03125 4.40625 -6.03125 C 4.695312 -6.03125 4.984375 -5.988281 5.265625 -5.90625 C 5.554688 -5.832031 5.832031 -5.71875 6.09375 -5.5625 C 6.351562 -5.40625 6.566406 -5.175781 6.734375 -4.875 C 6.898438 -4.582031 6.984375 -4.242188 6.984375 -3.859375 L 6.984375 0 L 4.953125 0 L 4.953125 -3.3125 C 4.953125 -3.613281 4.851562 -3.878906 4.65625 -4.109375 C 4.46875 -4.335938 4.21875 -4.453125 3.90625 -4.453125 C 3.601562 -4.453125 3.328125 -4.332031 3.078125 -4.09375 C 2.828125 -3.863281 2.703125 -3.601562 2.703125 -3.3125 L 2.703125 0 Z M 0.6875 0"/></g><g id="p"><path d="M 0.875 -9.125 C 1.113281 -9.363281 1.394531 -9.484375 1.71875 -9.484375 C 2.050781 -9.484375 2.332031 -9.363281 2.5625 -9.125 C 2.800781 -8.882812 2.921875 -8.601562 2.921875 -8.28125 C 2.921875 -7.957031 2.800781 -7.675781 2.5625 -7.4375 C 2.332031 -7.195312 2.050781 -7.078125 1.71875 -7.078125 C 1.394531 -7.078125 1.113281 -7.195312 0.875 -7.4375 C 0.644531 -7.675781 0.53125 -7.957031 0.53125 -8.28125 C 0.53125 -8.601562 0.644531 -8.882812 0.875 -9.125 Z M 0.6875 -5.859375 L 0.6875 0 L 2.703125 0 L 2.703125 -5.859375 Z M 0.6875 -5.859375"/></g><g id="q"><path d="M 0.6875 0 L 0.6875 -5.859375 L 2.703125 -5.859375 L 2.703125 -5.25 L 2.734375 -5.25 C 3.253906 -5.769531 3.8125 -6.03125 4.40625 -6.03125 C 4.695312 -6.03125 4.984375 -5.988281 5.265625 -5.90625 C 5.554688 -5.832031 5.832031 -5.71875 6.09375 -5.5625 C 6.351562 -5.40625 6.566406 -5.175781 6.734375 -4.875 C 6.898438 -4.582031 6.984375 -4.242188 6.984375 -3.859375 L 6.984375 0 L 4.953125 0 L 4.953125 -3.3125 C 4.953125 -3.613281 4.851562 -3.878906 4.65625 -4.109375 C 4.46875 -4.335938 4.21875 -4.453125 3.90625 -4.453125 C 3.601562 -4.453125 3.328125 -4.332031 3.078125 -4.09375 C 2.828125 -3.863281 2.703125 -3.601562 2.703125 -3.3125 L 2.703125 0 Z M 0.6875 0"/></g><g id="r"><path d="M 0.421875 1.4375 L 2.078125 0.625 C 2.378906 1.125 2.910156 1.375 3.671875 1.375 C 4.015625 1.375 4.335938 1.257812 4.640625 1.03125 C 4.941406 0.8125 5.09375 0.472656 5.09375 0.015625 L 5.09375 -0.421875 C 4.738281 -0.0234375 4.097656 0.171875 3.171875 0.171875 C 2.328125 0.171875 1.628906 -0.125 1.078125 -0.71875 C 0.535156 -1.320312 0.265625 -2.054688 0.265625 -2.921875 C 0.265625 -3.785156 0.535156 -4.519531 1.078125 -5.125 C 1.628906 -5.726562 2.328125 -6.03125 3.171875 -6.03125 C 3.929688 -6.03125 4.5625 -5.796875 5.0625 -5.328125 L 5.09375 -5.328125 L 5.09375 -5.859375 L 7.109375 -5.859375 L 7.109375 0.15625 C 7.109375 1.113281 6.789062 1.847656 6.15625 2.359375 C 5.53125 2.878906 4.703125 3.140625 3.671875 3.140625 C 1.992188 3.140625 0.910156 2.570312 0.421875 1.4375 Z M 2.796875 -3.921875 C 2.535156 -3.660156 2.40625 -3.328125 2.40625 -2.921875 C 2.40625 -2.515625 2.53125 -2.179688 2.78125 -1.921875 C 3.03125 -1.671875 3.363281 -1.546875 3.78125 -1.546875 C 4.175781 -1.546875 4.5 -1.675781 4.75 -1.9375 C 5.007812 -2.195312 5.140625 -2.523438 5.140625 -2.921875 C 5.140625 -3.328125 5.007812 -3.660156 4.75 -3.921875 C 4.488281 -4.179688 4.164062 -4.3125 3.78125 -4.3125 C 3.394531 -4.3125 3.066406 -4.179688 2.796875 -3.921875 Z M 2.796875 -3.921875"/></g><g id="t"><path d="M 1.078125 -0.71875 C 0.535156 -1.320312 0.265625 -2.054688 0.265625 -2.921875 C 0.265625 -3.785156 0.535156 -4.519531 1.078125 -5.125 C 1.628906 -5.726562 2.328125 -6.03125 3.171875 -6.03125 C 3.953125 -6.03125 4.59375 -5.785156 5.09375 -5.296875 L 5.09375 -5.859375 L 7.109375 -5.859375 L 7.109375 0 L 5.109375 0 L 5.109375 -0.65625 L 5.09375 -0.65625 C 4.59375 -0.101562 3.953125 0.171875 3.171875 0.171875 C 2.328125 0.171875 1.628906 -0.125 1.078125 -0.71875 Z M 2.796875 -3.921875 C 2.535156 -3.660156 2.40625 -3.328125 2.40625 -2.921875 C 2.40625 -2.515625 2.53125 -2.179688 2.78125 -1.921875 C 3.03125 -1.671875 3.363281 -1.546875 3.78125 -1.546875 C 4.175781 -1.546875 4.5 -1.675781 4.75 -1.9375 C 5.007812 -2.195312 5.140625 -2.523438 5.140625 -2.921875 C 5.140625 -3.328125 5.007812 -3.660156 4.75 -3.921875 C 4.488281 -4.179688 4.164062 -4.3125 3.78125 -4.3125 C 3.394531 -4.3125 3.066406 -4.179688 2.796875 -3.921875 Z M 2.796875 -3.921875"/></g><g id="u"><path d="M 1.234375 -0.6875 C 0.585938 -1.269531 0.265625 -2.015625 0.265625 -2.921875 C 0.265625 -3.828125 0.601562 -4.570312 1.28125 -5.15625 C 1.957031 -5.738281 2.796875 -6.03125 3.796875 -6.03125 C 4.773438 -6.03125 5.597656 -5.734375 6.265625 -5.140625 C 6.941406 -4.554688 7.28125 -3.816406 7.28125 -2.921875 C 7.28125 -2.023438 6.953125 -1.285156 6.296875 -0.703125 C 5.640625 -0.117188 4.804688 0.171875 3.796875 0.171875 C 2.742188 0.171875 1.890625 -0.113281 1.234375 -0.6875 Z M 2.796875 -3.921875 C 2.535156 -3.660156 2.40625 -3.328125 2.40625 -2.921875 C 2.40625 -2.515625 2.53125 -2.179688 2.78125 -1.921875 C 3.03125 -1.671875 3.363281 -1.546875 3.78125 -1.546875 C 4.175781 -1.546875 4.5 -1.675781 4.75 -1.9375 C 5.007812 -2.195312 5.140625 -2.523438 5.140625 -2.921875 C 5.140625 -3.328125 5.007812 -3.660156 4.75 -3.921875 C 4.488281 -4.179688 4.164062 -4.3125 3.78125 -4.3125 C 3.394531 -4.3125 3.066406 -4.179688 2.796875 -3.921875 Z M 2.796875 -3.921875"/></g><g id="v"><path d="M 2.59375 -5.859375 L 2.59375 -3.078125 C 2.59375 -2.492188 2.679688 -2.078125 2.859375 -1.828125 C 3.035156 -1.585938 3.332031 -1.46875 3.75 -1.46875 C 4.164062 -1.46875 4.460938 -1.585938 4.640625 -1.828125 C 4.816406 -2.078125 4.90625 -2.492188 4.90625 -3.078125 L 4.90625 -5.859375 L 6.921875 -5.859375 L 6.921875 -2.578125 C 6.921875 -1.609375 6.664062 -0.90625 6.15625 -0.46875 C 5.65625 -0.0390625 4.851562 0.171875 3.75 0.171875 C 2.644531 0.171875 1.835938 -0.0390625 1.328125 -0.46875 C 0.828125 -0.90625 0.578125 -1.609375 0.578125 -2.578125 L 0.578125 -5.859375 Z M 2.59375 -5.859375"/></g><g id="w"><path d="M 1.078125 -0.71875 C 0.535156 -1.320312 0.265625 -2.054688 0.265625 -2.921875 C 0.265625 -3.785156 0.535156 -4.519531 1.078125 -5.125 C 1.628906 -5.726562 2.328125 -6.03125 3.171875 -6.03125 C 3.953125 -6.03125 4.59375 -5.785156 5.09375 -5.296875 L 5.09375 -9.828125 L 7.109375 -9.828125 L 7.109375 0 L 5.109375 0 L 5.109375 -0.65625 L 5.09375 -0.65625 C 4.59375 -0.101562 3.953125 0.171875 3.171875 0.171875 C 2.328125 0.171875 1.628906 -0.125 1.078125 -0.71875 Z M 2.796875 -3.921875 C 2.535156 -3.660156 2.40625 -3.328125 2.40625 -2.921875 C 2.40625 -2.515625 2.53125 -2.179688 2.78125 -1.921875 C 3.03125 -1.671875 3.363281 -1.546875 3.78125 -1.546875 C 4.175781 -1.546875 4.5 -1.675781 4.75 -1.9375 C 5.007812 -2.195312 5.140625 -2.523438 5.140625 -2.921875 C 5.140625 -3.328125 5.007812 -3.660156 4.75 -3.921875 C 4.488281 -4.179688 4.164062 -4.3125 3.78125 -4.3125 C 3.394531 -4.3125 3.066406 -4.179688 2.796875 -3.921875 Z M 2.796875 -3.921875"/></g><g id="x"><path d="M 3.234375 -6.03125 C 3.566406 -6.03125 3.894531 -5.988281 4.21875 -5.90625 C 4.550781 -5.832031 4.796875 -5.757812 4.953125 -5.6875 L 5.203125 -5.578125 L 4.53125 -4.25 C 4.070312 -4.488281 3.640625 -4.609375 3.234375 -4.609375 C 3.003906 -4.609375 2.84375 -4.582031 2.75 -4.53125 C 2.65625 -4.488281 2.609375 -4.398438 2.609375 -4.265625 C 2.609375 -4.234375 2.609375 -4.203125 2.609375 -4.171875 C 2.617188 -4.140625 2.632812 -4.109375 2.65625 -4.078125 C 2.6875 -4.054688 2.707031 -4.035156 2.71875 -4.015625 C 2.738281 -3.992188 2.769531 -3.972656 2.8125 -3.953125 C 2.863281 -3.929688 2.898438 -3.914062 2.921875 -3.90625 C 2.953125 -3.894531 3 -3.875 3.0625 -3.84375 C 3.125 -3.820312 3.171875 -3.804688 3.203125 -3.796875 C 3.234375 -3.785156 3.28125 -3.769531 3.34375 -3.75 C 3.414062 -3.726562 3.472656 -3.710938 3.515625 -3.703125 C 3.753906 -3.628906 3.957031 -3.550781 4.125 -3.46875 C 4.300781 -3.382812 4.488281 -3.269531 4.6875 -3.125 C 4.882812 -2.976562 5.035156 -2.796875 5.140625 -2.578125 C 5.242188 -2.359375 5.296875 -2.109375 5.296875 -1.828125 C 5.296875 -0.492188 4.375 0.171875 2.53125 0.171875 C 2.101562 0.171875 1.703125 0.109375 1.328125 -0.015625 C 0.953125 -0.148438 0.679688 -0.28125 0.515625 -0.40625 L 0.265625 -0.609375 L 1.078125 -2 C 1.140625 -1.945312 1.21875 -1.882812 1.3125 -1.8125 C 1.414062 -1.738281 1.597656 -1.640625 1.859375 -1.515625 C 2.117188 -1.390625 2.34375 -1.328125 2.53125 -1.328125 C 2.945312 -1.328125 3.15625 -1.46875 3.15625 -1.75 C 3.15625 -1.875 3.101562 -1.972656 3 -2.046875 C 2.894531 -2.117188 2.710938 -2.203125 2.453125 -2.296875 C 2.203125 -2.390625 2.003906 -2.472656 1.859375 -2.546875 C 1.492188 -2.734375 1.203125 -2.945312 0.984375 -3.1875 C 0.773438 -3.425781 0.671875 -3.742188 0.671875 -4.140625 C 0.671875 -4.734375 0.898438 -5.195312 1.359375 -5.53125 C 1.828125 -5.863281 2.453125 -6.03125 3.234375 -6.03125 Z M 3.234375 -6.03125"/></g><g id="y"><path d="M 6.703125 -5.125 C 7.253906 -4.53125 7.53125 -3.800781 7.53125 -2.9375 C 7.53125 -2.070312 7.253906 -1.335938 6.703125 -0.734375 C 6.160156 -0.128906 5.46875 0.171875 4.625 0.171875 C 3.84375 0.171875 3.203125 -0.0703125 2.703125 -0.5625 L 2.703125 2.96875 L 0.6875 2.96875 L 0.6875 -5.859375 L 2.6875 -5.859375 L 2.6875 -5.203125 L 2.703125 -5.203125 C 3.203125 -5.753906 3.84375 -6.03125 4.625 -6.03125 C 5.46875 -6.03125 6.160156 -5.726562 6.703125 -5.125 Z M 5 -1.9375 C 5.257812 -2.195312 5.390625 -2.53125 5.390625 -2.9375 C 5.390625 -3.34375 5.265625 -3.671875 5.015625 -3.921875 C 4.765625 -4.179688 4.429688 -4.3125 4.015625 -4.3125 C 3.617188 -4.3125 3.289062 -4.179688 3.03125 -3.921875 C 2.78125 -3.660156 2.65625 -3.332031 2.65625 -2.9375 C 2.65625 -2.53125 2.785156 -2.195312 3.046875 -1.9375 C 3.316406 -1.675781 3.640625 -1.546875 4.015625 -1.546875 C 4.410156 -1.546875 4.738281 -1.675781 5 -1.9375 Z M 5 -1.9375"/></g><g id="c"><path d="M 21.121094 0.722656 C 29.726562 0.722656 40.070312 -2.964844 40.070312 -15.042969 C 40.070312 -25.605469 32.257812 -27.992188 25.097656 -29.582031 C 19.457031 -30.8125 14.320312 -31.390625 14.320312 -36.09375 C 14.320312 -39.417969 16.851562 -41.082031 20.6875 -41.082031 C 24.304688 -41.082031 27.125 -39.636719 27.917969 -35.585938 C 28.0625 -34.644531 28.570312 -34.210938 29.4375 -34.210938 L 37.25 -34.210938 C 38.191406 -34.210938 38.695312 -34.71875 38.625 -35.730469 C 37.828125 -45.785156 29.148438 -49.90625 20.902344 -49.90625 C 12.296875 -49.90625 3.472656 -45.277344 3.472656 -34.574219 C 3.472656 -25.605469 9.691406 -23 15.550781 -21.410156 C 22.277344 -19.601562 29.222656 -19.3125 29.222656 -13.453125 C 29.222656 -9.402344 25.820312 -8.101562 22.207031 -8.101562 C 17.503906 -8.101562 13.960938 -10.34375 13.308594 -14.828125 C 13.238281 -15.695312 12.730469 -16.203125 11.863281 -16.203125 L 3.398438 -16.203125 C 2.460938 -16.203125 1.953125 -15.695312 1.953125 -14.753906 C 2.53125 -3.761719 11.644531 0.722656 21.121094 0.722656 Z M 21.121094 0.722656"/></g><g id="h"><path d="M 20.542969 -33.054688 C 9.835938 -33.054688 1.953125 -26.328125 1.953125 -15.914062 C 1.953125 -5.351562 9.546875 1.15625 20.542969 1.15625 C 28.496094 1.15625 34.789062 -2.316406 37.324219 -9.546875 C 37.683594 -10.558594 37.105469 -11.210938 36.09375 -11.210938 L 28.0625 -11.210938 C 27.269531 -11.210938 26.835938 -10.777344 26.472656 -9.980469 C 25.605469 -8.027344 23.507812 -6.582031 20.324219 -6.582031 C 16.273438 -6.582031 13.742188 -9.476562 13.453125 -13.886719 L 36.742188 -13.886719 C 37.683594 -13.886719 38.191406 -14.394531 38.191406 -15.332031 L 38.191406 -16.636719 C 38.191406 -27.195312 30.234375 -33.054688 20.542969 -33.054688 Z M 13.597656 -19.746094 C 14.210938 -23.21875 16.164062 -25.675781 20.179688 -25.675781 C 24.011719 -25.675781 26.472656 -23.21875 26.691406 -19.746094 Z M 13.597656 -19.746094"/></g><g id="d"><path d="M 24.085938 -32.621094 C 19.890625 -32.621094 16.492188 -30.742188 14.320312 -28.027344 L 14.320312 -40.503906 C 14.320312 -47.953125 10.488281 -52.800781 3.472656 -54.246094 L 3.472656 -1.445312 C 3.472656 -0.507812 3.976562 0 4.917969 0 L 12.875 0 C 13.816406 0 14.320312 -0.507812 14.320312 -1.445312 L 14.320312 -15.914062 C 14.320312 -20.253906 16.996094 -23.867188 20.398438 -23.867188 C 23.796875 -23.867188 25.242188 -21.84375 25.242188 -18.082031 L 25.242188 -1.445312 C 25.242188 -0.507812 25.75 0 26.691406 0 L 34.644531 0 C 35.585938 0 36.09375 -0.507812 36.09375 -1.445312 L 36.09375 -18.082031 C 36.09375 -26.761719 32.621094 -32.621094 24.085938 -32.621094 Z M 24.085938 -32.621094"/></g><g id="e"><path d="M 20.253906 1.15625 C 31.609375 1.15625 38.40625 -5.859375 38.40625 -15.914062 C 38.40625 -25.894531 31.535156 -33.054688 20.253906 -33.054688 C 8.898438 -33.054688 2.023438 -25.894531 2.023438 -15.914062 C 2.023438 -5.929688 8.824219 1.15625 20.253906 1.15625 Z M 20.253906 -7.304688 C 15.40625 -7.304688 12.800781 -11.066406 12.800781 -15.839844 C 12.800781 -20.6875 15.480469 -24.59375 20.253906 -24.59375 C 25.027344 -24.59375 27.628906 -20.757812 27.628906 -15.839844 C 27.628906 -10.996094 25.027344 -7.304688 20.253906 -7.304688 Z M 20.253906 -7.304688"/></g><g id="f"><path d="M 25.242188 -33.054688 C 19.746094 -33.054688 15.226562 -30.667969 12.441406 -26.652344 C 10.667969 -29.726562 7.628906 -31.753906 3.472656 -32.621094 L 3.472656 2.894531 C 3.472656 12.296875 7.304688 17.359375 14.320312 18.082031 L 14.320312 -3.039062 C 17.070312 -0.363281 20.832031 1.15625 25.242188 1.15625 C 34.644531 1.15625 41.15625 -5.859375 41.15625 -15.984375 C 41.15625 -26.039062 34.644531 -33.054688 25.242188 -33.054688 Z M 21.914062 -7.523438 C 17.503906 -7.523438 14.320312 -10.996094 14.320312 -15.914062 C 14.320312 -20.832031 17.503906 -24.304688 21.914062 -24.304688 C 26.328125 -24.304688 29.511719 -20.832031 29.511719 -15.914062 C 29.511719 -10.996094 26.328125 -7.523438 21.914062 -7.523438 Z M 21.914062 -7.523438"/></g><g id="g"><path d="M 24.738281 -32.332031 C 24.011719 -32.476562 23.144531 -32.621094 22.351562 -32.621094 C 18.515625 -32.621094 14.9375 -30.886719 12.65625 -26.253906 C 10.921875 -29.546875 7.8125 -31.714844 3.472656 -32.621094 L 3.472656 -1.445312 C 3.472656 -0.507812 3.976562 0 4.917969 0 L 12.875 0 C 13.816406 0 14.320312 -0.507812 14.320312 -1.445312 L 14.320312 -16.058594 C 14.753906 -20.46875 16.996094 -22.785156 20.902344 -22.785156 C 21.914062 -22.785156 23 -22.640625 24.230469 -22.351562 C 25.242188 -22.0625 25.894531 -22.496094 25.894531 -23.507812 L 25.894531 -30.667969 C 25.894531 -31.464844 25.53125 -32.113281 24.738281 -32.332031 Z M 24.738281 -32.332031"/></g><clipPath id="a"><path d="M 209 49.507812 L 224 49.507812 L 224 64 L 209 64 Z M 209 49.507812"/></clipPath><clipPath id="b"><path d="M 83.476562 106 L 291.226562 106 L 291.226562 197.257812 L 83.476562 197.257812 Z M 83.476562 106"/></clipPath></defs><path fill="#FFF" d="M-37.5 -37.5H412.5V412.5H-37.5z"/><path fill="#FFF" d="M-37.5 -37.5H412.5V412.5H-37.5z"/><path fill="#F8F9FF" d="M-37.5 -37.5H412.5V412.5H-37.5z"/><path fill="#0D6EFD" d="M 251.230469 75.929688 L 253.652344 59.289062 L 253.914062 59.289062 L 254.136719 60.675781 C 254.707031 64.386719 255.289062 68.097656 255.828125 71.796875 C 255.976562 72.773438 255.988281 73.769531 256.070312 74.765625 C 256.15625 75.761719 256.230469 75.941406 257.328125 76.089844 L 272.445312 78.15625 C 272.664062 78.21875 272.878906 78.292969 273.089844 78.378906 C 272.582031 78.496094 272.304688 78.570312 272.03125 78.613281 C 268.304688 79.183594 264.566406 79.746094 260.816406 80.296875 C 259.613281 80.46875 258.394531 80.585938 257.191406 80.734375 C 256.21875 80.847656 256.207031 80.882812 256.070312 81.878906 C 255.367188 86.894531 254.683594 91.902344 254.019531 96.898438 C 254 97.058594 253.925781 97.1875 253.796875 97.289062 C 253.183594 94.597656 252.835938 91.863281 252.425781 89.148438 C 252.011719 86.433594 251.652344 83.699219 251.273438 80.933594 L 234.898438 78.539062 C 236.601562 77.753906 238.441406 77.785156 240.183594 77.476562 C 241.929688 77.171875 243.832031 76.894531 245.648438 76.640625 C 247.46875 76.386719 249.339844 76.164062 251.230469 75.929688 Z M 251.230469 75.929688"/><path fill="#0D6EFD" d="M 140.035156 118.871094 L 140.933594 112.703125 L 141.027344 112.703125 C 141.027344 112.871094 141.027344 113.042969 141.113281 113.222656 C 141.324219 114.589844 141.535156 115.964844 141.738281 117.335938 C 141.789062 117.703125 141.800781 118.074219 141.832031 118.394531 C 141.863281 118.710938 141.832031 118.839844 142.296875 118.890625 L 147.898438 119.65625 L 148.140625 119.738281 L 147.75 119.824219 L 143.585938 120.449219 C 143.144531 120.515625 142.699219 120.554688 142.246094 120.609375 C 141.789062 120.664062 141.875 120.609375 141.832031 121.035156 L 141.070312 126.609375 C 141.054688 126.664062 141.027344 126.710938 140.988281 126.746094 C 140.753906 125.75 140.628906 124.734375 140.480469 123.726562 C 140.332031 122.71875 140.195312 121.742188 140.046875 120.683594 L 133.980469 119.792969 C 134.617188 119.582031 135.273438 119.445312 135.945312 119.390625 C 136.621094 119.261719 137.296875 119.179688 137.972656 119.082031 C 138.652344 118.988281 139.328125 118.957031 140.035156 118.871094 Z M 140.035156 118.871094"/><g clip-path="url(#a)"><path fill="#0D6EFD" d="M 215.597656 55.832031 L 216.539062 49.664062 L 216.65625 49.664062 C 216.65625 49.835938 216.71875 50.015625 216.742188 50.183594 C 216.953125 51.5625 217.164062 52.929688 217.363281 54.308594 C 217.363281 54.667969 217.425781 55.039062 217.460938 55.367188 C 217.492188 55.695312 217.523438 55.800781 217.925781 55.855469 L 223.527344 56.617188 L 223.769531 56.703125 C 223.640625 56.738281 223.511719 56.765625 223.378906 56.789062 L 219.214844 57.414062 C 218.769531 57.476562 218.324219 57.519531 217.871094 57.570312 C 217.417969 57.625 217.511719 57.636719 217.460938 58.007812 L 216.65625 63.613281 C 216.644531 63.671875 216.617188 63.722656 216.570312 63.761719 C 216.339844 62.765625 216.222656 61.75 216.0625 60.742188 C 215.90625 59.734375 215.777344 58.714844 215.640625 57.699219 L 209.5625 56.808594 C 210.199219 56.585938 210.855469 56.453125 211.53125 56.40625 C 212.207031 56.269531 212.882812 56.183594 213.558594 56.089844 C 214.234375 55.992188 214.933594 55.917969 215.597656 55.832031 Z M 215.597656 55.832031"/></g><path fill="#0D6EFD" d="M 221.824219 75.558594 C 221.824219 75.941406 221.824219 76.3125 221.824219 76.671875 C 221.730469 78.707031 221.558594 80.742188 221.507812 82.777344 C 221.414062 86.382812 221.402344 89.976562 221.316406 93.570312 C 221.292969 94.257812 221.183594 94.933594 220.988281 95.59375 C 220.714844 96.578125 220.1875 96.960938 219.414062 96.917969 C 219.011719 96.855469 218.664062 96.679688 218.375 96.386719 C 218.089844 96.09375 217.917969 95.746094 217.859375 95.339844 C 217.835938 95.128906 217.835938 94.921875 217.859375 94.714844 C 217.851562 92.785156 217.542969 90.910156 216.933594 89.082031 C 216.324219 87.253906 215.445312 85.566406 214.300781 84.019531 C 212.460938 81.257812 210.078125 79.101562 207.152344 77.550781 C 205.410156 76.628906 203.574219 75.964844 201.648438 75.558594 C 199.023438 74.996094 196.375 74.796875 193.699219 74.957031 C 191.679688 75.015625 189.710938 75.363281 187.789062 75.988281 C 185.871094 76.617188 184.078125 77.5 182.410156 78.644531 C 180.660156 79.859375 179.226562 81.371094 178.101562 83.183594 C 176.980469 84.992188 176.261719 86.953125 175.953125 89.0625 C 175.46875 92.128906 175.734375 95.125 176.753906 98.054688 C 177.328125 99.539062 178.085938 100.921875 179.039062 102.199219 C 181.078125 105.050781 183.441406 107.601562 186.128906 109.851562 L 186.878906 110.496094 C 186.808594 110.984375 186.46875 111.015625 186.121094 111.121094 C 183.445312 111.894531 167.328125 117.238281 166.597656 117.546875 C 166.070312 117.777344 165.539062 117.9375 164.875 118.171875 C 164.546875 117.652344 164.207031 117.1875 163.933594 116.6875 C 162.703125 114.535156 161.703125 112.28125 160.933594 109.925781 C 160.300781 107.84375 159.855469 105.722656 159.589844 103.566406 C 159.257812 101.023438 159.179688 98.46875 159.355469 95.910156 C 159.617188 92.261719 160.546875 88.792969 162.148438 85.503906 C 163.996094 81.816406 166.511719 78.664062 169.695312 76.046875 C 172.410156 73.757812 175.417969 71.964844 178.722656 70.671875 C 180.550781 69.972656 182.410156 69.347656 184.28125 68.785156 C 185.582031 68.421875 186.90625 68.144531 188.246094 67.949219 C 191.878906 67.34375 195.535156 67.082031 199.214844 67.164062 C 202.144531 67.292969 205.082031 67.546875 208.011719 67.820312 C 210.007812 68.023438 211.996094 68.320312 213.972656 68.648438 C 216.261719 69 218.507812 69.527344 220.714844 70.238281 C 221.773438 70.597656 222.4375 71.296875 222.046875 73.015625"/><g clip-path="url(#b)"><path fill="#0D6EFD" d="M 290.507812 122.433594 C 289.726562 119.867188 288.339844 117.6875 286.351562 115.890625 C 285.183594 114.808594 283.914062 113.867188 282.539062 113.0625 C 280.785156 112.042969 278.964844 111.160156 277.082031 110.414062 C 275.316406 109.75 273.515625 109.1875 271.683594 108.726562 C 270.425781 108.386719 269.125 108.164062 267.84375 107.890625 C 266.789062 107.667969 265.730469 107.390625 264.613281 107.253906 C 262.855469 107.03125 261.101562 106.902344 259.328125 106.746094 C 259.15625 106.746094 258.988281 106.679688 258.808594 106.671875 C 257.277344 106.574219 255.734375 106.46875 254.191406 106.382812 C 254.03125 106.382812 253.863281 106.480469 253.683594 106.492188 C 253.269531 106.511719 252.859375 106.511719 252.445312 106.492188 C 251.867188 106.402344 251.285156 106.367188 250.703125 106.375 C 249.5625 106.464844 248.425781 106.464844 247.289062 106.375 C 243.058594 106.183594 238.90625 106.648438 234.71875 106.863281 C 234.40625 106.890625 234.097656 106.9375 233.789062 107 L 232.046875 107.210938 C 230.460938 107.378906 228.875 107.527344 227.300781 107.710938 C 226.242188 107.824219 225.25 107.984375 224.222656 108.144531 C 222.890625 108.34375 221.558594 108.578125 220.230469 108.789062 C 219.171875 108.960938 218.113281 109.066406 217.058594 109.265625 C 215.335938 109.597656 213.621094 109.976562 211.890625 110.328125 C 210.15625 110.675781 208.71875 110.910156 207.113281 111.21875 C 206.402344 111.355469 205.707031 111.523438 204.996094 111.683594 L 200.558594 112.746094 C 199.320312 113.042969 198.085938 113.347656 196.847656 113.675781 C 195.613281 114.003906 194.332031 114.355469 193.0625 114.738281 C 191.796875 115.117188 190.652344 115.332031 189.460938 115.667969 C 187.90625 116.105469 186.363281 116.59375 184.808594 117.058594 L 180.050781 118.457031 L 178.507812 118.914062 C 173.738281 120.222656 169.058594 121.804688 164.472656 123.664062 C 163.722656 123.925781 162.972656 124.214844 162.230469 124.488281 C 162.136719 124.523438 162.046875 124.570312 161.96875 124.636719 L 160.308594 125.304688 L 160.160156 125.304688 L 157.191406 126.511719 C 157.195312 126.492188 157.195312 126.472656 157.191406 126.449219 C 156.417969 126.734375 155.730469 126.96875 155.078125 127.265625 L 147.59375 130.550781 C 143.722656 132.207031 141.132812 133.402344 141.132812 133.402344 L 141.039062 133.5 L 139.984375 133.964844 C 134.699219 136.402344 129.414062 139.085938 124.328125 141.9375 C 119.917969 144.394531 115.546875 146.921875 111.210938 149.515625 C 108.644531 151.042969 106.136719 152.695312 103.675781 154.402344 C 100.730469 156.4375 97.828125 158.53125 94.964844 160.6875 C 92.347656 162.699219 89.882812 164.882812 87.566406 167.238281 C 86.164062 168.664062 84.898438 170.207031 83.773438 171.859375 C 83.65625 172.0625 83.566406 172.273438 83.496094 172.496094 C 83.667969 172.496094 83.75 172.496094 83.792969 172.496094 C 88.148438 169.675781 92.640625 167.089844 97.21875 164.671875 C 100.703125 162.828125 104.191406 161.003906 107.710938 159.257812 C 111.234375 157.507812 114.625 155.90625 118.101562 154.253906 C 120.332031 153.191406 122.585938 152.195312 124.816406 151.148438 L 138.925781 144.9375 L 141.230469 143.875 L 142.667969 143.355469 L 142.867188 143.28125 L 166.121094 134.632812 L 166.386719 134.546875 C 168.160156 133.976562 169.921875 133.421875 171.671875 132.882812 C 172.886719 132.511719 174.121094 132.226562 175.316406 131.824219 C 175.570312 131.707031 175.832031 131.675781 176.105469 131.726562 C 176.378906 131.777344 176.613281 131.902344 176.808594 132.101562 C 179.175781 134.113281 181.542969 136.117188 183.972656 138.058594 C 186.828125 140.347656 189.746094 142.550781 192.621094 144.808594 C 195.484375 147.019531 198.097656 149.492188 200.464844 152.230469 C 202.554688 154.542969 204.246094 157.125 205.535156 159.964844 C 206.085938 161.257812 206.539062 162.582031 206.890625 163.941406 C 207.183594 165.140625 207.226562 166.390625 207.40625 167.621094 C 207.832031 170.761719 207.421875 173.789062 206.171875 176.703125 C 205.320312 178.742188 204.152344 180.570312 202.660156 182.195312 C 201.167969 183.820312 199.445312 185.140625 197.492188 186.160156 C 195.785156 187.082031 193.988281 187.765625 192.101562 188.214844 C 190.832031 188.523438 189.492188 188.535156 188.210938 188.808594 C 185.601562 189.359375 183.011719 188.914062 180.453125 188.597656 C 178.609375 188.292969 176.816406 187.800781 175.074219 187.125 C 173.109375 186.421875 171.300781 185.433594 169.640625 184.167969 C 167.980469 182.902344 166.550781 181.414062 165.351562 179.703125 C 163.253906 176.699219 161.847656 173.398438 161.121094 169.804688 C 160.535156 167.585938 160.246094 165.332031 160.253906 163.039062 C 160.253906 162.730469 160.191406 162.429688 160.074219 162.140625 C 159.980469 161.816406 159.796875 161.558594 159.527344 161.363281 C 159.253906 161.164062 158.953125 161.070312 158.617188 161.078125 C 158.269531 161.0625 157.953125 161.152344 157.667969 161.351562 C 157.382812 161.546875 157.183594 161.808594 157.074219 162.140625 C 156.828125 162.636719 156.660156 163.160156 156.578125 163.707031 C 156.386719 165.214844 156.21875 166.730469 156.15625 168.246094 C 156.058594 170.628906 155.890625 173.015625 155.796875 175.390625 C 155.582031 180.117188 155.6875 184.867188 155.6875 189.605469 C 155.71875 189.910156 155.792969 190.207031 155.910156 190.496094 C 156.160156 191.089844 156.523438 191.605469 157.007812 192.035156 C 157.488281 192.464844 158.039062 192.765625 158.660156 192.941406 C 159.886719 193.472656 161.132812 194.003906 162.390625 194.417969 C 163.777344 194.910156 165.1875 195.328125 166.617188 195.667969 C 168.300781 196.039062 170.011719 196.304688 171.722656 196.515625 C 173.984375 196.800781 176.257812 197.078125 178.53125 197.171875 C 181.164062 197.289062 183.816406 197.171875 186.4375 197.171875 C 187.167969 197.1875 187.898438 197.160156 188.625 197.085938 C 190.195312 196.898438 191.769531 196.675781 193.347656 196.417969 C 194.820312 196.21875 196.273438 195.933594 197.714844 195.570312 C 199.585938 195.042969 201.433594 194.382812 203.242188 193.675781 C 207.824219 191.871094 211.867188 189.238281 215.367188 185.765625 C 218.253906 182.933594 220.523438 179.675781 222.183594 175.984375 C 223.191406 173.789062 223.894531 171.503906 224.296875 169.125 C 224.601562 167.78125 224.832031 166.425781 224.984375 165.054688 C 225.371094 160.40625 225.019531 155.8125 223.929688 151.273438 C 223.34375 148.769531 222.523438 146.347656 221.464844 144.003906 C 219.914062 140.902344 218.027344 138.023438 215.808594 135.363281 C 213.550781 132.652344 211.113281 130.113281 208.496094 127.742188 C 207.640625 126.957031 206.816406 126.132812 205.96875 125.328125 C 205.96875 125.242188 206.042969 125.167969 206.074219 125.082031 C 207.597656 124.828125 209.121094 124.519531 210.640625 124.328125 C 213.082031 124.011719 215.523438 123.769531 217.957031 123.480469 L 218.378906 123.480469 C 220.050781 123.25 221.71875 122.996094 223.398438 122.792969 C 224.835938 122.625 226.296875 122.507812 227.742188 122.421875 C 230.089844 122.261719 232.4375 122.113281 234.792969 122.03125 C 236.761719 121.964844 238.738281 122.03125 240.703125 121.964844 C 244.632812 121.828125 248.535156 122.199219 252.445312 122.410156 C 252.65625 122.417969 252.863281 122.4375 253.070312 122.476562 L 257.136719 123.164062 C 258.121094 123.332031 259.125 123.398438 260.085938 123.652344 C 261.761719 124.0625 263.40625 124.566406 265.023438 125.15625 C 267.082031 125.839844 268.84375 126.984375 270.308594 128.589844 C 271.226562 129.628906 271.707031 130.839844 271.746094 132.226562 C 271.917969 134.347656 271.644531 136.414062 270.933594 138.417969 C 270.457031 139.742188 269.910156 141.035156 269.292969 142.296875 C 267.902344 144.804688 266.222656 147.101562 264.25 149.1875 C 261.4375 152.191406 258.386719 154.929688 255.097656 157.402344 C 251.988281 159.753906 248.75 161.90625 245.375 163.855469 C 241.496094 166.070312 237.550781 168.171875 233.632812 170.324219 L 232.691406 170.832031 C 232.871094 170.980469 233.070312 171.019531 233.292969 170.949219 L 237.648438 169.113281 C 241.019531 167.664062 244.433594 166.304688 247.753906 164.746094 C 251.789062 162.839844 255.773438 160.816406 259.726562 158.726562 C 264.34375 156.339844 268.765625 153.636719 273.003906 150.628906 C 274.960938 149.230469 276.9375 147.820312 278.773438 146.261719 C 280.859375 144.605469 282.769531 142.761719 284.503906 140.738281 C 285.707031 139.234375 287.03125 137.8125 288.085938 136.203125 C 289.28125 134.527344 290.085938 132.683594 290.496094 130.667969 C 290.699219 129.492188 291.078125 128.324219 291.183594 127.140625 C 291.269531 125.523438 291.042969 123.957031 290.507812 122.433594 Z M 290.507812 122.433594"/></g><g fill="#0D6EFD"><use x="50.981" y="255.985" xmlns:xlink="http://www.w3.org/1999/xlink" xlink:href="#c" xlink:type="simple" xlink:actuate="onLoad" xlink:show="embed"/></g><g fill="#0D6EFD"><use x="93.293" y="255.985" xmlns:xlink="http://www.w3.org/1999/xlink" xlink:href="#d" xlink:type="simple" xlink:actuate="onLoad" xlink:show="embed"/></g><g fill="#0D6EFD"><use x="132.35" y="255.985" xmlns:xlink="http://www.w3.org/1999/xlink" xlink:href="#e" xlink:type="simple" xlink:actuate="onLoad" xlink:show="embed"/></g><g fill="#0D6EFD"><use x="172.854" y="255.985" xmlns:xlink="http://www.w3.org/1999/xlink" xlink:href="#f" xlink:type="simple" xlink:actuate="onLoad" xlink:show="embed"/></g><g fill="#0D6EFD"><use x="216.106" y="255.985" xmlns:xlink="http://www.w3.org/1999/xlink" xlink:href="#e" xlink:type="simple" xlink:actuate="onLoad" xlink:show="embed"/></g><g fill="#0D6EFD"><use x="256.61" y="255.985" xmlns:xlink="http://www.w3.org/1999/xlink" xlink:href="#g" xlink:type="simple" xlink:actuate="onLoad" xlink:show="embed"/></g><g fill="#0D6EFD"><use x="283.733" y="255.985" xmlns:xlink="http://www.w3.org/1999/xlink" xlink:href="#h" xlink:type="simple" xlink:actuate="onLoad" xlink:show="embed"/></g><g fill="#0D6EFD"><use x="100.983" y="285.118" xmlns:xlink="http://www.w3.org/1999/xlink" xlink:href="#i" xlink:type="simple" xlink:actuate="onLoad" xlink:show="embed"/></g><g fill="#0D6EFD"><use x="107.603" y="285.118" xmlns:xlink="http://www.w3.org/1999/xlink" xlink:href="#j" xlink:type="simple" xlink:actuate="onLoad" xlink:show="embed"/></g><g fill="#0D6EFD"><use x="114.794" y="285.118" xmlns:xlink="http://www.w3.org/1999/xlink" xlink:href="#k" xlink:type="simple" xlink:actuate="onLoad" xlink:show="embed"/></g><g fill="#0D6EFD"><use x="121.677" y="285.118" xmlns:xlink="http://www.w3.org/1999/xlink" xlink:href="#l" xlink:type="simple" xlink:actuate="onLoad" xlink:show="embed"/></g><g fill="#0D6EFD"><use x="127.361" y="285.118" xmlns:xlink="http://www.w3.org/1999/xlink" xlink:href="#m" xlink:type="simple" xlink:actuate="onLoad" xlink:show="embed"/></g><g fill="#0D6EFD"><use x="134.586" y="285.118" xmlns:xlink="http://www.w3.org/1999/xlink" xlink:href="#n" xlink:type="simple" xlink:actuate="onLoad" xlink:show="embed"/></g><g fill="#0D6EFD"><use x="139.094" y="285.118" xmlns:xlink="http://www.w3.org/1999/xlink" xlink:href="#o" xlink:type="simple" xlink:actuate="onLoad" xlink:show="embed"/></g><g fill="#0D6EFD"><use x="146.639" y="285.118" xmlns:xlink="http://www.w3.org/1999/xlink" xlink:href="#p" xlink:type="simple" xlink:actuate="onLoad" xlink:show="embed"/></g><g fill="#0D6EFD"><use x="150.086" y="285.118" xmlns:xlink="http://www.w3.org/1999/xlink" xlink:href="#q" xlink:type="simple" xlink:actuate="onLoad" xlink:show="embed"/></g><g fill="#0D6EFD"><use x="157.631" y="285.118" xmlns:xlink="http://www.w3.org/1999/xlink" xlink:href="#r" xlink:type="simple" xlink:actuate="onLoad" xlink:show="embed"/></g><g fill="#0D6EFD"><use x="165.427" y="285.118" xmlns:xlink="http://www.w3.org/1999/xlink" xlink:href="#s" xlink:type="simple" xlink:actuate="onLoad" xlink:show="embed"/></g><g fill="#0D6EFD"><use x="168.543" y="285.118" xmlns:xlink="http://www.w3.org/1999/xlink" xlink:href="#t" xlink:type="simple" xlink:actuate="onLoad" xlink:show="embed"/></g><g fill="#0D6EFD"><use x="176.338" y="285.118" xmlns:xlink="http://www.w3.org/1999/xlink" xlink:href="#n" xlink:type="simple" xlink:actuate="onLoad" xlink:show="embed"/></g><g fill="#0D6EFD"><use x="180.847" y="285.118" xmlns:xlink="http://www.w3.org/1999/xlink" xlink:href="#s" xlink:type="simple" xlink:actuate="onLoad" xlink:show="embed"/></g><g fill="#0D6EFD"><use x="183.963" y="285.118" xmlns:xlink="http://www.w3.org/1999/xlink" xlink:href="#m" xlink:type="simple" xlink:actuate="onLoad" xlink:show="embed"/></g><g fill="#0D6EFD"><use x="191.188" y="285.118" xmlns:xlink="http://www.w3.org/1999/xlink" xlink:href="#u" xlink:type="simple" xlink:actuate="onLoad" xlink:show="embed"/></g><g fill="#0D6EFD"><use x="198.733" y="285.118" xmlns:xlink="http://www.w3.org/1999/xlink" xlink:href="#v" xlink:type="simple" xlink:actuate="onLoad" xlink:show="embed"/></g><g fill="#0D6EFD"><use x="206.22" y="285.118" xmlns:xlink="http://www.w3.org/1999/xlink" xlink:href="#l" xlink:type="simple" xlink:actuate="onLoad" xlink:show="embed"/></g><g fill="#0D6EFD"><use x="211.905" y="285.118" xmlns:xlink="http://www.w3.org/1999/xlink" xlink:href="#s" xlink:type="simple" xlink:actuate="onLoad" xlink:show="embed"/></g><g fill="#0D6EFD"><use x="215.021" y="285.118" xmlns:xlink="http://www.w3.org/1999/xlink" xlink:href="#w" xlink:type="simple" xlink:actuate="onLoad" xlink:show="embed"/></g><g fill="#0D6EFD"><use x="222.816" y="285.118" xmlns:xlink="http://www.w3.org/1999/xlink" xlink:href="#u" xlink:type="simple" xlink:actuate="onLoad" xlink:show="embed"/></g><g fill="#0D6EFD"><use x="230.361" y="285.118" xmlns:xlink="http://www.w3.org/1999/xlink" xlink:href="#u" xlink:type="simple" xlink:actuate="onLoad" xlink:show="embed"/></g><g fill="#0D6EFD"><use x="237.906" y="285.118" xmlns:xlink="http://www.w3.org/1999/xlink" xlink:href="#l" xlink:type="simple" xlink:actuate="onLoad" xlink:show="embed"/></g><g fill="#0D6EFD"><use x="243.59" y="285.118" xmlns:xlink="http://www.w3.org/1999/xlink" xlink:href="#x" xlink:type="simple" xlink:actuate="onLoad" xlink:show="embed"/></g><g fill="#0D6EFD"><use x="249.206" y="285.118" xmlns:xlink="http://www.w3.org/1999/xlink" xlink:href="#n" xlink:type="simple" xlink:actuate="onLoad" xlink:show="embed"/></g><g fill="#0D6EFD"><use x="253.714" y="285.118" xmlns:xlink="http://www.w3.org/1999/xlink" xlink:href="#k" xlink:type="simple" xlink:actuate="onLoad" xlink:show="embed"/></g><g fill="#0D6EFD"><use x="260.597" y="285.118" xmlns:xlink="http://www.w3.org/1999/xlink" xlink:href="#y" xlink:type="simple" xlink:actuate="onLoad" xlink:show="embed"/></g><g fill="#0D6EFD"><use x="268.393" y="285.118" xmlns:xlink="http://www.w3.org/1999/xlink" xlink:href="#x" xlink:type="simple" xlink:actuate="onLoad" xlink:show="embed"/></g></svg>