<svg xmlns="http://www.w3.org/2000/svg" xmlns:xlink="http://www.w3.org/1999/xlink" width="375" viewBox="0 0 375 45" height="45" version="1.0"><defs><g id="c"><path d="M 3.074219 0.105469 C 4.324219 0.105469 5.828125 -0.429688 5.828125 -2.1875 C 5.828125 -3.726562 4.691406 -4.070312 3.652344 -4.304688 C 2.832031 -4.484375 2.082031 -4.566406 2.082031 -5.25 C 2.082031 -5.734375 2.453125 -5.976562 3.007812 -5.976562 C 3.535156 -5.976562 3.945312 -5.765625 4.0625 -5.175781 C 4.082031 -5.039062 4.15625 -4.976562 4.28125 -4.976562 L 5.417969 -4.976562 C 5.554688 -4.976562 5.628906 -5.050781 5.617188 -5.199219 C 5.503906 -6.660156 4.242188 -7.261719 3.039062 -7.261719 C 1.789062 -7.261719 0.503906 -6.585938 0.503906 -5.03125 C 0.503906 -3.726562 1.410156 -3.347656 2.261719 -3.113281 C 3.242188 -2.851562 4.25 -2.808594 4.25 -1.957031 C 4.25 -1.367188 3.757812 -1.179688 3.230469 -1.179688 C 2.546875 -1.179688 2.03125 -1.503906 1.9375 -2.15625 C 1.925781 -2.285156 1.851562 -2.355469 1.726562 -2.355469 L 0.496094 -2.355469 C 0.359375 -2.355469 0.285156 -2.285156 0.285156 -2.148438 C 0.367188 -0.546875 1.695312 0.105469 3.074219 0.105469 Z M 3.074219 0.105469"/></g><g id="h"><path d="M 2.988281 -4.808594 C 1.429688 -4.808594 0.285156 -3.832031 0.285156 -2.316406 C 0.285156 -0.777344 1.390625 0.167969 2.988281 0.167969 C 4.144531 0.167969 5.0625 -0.335938 5.429688 -1.390625 C 5.480469 -1.535156 5.398438 -1.632812 5.25 -1.632812 L 4.082031 -1.632812 C 3.96875 -1.632812 3.902344 -1.566406 3.851562 -1.453125 C 3.726562 -1.167969 3.417969 -0.957031 2.957031 -0.957031 C 2.367188 -0.957031 2 -1.378906 1.957031 -2.019531 L 5.34375 -2.019531 C 5.480469 -2.019531 5.554688 -2.09375 5.554688 -2.230469 L 5.554688 -2.421875 C 5.554688 -3.957031 4.398438 -4.808594 2.988281 -4.808594 Z M 1.976562 -2.871094 C 2.066406 -3.378906 2.351562 -3.734375 2.9375 -3.734375 C 3.492188 -3.734375 3.851562 -3.378906 3.882812 -2.871094 Z M 1.976562 -2.871094"/></g><g id="d"><path d="M 3.503906 -4.746094 C 2.894531 -4.746094 2.398438 -4.472656 2.082031 -4.078125 L 2.082031 -5.894531 C 2.082031 -6.976562 1.527344 -7.679688 0.503906 -7.890625 L 0.503906 -0.210938 C 0.503906 -0.0742188 0.578125 0 0.714844 0 L 1.871094 0 C 2.011719 0 2.082031 -0.0742188 2.082031 -0.210938 L 2.082031 -2.316406 C 2.082031 -2.945312 2.472656 -3.472656 2.96875 -3.472656 C 3.460938 -3.472656 3.671875 -3.179688 3.671875 -2.628906 L 3.671875 -0.210938 C 3.671875 -0.0742188 3.746094 0 3.882812 0 L 5.039062 0 C 5.175781 0 5.25 -0.0742188 5.25 -0.210938 L 5.25 -2.628906 C 5.25 -3.894531 4.746094 -4.746094 3.503906 -4.746094 Z M 3.503906 -4.746094"/></g><g id="e"><path d="M 2.945312 0.167969 C 4.597656 0.167969 5.585938 -0.851562 5.585938 -2.316406 C 5.585938 -3.765625 4.585938 -4.808594 2.945312 -4.808594 C 1.292969 -4.808594 0.292969 -3.765625 0.292969 -2.316406 C 0.292969 -0.863281 1.285156 0.167969 2.945312 0.167969 Z M 2.945312 -1.0625 C 2.242188 -1.0625 1.863281 -1.609375 1.863281 -2.304688 C 1.863281 -3.007812 2.25 -3.578125 2.945312 -3.578125 C 3.640625 -3.578125 4.019531 -3.019531 4.019531 -2.304688 C 4.019531 -1.597656 3.640625 -1.0625 2.945312 -1.0625 Z M 2.945312 -1.0625"/></g><g id="f"><path d="M 3.671875 -4.808594 C 2.871094 -4.808594 2.214844 -4.460938 1.808594 -3.878906 C 1.550781 -4.324219 1.109375 -4.621094 0.503906 -4.746094 L 0.503906 0.421875 C 0.503906 1.789062 1.0625 2.527344 2.082031 2.628906 L 2.082031 -0.441406 C 2.484375 -0.0507812 3.03125 0.167969 3.671875 0.167969 C 5.039062 0.167969 5.988281 -0.851562 5.988281 -2.324219 C 5.988281 -3.789062 5.039062 -4.808594 3.671875 -4.808594 Z M 3.1875 -1.09375 C 2.546875 -1.09375 2.082031 -1.597656 2.082031 -2.316406 C 2.082031 -3.03125 2.546875 -3.535156 3.1875 -3.535156 C 3.832031 -3.535156 4.292969 -3.03125 4.292969 -2.316406 C 4.292969 -1.597656 3.832031 -1.09375 3.1875 -1.09375 Z M 3.1875 -1.09375"/></g><g id="g"><path d="M 3.597656 -4.703125 C 3.492188 -4.722656 3.367188 -4.746094 3.25 -4.746094 C 2.695312 -4.746094 2.171875 -4.492188 1.839844 -3.820312 C 1.589844 -4.296875 1.136719 -4.613281 0.503906 -4.746094 L 0.503906 -0.210938 C 0.503906 -0.0742188 0.578125 0 0.714844 0 L 1.871094 0 C 2.011719 0 2.082031 -0.0742188 2.082031 -0.210938 L 2.082031 -2.335938 C 2.148438 -2.976562 2.472656 -3.316406 3.039062 -3.316406 C 3.1875 -3.316406 3.347656 -3.292969 3.523438 -3.25 C 3.671875 -3.210938 3.765625 -3.273438 3.765625 -3.417969 L 3.765625 -4.460938 C 3.765625 -4.578125 3.714844 -4.671875 3.597656 -4.703125 Z M 3.597656 -4.703125"/></g><clipPath id="a"><path d="M 194 4.5 L 198 4.5 L 198 8 L 194 8 Z M 194 4.5"/></clipPath><clipPath id="b"><path d="M 166.167969 17 L 212.667969 17 L 212.667969 37.5 L 166.167969 37.5 Z M 166.167969 17"/></clipPath></defs><path fill="#FFF" d="M-37.5 -4.5H412.5V49.5H-37.5z"/><path fill="#FFF" d="M-37.5 -4.5H412.5V49.5H-37.5z"/><path fill="#F8F9FF" d="M-37.5 -4.5H412.5V49.5H-37.5z"/><path d="M 203.71875 10.398438 L 204.257812 6.679688 L 204.320312 6.679688 L 204.367188 6.992188 C 204.496094 7.820312 204.625 8.648438 204.746094 9.476562 C 204.78125 9.691406 204.78125 9.914062 204.800781 10.136719 C 204.820312 10.359375 204.835938 10.402344 205.082031 10.433594 L 208.464844 10.894531 C 208.515625 10.910156 208.5625 10.925781 208.609375 10.945312 C 208.496094 10.972656 208.433594 10.988281 208.375 11 C 207.539062 11.125 206.703125 11.25 205.863281 11.375 C 205.59375 11.414062 205.320312 11.4375 205.050781 11.472656 C 204.835938 11.496094 204.832031 11.503906 204.800781 11.726562 C 204.644531 12.847656 204.492188 13.96875 204.34375 15.082031 C 204.335938 15.117188 204.320312 15.148438 204.292969 15.171875 C 204.15625 14.570312 204.078125 13.957031 203.984375 13.351562 C 203.894531 12.746094 203.8125 12.136719 203.726562 11.515625 L 200.0625 10.980469 C 200.441406 10.804688 200.855469 10.8125 201.246094 10.746094 C 201.636719 10.675781 202.0625 10.613281 202.46875 10.558594 C 202.875 10.5 203.292969 10.449219 203.71875 10.398438 Z M 203.71875 10.398438"/><path d="M 178.828125 19.992188 L 179.03125 18.613281 L 179.050781 18.613281 C 179.050781 18.652344 179.050781 18.691406 179.070312 18.730469 C 179.117188 19.035156 179.164062 19.34375 179.210938 19.648438 C 179.222656 19.730469 179.222656 19.816406 179.230469 19.886719 C 179.238281 19.957031 179.230469 19.984375 179.335938 19.996094 L 180.589844 20.167969 L 180.644531 20.1875 L 180.554688 20.207031 L 179.625 20.34375 C 179.523438 20.359375 179.425781 20.367188 179.324219 20.378906 C 179.222656 20.390625 179.242188 20.378906 179.230469 20.476562 L 179.0625 21.722656 C 179.058594 21.734375 179.050781 21.742188 179.042969 21.75 C 178.988281 21.527344 178.960938 21.300781 178.929688 21.078125 C 178.894531 20.851562 178.863281 20.632812 178.832031 20.398438 L 177.472656 20.199219 C 177.617188 20.152344 177.761719 20.121094 177.914062 20.109375 C 178.066406 20.078125 178.214844 20.0625 178.367188 20.039062 C 178.519531 20.019531 178.671875 20.011719 178.828125 19.992188 Z M 178.828125 19.992188"/><g clip-path="url(#a)"><path d="M 195.742188 5.910156 L 195.953125 4.53125 L 195.980469 4.53125 C 195.980469 4.570312 195.992188 4.609375 195.996094 4.648438 C 196.046875 4.953125 196.09375 5.261719 196.136719 5.566406 C 196.136719 5.648438 196.152344 5.730469 196.160156 5.804688 C 196.164062 5.878906 196.171875 5.902344 196.261719 5.914062 L 197.515625 6.085938 L 197.570312 6.101562 C 197.542969 6.109375 197.511719 6.117188 197.484375 6.121094 L 196.550781 6.261719 C 196.453125 6.277344 196.351562 6.285156 196.25 6.296875 C 196.148438 6.308594 196.171875 6.3125 196.160156 6.394531 L 195.980469 7.648438 C 195.976562 7.660156 195.96875 7.671875 195.960938 7.679688 C 195.90625 7.457031 195.882812 7.230469 195.847656 7.003906 C 195.8125 6.78125 195.78125 6.554688 195.75 6.324219 L 194.390625 6.125 C 194.535156 6.078125 194.679688 6.046875 194.832031 6.035156 C 194.984375 6.007812 195.132812 5.988281 195.285156 5.964844 C 195.4375 5.945312 195.59375 5.929688 195.742188 5.910156 Z M 195.742188 5.910156"/></g><path d="M 197.136719 10.316406 C 197.136719 10.402344 197.136719 10.484375 197.136719 10.566406 C 197.113281 11.019531 197.078125 11.472656 197.066406 11.929688 C 197.042969 12.734375 197.042969 13.535156 197.023438 14.339844 C 197.015625 14.492188 196.992188 14.644531 196.949219 14.792969 C 196.886719 15.011719 196.769531 15.097656 196.597656 15.089844 C 196.394531 15.058594 196.277344 14.9375 196.25 14.734375 C 196.242188 14.6875 196.242188 14.640625 196.25 14.59375 C 196.242188 13.710938 195.976562 12.914062 195.453125 12.207031 C 195.039062 11.589844 194.507812 11.109375 193.851562 10.761719 C 193.460938 10.554688 193.050781 10.40625 192.621094 10.316406 C 192.03125 10.191406 191.441406 10.144531 190.839844 10.179688 C 189.917969 10.210938 189.074219 10.484375 188.3125 11.003906 C 187.496094 11.570312 187.015625 12.347656 186.867188 13.332031 C 186.761719 14.019531 186.820312 14.6875 187.046875 15.339844 C 187.175781 15.671875 187.347656 15.980469 187.558594 16.265625 C 188.015625 16.90625 188.542969 17.476562 189.148438 17.976562 L 189.316406 18.121094 C 189.296875 18.230469 189.222656 18.238281 189.144531 18.261719 C 188.546875 18.433594 184.9375 19.628906 184.773438 19.695312 C 184.65625 19.75 184.539062 19.785156 184.390625 19.835938 C 184.316406 19.71875 184.238281 19.617188 184.179688 19.503906 C 183.902344 19.023438 183.679688 18.519531 183.507812 17.992188 C 183.367188 17.527344 183.265625 17.054688 183.207031 16.574219 C 183.132812 16.003906 183.113281 15.433594 183.152344 14.863281 C 183.210938 14.046875 183.421875 13.273438 183.777344 12.539062 C 184.191406 11.714844 184.753906 11.007812 185.46875 10.425781 C 186.074219 9.914062 186.75 9.511719 187.488281 9.222656 C 187.898438 9.066406 188.3125 8.929688 188.734375 8.804688 C 189.023438 8.722656 189.320312 8.660156 189.621094 8.617188 C 190.433594 8.480469 191.25 8.421875 192.074219 8.441406 C 192.730469 8.46875 193.386719 8.527344 194.042969 8.585938 C 194.492188 8.632812 194.9375 8.699219 195.378906 8.773438 C 195.890625 8.851562 196.394531 8.96875 196.886719 9.128906 C 197.125 9.207031 197.273438 9.363281 197.183594 9.746094"/><g clip-path="url(#b)"><path d="M 212.507812 20.789062 C 212.332031 20.214844 212.023438 19.726562 211.578125 19.328125 C 211.316406 19.085938 211.03125 18.875 210.726562 18.695312 C 210.332031 18.46875 209.925781 18.269531 209.503906 18.101562 C 209.109375 17.953125 208.707031 17.828125 208.296875 17.726562 C 208.015625 17.648438 207.722656 17.601562 207.4375 17.539062 C 207.199219 17.488281 206.964844 17.425781 206.710938 17.398438 C 206.320312 17.347656 205.925781 17.320312 205.53125 17.285156 C 205.492188 17.285156 205.453125 17.269531 205.414062 17.265625 C 205.070312 17.246094 204.726562 17.222656 204.378906 17.203125 C 204.34375 17.203125 204.304688 17.222656 204.265625 17.226562 C 204.175781 17.230469 204.082031 17.230469 203.988281 17.226562 C 203.859375 17.207031 203.730469 17.199219 203.597656 17.199219 C 203.34375 17.21875 203.089844 17.21875 202.835938 17.199219 C 201.890625 17.15625 200.960938 17.261719 200.023438 17.308594 C 199.953125 17.316406 199.882812 17.324219 199.8125 17.339844 L 199.421875 17.386719 C 199.070312 17.425781 198.714844 17.457031 198.363281 17.5 C 198.125 17.523438 197.902344 17.558594 197.671875 17.597656 C 197.375 17.640625 197.078125 17.691406 196.777344 17.742188 C 196.542969 17.777344 196.304688 17.800781 196.070312 17.847656 C 195.683594 17.921875 195.300781 18.003906 194.910156 18.082031 C 194.523438 18.160156 194.203125 18.214844 193.84375 18.28125 C 193.683594 18.3125 193.527344 18.351562 193.371094 18.386719 L 192.375 18.625 C 192.097656 18.691406 191.820312 18.757812 191.546875 18.832031 C 191.269531 18.90625 190.980469 18.984375 190.699219 19.070312 C 190.414062 19.152344 190.160156 19.203125 189.890625 19.277344 C 189.542969 19.375 189.199219 19.484375 188.851562 19.585938 L 187.785156 19.898438 L 187.441406 20 C 186.371094 20.292969 185.324219 20.648438 184.300781 21.0625 C 184.132812 21.121094 183.964844 21.1875 183.796875 21.246094 C 183.777344 21.253906 183.757812 21.265625 183.738281 21.28125 L 183.367188 21.429688 L 183.332031 21.429688 L 182.667969 21.699219 C 182.671875 21.695312 182.671875 21.691406 182.667969 21.6875 C 182.496094 21.75 182.34375 21.800781 182.195312 21.867188 L 180.519531 22.601562 C 179.65625 22.972656 179.074219 23.238281 179.074219 23.238281 L 179.054688 23.261719 L 178.816406 23.363281 C 177.632812 23.910156 176.453125 24.507812 175.3125 25.144531 C 174.328125 25.695312 173.347656 26.257812 172.378906 26.839844 C 171.804688 27.179688 171.242188 27.550781 170.691406 27.929688 C 170.03125 28.386719 169.382812 28.851562 168.742188 29.335938 C 168.15625 29.785156 167.605469 30.273438 167.085938 30.796875 C 166.773438 31.117188 166.488281 31.460938 166.234375 31.832031 C 166.210938 31.875 166.191406 31.921875 166.175781 31.972656 C 166.210938 31.972656 166.230469 31.972656 166.242188 31.972656 C 167.214844 31.34375 168.222656 30.765625 169.246094 30.226562 C 170.027344 29.8125 170.808594 29.40625 171.59375 29.015625 C 172.382812 28.625 173.140625 28.265625 173.921875 27.898438 C 174.417969 27.660156 174.921875 27.4375 175.421875 27.203125 L 178.582031 25.816406 L 179.097656 25.578125 L 179.417969 25.460938 L 179.464844 25.445312 L 184.667969 23.515625 L 184.726562 23.496094 C 185.125 23.367188 185.519531 23.242188 185.910156 23.121094 C 186.183594 23.039062 186.457031 22.976562 186.726562 22.886719 C 186.851562 22.828125 186.964844 22.847656 187.058594 22.949219 C 187.589844 23.398438 188.121094 23.84375 188.664062 24.277344 C 189.300781 24.789062 189.957031 25.28125 190.597656 25.789062 C 191.238281 26.28125 191.824219 26.832031 192.355469 27.445312 C 192.824219 27.960938 193.199219 28.539062 193.488281 29.171875 C 193.613281 29.460938 193.714844 29.757812 193.792969 30.0625 C 193.859375 30.328125 193.867188 30.609375 193.910156 30.882812 C 194.003906 31.585938 193.910156 32.261719 193.632812 32.914062 C 193.238281 33.851562 192.59375 34.554688 191.691406 35.023438 C 191.308594 35.230469 190.90625 35.382812 190.484375 35.484375 C 190.199219 35.554688 189.898438 35.554688 189.613281 35.617188 C 189.027344 35.742188 188.449219 35.640625 187.875 35.570312 C 187.464844 35.503906 187.0625 35.390625 186.671875 35.242188 C 185.769531 34.917969 185.046875 34.367188 184.496094 33.582031 C 184.027344 32.910156 183.710938 32.175781 183.550781 31.371094 C 183.417969 30.875 183.351562 30.371094 183.355469 29.859375 C 183.355469 29.789062 183.339844 29.722656 183.316406 29.660156 C 183.265625 29.496094 183.15625 29.417969 182.988281 29.421875 C 182.8125 29.414062 182.699219 29.492188 182.644531 29.660156 C 182.585938 29.769531 182.550781 29.886719 182.53125 30.007812 C 182.488281 30.347656 182.453125 30.683594 182.4375 31.023438 C 182.414062 31.554688 182.378906 32.089844 182.355469 32.621094 C 182.308594 33.675781 182.332031 34.738281 182.332031 35.792969 C 182.339844 35.863281 182.355469 35.929688 182.382812 35.992188 C 182.5 36.273438 182.703125 36.457031 182.996094 36.539062 C 183.273438 36.660156 183.550781 36.777344 183.832031 36.871094 C 184.144531 36.980469 184.457031 37.074219 184.777344 37.148438 C 185.15625 37.230469 185.539062 37.292969 185.921875 37.339844 C 186.429688 37.402344 186.9375 37.464844 187.445312 37.484375 C 188.035156 37.511719 188.628906 37.484375 189.214844 37.484375 C 189.378906 37.488281 189.542969 37.484375 189.703125 37.46875 C 190.054688 37.425781 190.410156 37.375 190.761719 37.316406 C 191.089844 37.273438 191.417969 37.210938 191.738281 37.128906 C 192.15625 37.007812 192.570312 36.863281 192.976562 36.703125 C 194.003906 36.300781 194.90625 35.714844 195.691406 34.9375 C 196.335938 34.304688 196.84375 33.578125 197.214844 32.75 C 197.441406 32.261719 197.597656 31.75 197.691406 31.21875 C 197.757812 30.917969 197.808594 30.617188 197.84375 30.308594 C 197.929688 29.269531 197.851562 28.246094 197.605469 27.230469 C 197.476562 26.671875 197.292969 26.128906 197.054688 25.605469 C 196.707031 24.914062 196.285156 24.273438 195.789062 23.675781 C 195.285156 23.070312 194.738281 22.503906 194.152344 21.972656 C 193.960938 21.800781 193.777344 21.613281 193.585938 21.433594 C 193.585938 21.414062 193.605469 21.398438 193.609375 21.378906 C 193.953125 21.324219 194.292969 21.253906 194.632812 21.210938 C 195.179688 21.140625 195.726562 21.085938 196.269531 21.023438 L 196.363281 21.023438 C 196.738281 20.96875 197.113281 20.914062 197.488281 20.867188 C 197.808594 20.832031 198.136719 20.804688 198.460938 20.785156 C 198.984375 20.75 199.511719 20.71875 200.039062 20.699219 C 200.480469 20.683594 200.921875 20.699219 201.359375 20.683594 C 202.242188 20.652344 203.113281 20.734375 203.988281 20.785156 C 204.035156 20.785156 204.082031 20.789062 204.128906 20.796875 L 205.039062 20.953125 C 205.261719 20.988281 205.484375 21.003906 205.699219 21.058594 C 206.074219 21.152344 206.441406 21.265625 206.804688 21.398438 C 207.265625 21.550781 207.660156 21.804688 207.988281 22.164062 C 208.191406 22.394531 208.300781 22.667969 208.308594 22.976562 C 208.347656 23.449219 208.289062 23.910156 208.128906 24.359375 C 208.019531 24.65625 207.898438 24.945312 207.761719 25.226562 C 207.449219 25.785156 207.074219 26.300781 206.632812 26.765625 C 206.003906 27.4375 205.320312 28.046875 204.582031 28.601562 C 203.886719 29.125 203.164062 29.605469 202.40625 30.042969 C 201.539062 30.539062 200.65625 31.007812 199.777344 31.488281 L 199.566406 31.601562 C 199.609375 31.632812 199.652344 31.644531 199.703125 31.628906 L 200.675781 31.21875 C 201.433594 30.894531 202.195312 30.589844 202.9375 30.242188 C 203.84375 29.816406 204.734375 29.363281 205.621094 28.898438 C 206.652344 28.363281 207.644531 27.761719 208.589844 27.085938 C 209.027344 26.773438 209.472656 26.460938 209.882812 26.113281 C 210.351562 25.742188 210.777344 25.332031 211.164062 24.878906 C 211.433594 24.542969 211.730469 24.222656 211.96875 23.863281 C 212.234375 23.492188 212.414062 23.078125 212.507812 22.628906 C 212.550781 22.363281 212.636719 22.105469 212.660156 21.839844 C 212.679688 21.480469 212.628906 21.128906 212.507812 20.789062 Z M 212.507812 20.789062"/></g><g><use x="216.268" y="25.63" xmlns:xlink="http://www.w3.org/1999/xlink" xlink:href="#c" xlink:type="simple" xlink:actuate="onLoad" xlink:show="embed"/></g><g><use x="222.417" y="25.63" xmlns:xlink="http://www.w3.org/1999/xlink" xlink:href="#d" xlink:type="simple" xlink:actuate="onLoad" xlink:show="embed"/></g><g><use x="228.094" y="25.63" xmlns:xlink="http://www.w3.org/1999/xlink" xlink:href="#e" xlink:type="simple" xlink:actuate="onLoad" xlink:show="embed"/></g><g><use x="233.98" y="25.63" xmlns:xlink="http://www.w3.org/1999/xlink" xlink:href="#f" xlink:type="simple" xlink:actuate="onLoad" xlink:show="embed"/></g><g><use x="240.266" y="25.63" xmlns:xlink="http://www.w3.org/1999/xlink" xlink:href="#e" xlink:type="simple" xlink:actuate="onLoad" xlink:show="embed"/></g><g><use x="246.153" y="25.63" xmlns:xlink="http://www.w3.org/1999/xlink" xlink:href="#g" xlink:type="simple" xlink:actuate="onLoad" xlink:show="embed"/></g><g><use x="250.095" y="25.63" xmlns:xlink="http://www.w3.org/1999/xlink" xlink:href="#h" xlink:type="simple" xlink:actuate="onLoad" xlink:show="embed"/></g></svg>