<svg xmlns="http://www.w3.org/2000/svg" xmlns:xlink="http://www.w3.org/1999/xlink" width="82.5" viewBox="0 0 82.5 56.25" height="56.25" version="1.0"><defs><g id="c"><path d="M 2.59375 0.0898438 C 3.652344 0.0898438 4.925781 -0.363281 4.925781 -1.847656 C 4.925781 -3.148438 3.964844 -3.441406 3.085938 -3.636719 C 2.390625 -3.785156 1.761719 -3.859375 1.761719 -4.4375 C 1.761719 -4.84375 2.070312 -5.050781 2.542969 -5.050781 C 2.988281 -5.050781 3.332031 -4.871094 3.429688 -4.375 C 3.449219 -4.257812 3.511719 -4.203125 3.617188 -4.203125 L 4.578125 -4.203125 C 4.695312 -4.203125 4.753906 -4.265625 4.746094 -4.390625 C 4.648438 -5.625 3.582031 -6.132812 2.570312 -6.132812 C 1.511719 -6.132812 0.425781 -5.566406 0.425781 -4.25 C 0.425781 -3.148438 1.191406 -2.828125 1.910156 -2.632812 C 2.738281 -2.410156 3.589844 -2.375 3.589844 -1.652344 C 3.589844 -1.15625 3.171875 -0.996094 2.730469 -0.996094 C 2.152344 -0.996094 1.714844 -1.269531 1.636719 -1.824219 C 1.625 -1.929688 1.566406 -1.992188 1.457031 -1.992188 L 0.417969 -1.992188 C 0.300781 -1.992188 0.238281 -1.929688 0.238281 -1.8125 C 0.3125 -0.460938 1.429688 0.0898438 2.59375 0.0898438 Z M 2.59375 0.0898438"/></g><g id="h"><path d="M 2.523438 -4.0625 C 1.207031 -4.0625 0.238281 -3.234375 0.238281 -1.957031 C 0.238281 -0.65625 1.171875 0.140625 2.523438 0.140625 C 3.503906 0.140625 4.277344 -0.285156 4.585938 -1.171875 C 4.632812 -1.296875 4.558594 -1.378906 4.4375 -1.378906 L 3.449219 -1.378906 C 3.351562 -1.378906 3.296875 -1.324219 3.253906 -1.226562 C 3.148438 -0.988281 2.890625 -0.808594 2.496094 -0.808594 C 2 -0.808594 1.6875 -1.164062 1.652344 -1.707031 L 4.515625 -1.707031 C 4.632812 -1.707031 4.695312 -1.769531 4.695312 -1.882812 L 4.695312 -2.042969 C 4.695312 -3.34375 3.714844 -4.0625 2.523438 -4.0625 Z M 1.671875 -2.425781 C 1.746094 -2.851562 1.988281 -3.15625 2.480469 -3.15625 C 2.953125 -3.15625 3.253906 -2.851562 3.28125 -2.425781 Z M 1.671875 -2.425781"/></g><g id="d"><path d="M 2.960938 -4.007812 C 2.445312 -4.007812 2.027344 -3.777344 1.761719 -3.445312 L 1.761719 -4.976562 C 1.761719 -5.894531 1.289062 -6.488281 0.425781 -6.667969 L 0.425781 -0.179688 C 0.425781 -0.0625 0.488281 0 0.605469 0 L 1.582031 0 C 1.699219 0 1.761719 -0.0625 1.761719 -0.179688 L 1.761719 -1.957031 C 1.761719 -2.488281 2.089844 -2.933594 2.507812 -2.933594 C 2.925781 -2.933594 3.101562 -2.683594 3.101562 -2.222656 L 3.101562 -0.179688 C 3.101562 -0.0625 3.164062 0 3.28125 0 L 4.257812 0 C 4.375 0 4.4375 -0.0625 4.4375 -0.179688 L 4.4375 -2.222656 C 4.4375 -3.289062 4.007812 -4.007812 2.960938 -4.007812 Z M 2.960938 -4.007812"/></g><g id="e"><path d="M 2.488281 0.140625 C 3.882812 0.140625 4.71875 -0.71875 4.71875 -1.957031 C 4.71875 -3.183594 3.875 -4.0625 2.488281 -4.0625 C 1.09375 -4.0625 0.25 -3.183594 0.25 -1.957031 C 0.25 -0.730469 1.085938 0.140625 2.488281 0.140625 Z M 2.488281 -0.898438 C 1.894531 -0.898438 1.574219 -1.359375 1.574219 -1.945312 C 1.574219 -2.542969 1.902344 -3.023438 2.488281 -3.023438 C 3.074219 -3.023438 3.394531 -2.550781 3.394531 -1.945312 C 3.394531 -1.351562 3.074219 -0.898438 2.488281 -0.898438 Z M 2.488281 -0.898438"/></g><g id="f"><path d="M 3.101562 -4.0625 C 2.425781 -4.0625 1.871094 -3.769531 1.527344 -3.277344 C 1.3125 -3.652344 0.9375 -3.902344 0.425781 -4.007812 L 0.425781 0.355469 C 0.425781 1.511719 0.898438 2.132812 1.761719 2.222656 L 1.761719 -0.375 C 2.097656 -0.0429688 2.558594 0.140625 3.101562 0.140625 C 4.257812 0.140625 5.058594 -0.71875 5.058594 -1.964844 C 5.058594 -3.199219 4.257812 -4.0625 3.101562 -4.0625 Z M 2.695312 -0.925781 C 2.152344 -0.925781 1.761719 -1.351562 1.761719 -1.957031 C 1.761719 -2.558594 2.152344 -2.988281 2.695312 -2.988281 C 3.234375 -2.988281 3.625 -2.558594 3.625 -1.957031 C 3.625 -1.351562 3.234375 -0.925781 2.695312 -0.925781 Z M 2.695312 -0.925781"/></g><g id="g"><path d="M 3.039062 -3.972656 C 2.953125 -3.992188 2.84375 -4.007812 2.746094 -4.007812 C 2.277344 -4.007812 1.835938 -3.796875 1.554688 -3.226562 C 1.34375 -3.632812 0.960938 -3.898438 0.425781 -4.007812 L 0.425781 -0.179688 C 0.425781 -0.0625 0.488281 0 0.605469 0 L 1.582031 0 C 1.699219 0 1.761719 -0.0625 1.761719 -0.179688 L 1.761719 -1.972656 C 1.8125 -2.515625 2.089844 -2.800781 2.570312 -2.800781 C 2.695312 -2.800781 2.828125 -2.78125 2.976562 -2.746094 C 3.101562 -2.710938 3.183594 -2.765625 3.183594 -2.890625 L 3.183594 -3.769531 C 3.183594 -3.867188 3.136719 -3.945312 3.039062 -3.972656 Z M 3.039062 -3.972656"/></g><clipPath id="a"><path d="M 27 4.023438 L 32 4.023438 L 32 8 L 27 8 Z M 27 4.023438"/></clipPath><clipPath id="b"><path d="M 0.386719 16 L 45.808594 16 L 45.808594 36.042969 L 0.386719 36.042969 Z M 0.386719 16"/></clipPath></defs><path d="M 37.0625 9.75 L 37.589844 6.140625 L 37.648438 6.140625 L 37.699219 6.441406 C 37.824219 7.246094 37.949219 8.050781 38.066406 8.851562 C 38.101562 9.0625 38.101562 9.28125 38.121094 9.496094 C 38.140625 9.710938 38.15625 9.75 38.394531 9.78125 L 41.699219 10.230469 C 41.75 10.246094 41.796875 10.261719 41.839844 10.28125 C 41.730469 10.304688 41.671875 10.320312 41.609375 10.328125 C 40.796875 10.453125 39.976562 10.574219 39.160156 10.695312 C 38.894531 10.730469 38.628906 10.757812 38.367188 10.789062 C 38.152344 10.816406 38.152344 10.820312 38.121094 11.039062 C 37.964844 12.125 37.816406 13.210938 37.671875 14.292969 C 37.667969 14.328125 37.652344 14.355469 37.625 14.378906 C 37.488281 13.792969 37.414062 13.203125 37.324219 12.613281 C 37.234375 12.023438 37.15625 11.433594 37.070312 10.832031 L 33.492188 10.3125 C 33.863281 10.144531 34.265625 10.152344 34.648438 10.085938 C 35.027344 10.015625 35.445312 9.957031 35.84375 9.902344 C 36.238281 9.847656 36.648438 9.800781 37.0625 9.75 Z M 37.0625 9.75"/><path d="M 12.75 19.054688 L 12.949219 17.71875 L 12.96875 17.71875 C 12.96875 17.753906 12.96875 17.792969 12.988281 17.832031 C 13.03125 18.125 13.078125 18.425781 13.125 18.722656 C 13.136719 18.800781 13.136719 18.882812 13.144531 18.953125 C 13.152344 19.019531 13.144531 19.046875 13.246094 19.058594 L 14.46875 19.226562 L 14.523438 19.242188 L 14.4375 19.261719 L 13.527344 19.398438 C 13.429688 19.410156 13.332031 19.417969 13.234375 19.429688 C 13.136719 19.441406 13.152344 19.429688 13.144531 19.523438 L 12.976562 20.730469 C 12.972656 20.742188 12.96875 20.753906 12.960938 20.761719 C 12.910156 20.546875 12.878906 20.324219 12.847656 20.105469 C 12.816406 19.886719 12.785156 19.675781 12.753906 19.449219 L 11.425781 19.253906 C 11.566406 19.207031 11.710938 19.179688 11.855469 19.167969 C 12.003906 19.140625 12.152344 19.121094 12.300781 19.101562 C 12.449219 19.078125 12.597656 19.074219 12.75 19.054688 Z M 12.75 19.054688"/><g clip-path="url(#a)"><path d="M 29.273438 5.394531 L 29.476562 4.054688 L 29.503906 4.054688 C 29.503906 4.09375 29.515625 4.132812 29.523438 4.167969 C 29.566406 4.46875 29.613281 4.765625 29.65625 5.0625 C 29.65625 5.140625 29.671875 5.222656 29.679688 5.292969 C 29.6875 5.363281 29.691406 5.386719 29.78125 5.398438 L 31.003906 5.5625 L 31.058594 5.582031 C 31.03125 5.589844 31 5.59375 30.972656 5.601562 L 30.0625 5.734375 C 29.964844 5.75 29.867188 5.757812 29.769531 5.769531 C 29.667969 5.78125 29.691406 5.785156 29.679688 5.863281 L 29.503906 7.078125 C 29.5 7.09375 29.496094 7.101562 29.484375 7.113281 C 29.433594 6.894531 29.410156 6.675781 29.375 6.457031 C 29.339844 6.238281 29.3125 6.019531 29.28125 5.796875 L 27.953125 5.605469 C 28.09375 5.554688 28.234375 5.527344 28.382812 5.515625 C 28.53125 5.488281 28.679688 5.46875 28.828125 5.449219 C 28.972656 5.425781 29.125 5.410156 29.273438 5.394531 Z M 29.273438 5.394531"/></g><path d="M 30.632812 9.667969 C 30.632812 9.75 30.632812 9.832031 30.632812 9.910156 C 30.613281 10.351562 30.574219 10.792969 30.5625 11.234375 C 30.542969 12.015625 30.539062 12.792969 30.523438 13.570312 C 30.515625 13.71875 30.492188 13.867188 30.449219 14.011719 C 30.390625 14.222656 30.273438 14.304688 30.105469 14.296875 C 29.90625 14.265625 29.792969 14.152344 29.765625 13.953125 C 29.761719 13.910156 29.761719 13.863281 29.765625 13.820312 C 29.761719 12.960938 29.503906 12.1875 28.988281 11.5 C 28.585938 10.902344 28.066406 10.4375 27.425781 10.101562 C 27.042969 9.898438 26.644531 9.757812 26.222656 9.667969 C 25.648438 9.546875 25.070312 9.503906 24.484375 9.539062 C 23.582031 9.566406 22.761719 9.832031 22.015625 10.335938 C 21.214844 10.886719 20.746094 11.640625 20.605469 12.59375 C 20.496094 13.257812 20.554688 13.910156 20.78125 14.542969 C 20.90625 14.863281 21.070312 15.164062 21.277344 15.441406 C 21.722656 16.058594 22.242188 16.613281 22.828125 17.101562 L 22.992188 17.238281 C 22.976562 17.34375 22.902344 17.351562 22.828125 17.375 C 22.242188 17.542969 18.71875 18.699219 18.558594 18.765625 C 18.441406 18.816406 18.328125 18.851562 18.183594 18.902344 C 18.109375 18.789062 18.035156 18.6875 17.976562 18.582031 C 17.707031 18.113281 17.488281 17.625 17.320312 17.117188 C 17.183594 16.664062 17.085938 16.207031 17.027344 15.738281 C 16.953125 15.1875 16.9375 14.632812 16.976562 14.078125 C 17.03125 13.289062 17.234375 12.535156 17.585938 11.824219 C 17.988281 11.023438 18.539062 10.339844 19.234375 9.773438 C 19.828125 9.277344 20.488281 8.890625 21.210938 8.609375 C 21.609375 8.457031 22.015625 8.320312 22.425781 8.199219 C 22.710938 8.121094 23 8.0625 23.292969 8.019531 C 24.085938 7.886719 24.886719 7.832031 25.691406 7.847656 C 26.332031 7.875 26.972656 7.929688 27.613281 7.992188 C 28.050781 8.035156 28.484375 8.097656 28.917969 8.171875 C 29.417969 8.246094 29.910156 8.359375 30.390625 8.515625 C 30.621094 8.59375 30.765625 8.746094 30.683594 9.117188"/><g clip-path="url(#b)"><path d="M 45.648438 19.828125 C 45.480469 19.269531 45.175781 18.796875 44.742188 18.410156 C 44.484375 18.175781 44.207031 17.96875 43.90625 17.796875 C 43.523438 17.574219 43.125 17.382812 42.714844 17.222656 C 42.328125 17.078125 41.933594 16.957031 41.535156 16.855469 C 41.257812 16.78125 40.976562 16.734375 40.695312 16.675781 C 40.464844 16.625 40.234375 16.566406 39.988281 16.535156 C 39.605469 16.488281 39.222656 16.460938 38.832031 16.425781 C 38.796875 16.425781 38.757812 16.414062 38.71875 16.410156 C 38.382812 16.390625 38.046875 16.367188 37.710938 16.347656 C 37.675781 16.347656 37.636719 16.371094 37.597656 16.371094 C 37.507812 16.375 37.417969 16.375 37.328125 16.371094 C 37.203125 16.351562 37.074219 16.34375 36.945312 16.347656 C 36.699219 16.367188 36.449219 16.367188 36.199219 16.347656 C 35.277344 16.304688 34.367188 16.40625 33.453125 16.453125 C 33.382812 16.457031 33.316406 16.46875 33.25 16.480469 L 32.867188 16.527344 C 32.519531 16.566406 32.175781 16.597656 31.832031 16.636719 C 31.597656 16.660156 31.382812 16.695312 31.15625 16.730469 C 30.867188 16.773438 30.574219 16.824219 30.285156 16.871094 C 30.054688 16.90625 29.820312 16.929688 29.589844 16.972656 C 29.214844 17.042969 28.839844 17.128906 28.460938 17.203125 C 28.082031 17.277344 27.769531 17.328125 27.417969 17.394531 C 27.261719 17.425781 27.109375 17.460938 26.953125 17.496094 L 25.984375 17.726562 C 25.714844 17.792969 25.441406 17.859375 25.171875 17.929688 C 24.902344 18 24.621094 18.074219 24.34375 18.160156 C 24.066406 18.242188 23.820312 18.289062 23.558594 18.359375 C 23.21875 18.457031 22.878906 18.5625 22.539062 18.660156 L 21.5 18.964844 L 21.164062 19.0625 C 20.121094 19.347656 19.097656 19.691406 18.09375 20.09375 C 17.929688 20.152344 17.765625 20.210938 17.605469 20.273438 C 17.582031 20.28125 17.5625 20.289062 17.546875 20.304688 L 17.183594 20.449219 L 17.152344 20.449219 L 16.5 20.710938 C 16.503906 20.707031 16.503906 20.703125 16.5 20.695312 C 16.332031 20.757812 16.183594 20.808594 16.039062 20.875 L 14.402344 21.585938 C 13.558594 21.945312 12.992188 22.203125 12.992188 22.203125 L 12.972656 22.226562 L 12.738281 22.324219 C 11.585938 22.855469 10.429688 23.433594 9.316406 24.054688 C 8.351562 24.585938 7.398438 25.132812 6.449219 25.695312 C 5.886719 26.027344 5.339844 26.386719 4.800781 26.753906 C 4.15625 27.195312 3.523438 27.648438 2.898438 28.117188 C 2.324219 28.554688 1.785156 29.027344 1.28125 29.535156 C 0.972656 29.847656 0.695312 30.179688 0.449219 30.539062 C 0.425781 30.582031 0.40625 30.628906 0.390625 30.675781 C 0.425781 30.675781 0.445312 30.675781 0.453125 30.675781 C 1.40625 30.066406 2.390625 29.503906 3.390625 28.980469 C 4.152344 28.582031 4.914062 28.1875 5.683594 27.808594 C 6.453125 27.429688 7.195312 27.082031 7.957031 26.722656 C 8.445312 26.492188 8.9375 26.277344 9.421875 26.050781 L 12.507812 24.703125 L 13.011719 24.472656 L 13.328125 24.359375 L 13.371094 24.34375 L 18.453125 22.46875 L 18.511719 22.453125 C 18.902344 22.328125 19.285156 22.207031 19.667969 22.089844 C 19.933594 22.011719 20.203125 21.949219 20.464844 21.863281 C 20.585938 21.804688 20.695312 21.824219 20.792969 21.921875 C 21.308594 22.359375 21.828125 22.792969 22.359375 23.210938 C 22.980469 23.707031 23.621094 24.1875 24.25 24.675781 C 24.875 25.15625 25.445312 25.691406 25.964844 26.285156 C 26.421875 26.785156 26.789062 27.34375 27.070312 27.960938 C 27.191406 28.242188 27.292969 28.527344 27.367188 28.824219 C 27.433594 29.082031 27.441406 29.351562 27.480469 29.621094 C 27.574219 30.300781 27.484375 30.957031 27.210938 31.589844 C 26.828125 32.5 26.195312 33.183594 25.3125 33.636719 C 24.941406 33.835938 24.546875 33.984375 24.136719 34.082031 C 23.859375 34.148438 23.5625 34.152344 23.285156 34.210938 C 22.714844 34.332031 22.148438 34.234375 21.589844 34.164062 C 21.183594 34.101562 20.792969 33.992188 20.410156 33.847656 C 19.53125 33.535156 18.824219 32.996094 18.285156 32.238281 C 17.828125 31.585938 17.519531 30.871094 17.363281 30.09375 C 17.234375 29.613281 17.171875 29.125 17.171875 28.628906 C 17.171875 28.558594 17.160156 28.496094 17.132812 28.433594 C 17.085938 28.273438 16.980469 28.199219 16.8125 28.203125 C 16.644531 28.195312 16.53125 28.269531 16.476562 28.433594 C 16.421875 28.539062 16.386719 28.652344 16.367188 28.773438 C 16.328125 29.097656 16.289062 29.425781 16.277344 29.753906 C 16.253906 30.273438 16.21875 30.789062 16.195312 31.304688 C 16.152344 32.328125 16.171875 33.355469 16.171875 34.382812 C 16.179688 34.449219 16.195312 34.515625 16.222656 34.578125 C 16.335938 34.851562 16.535156 35.027344 16.824219 35.109375 C 17.089844 35.222656 17.363281 35.335938 17.640625 35.425781 C 17.941406 35.535156 18.25 35.625 18.5625 35.699219 C 18.929688 35.777344 19.304688 35.835938 19.679688 35.882812 C 20.175781 35.945312 20.671875 36.003906 21.167969 36.023438 C 21.742188 36.050781 22.324219 36.023438 22.894531 36.023438 C 23.054688 36.027344 23.214844 36.019531 23.375 36.003906 C 23.71875 35.964844 24.0625 35.917969 24.40625 35.859375 C 24.730469 35.816406 25.046875 35.757812 25.363281 35.675781 C 25.769531 35.5625 26.175781 35.417969 26.570312 35.265625 C 27.574219 34.875 28.457031 34.304688 29.222656 33.550781 C 29.851562 32.9375 30.347656 32.230469 30.710938 31.433594 C 30.933594 30.957031 31.085938 30.460938 31.175781 29.945312 C 31.242188 29.65625 31.289062 29.359375 31.324219 29.0625 C 31.410156 28.054688 31.332031 27.058594 31.09375 26.078125 C 30.964844 25.535156 30.785156 25.007812 30.554688 24.5 C 30.214844 23.828125 29.804688 23.207031 29.320312 22.628906 C 28.824219 22.042969 28.292969 21.492188 27.71875 20.976562 C 27.53125 20.808594 27.351562 20.628906 27.167969 20.453125 C 27.167969 20.433594 27.183594 20.417969 27.191406 20.402344 C 27.523438 20.34375 27.855469 20.277344 28.1875 20.238281 C 28.722656 20.167969 29.257812 20.117188 29.789062 20.054688 L 29.878906 20.054688 C 30.246094 20.003906 30.609375 19.949219 30.976562 19.90625 C 31.292969 19.867188 31.609375 19.84375 31.925781 19.824219 C 32.441406 19.789062 32.953125 19.757812 33.46875 19.738281 C 33.898438 19.726562 34.332031 19.738281 34.761719 19.726562 C 35.621094 19.695312 36.472656 19.777344 37.328125 19.820312 C 37.375 19.824219 37.417969 19.828125 37.464844 19.835938 L 38.355469 19.984375 C 38.570312 20.023438 38.789062 20.035156 39 20.089844 C 39.363281 20.179688 39.722656 20.289062 40.078125 20.417969 C 40.527344 20.566406 40.914062 20.8125 41.234375 21.160156 C 41.433594 21.386719 41.539062 21.648438 41.546875 21.949219 C 41.585938 22.410156 41.527344 22.855469 41.371094 23.289062 C 41.265625 23.578125 41.148438 23.859375 41.011719 24.132812 C 40.707031 24.675781 40.339844 25.171875 39.910156 25.625 C 39.292969 26.277344 38.628906 26.871094 37.90625 27.40625 C 37.230469 27.914062 36.519531 28.382812 35.78125 28.804688 C 34.933594 29.285156 34.070312 29.738281 33.214844 30.207031 L 33.007812 30.316406 C 33.046875 30.347656 33.09375 30.355469 33.140625 30.339844 L 34.09375 29.941406 C 34.828125 29.628906 35.578125 29.335938 36.300781 28.996094 C 37.183594 28.582031 38.054688 28.144531 38.921875 27.691406 C 39.929688 27.175781 40.898438 26.589844 41.824219 25.9375 C 42.25 25.632812 42.683594 25.328125 43.085938 24.992188 C 43.539062 24.632812 43.957031 24.234375 44.335938 23.792969 C 44.601562 23.46875 44.890625 23.160156 45.121094 22.8125 C 45.382812 22.449219 45.558594 22.046875 45.648438 21.613281 C 45.691406 21.355469 45.773438 21.105469 45.796875 20.847656 C 45.816406 20.496094 45.765625 20.15625 45.648438 19.828125 Z M 45.648438 19.828125"/></g><g><use x="47.417" y="22.72" xmlns:xlink="http://www.w3.org/1999/xlink" xlink:href="#c" xlink:type="simple" xlink:actuate="onLoad" xlink:show="embed"/></g><g><use x="52.617" y="22.72" xmlns:xlink="http://www.w3.org/1999/xlink" xlink:href="#d" xlink:type="simple" xlink:actuate="onLoad" xlink:show="embed"/></g><g><use x="57.417" y="22.72" xmlns:xlink="http://www.w3.org/1999/xlink" xlink:href="#e" xlink:type="simple" xlink:actuate="onLoad" xlink:show="embed"/></g><g><use x="62.396" y="22.72" xmlns:xlink="http://www.w3.org/1999/xlink" xlink:href="#f" xlink:type="simple" xlink:actuate="onLoad" xlink:show="embed"/></g><g><use x="67.711" y="22.72" xmlns:xlink="http://www.w3.org/1999/xlink" xlink:href="#e" xlink:type="simple" xlink:actuate="onLoad" xlink:show="embed"/></g><g><use x="72.689" y="22.72" xmlns:xlink="http://www.w3.org/1999/xlink" xlink:href="#g" xlink:type="simple" xlink:actuate="onLoad" xlink:show="embed"/></g><g><use x="76.023" y="22.72" xmlns:xlink="http://www.w3.org/1999/xlink" xlink:href="#h" xlink:type="simple" xlink:actuate="onLoad" xlink:show="embed"/></g></svg>