<svg xmlns="http://www.w3.org/2000/svg" xmlns:xlink="http://www.w3.org/1999/xlink" width="82.5" viewBox="0 0 82.5 56.25" height="56.25" version="1.0"><defs><g id="c"><path d="M 2.402344 0.0820312 C 3.378906 0.0820312 4.554688 -0.335938 4.554688 -1.710938 C 4.554688 -2.910156 3.667969 -3.179688 2.851562 -3.363281 C 2.210938 -3.503906 1.628906 -3.566406 1.628906 -4.101562 C 1.628906 -4.480469 1.914062 -4.667969 2.351562 -4.667969 C 2.761719 -4.667969 3.082031 -4.503906 3.171875 -4.042969 C 3.191406 -3.9375 3.246094 -3.886719 3.347656 -3.886719 L 4.234375 -3.886719 C 4.339844 -3.886719 4.398438 -3.945312 4.390625 -4.0625 C 4.300781 -5.203125 3.3125 -5.671875 2.375 -5.671875 C 1.398438 -5.671875 0.394531 -5.144531 0.394531 -3.929688 C 0.394531 -2.910156 1.101562 -2.613281 1.765625 -2.433594 C 2.53125 -2.226562 3.320312 -2.195312 3.320312 -1.527344 C 3.320312 -1.070312 2.933594 -0.921875 2.523438 -0.921875 C 1.988281 -0.921875 1.585938 -1.175781 1.511719 -1.683594 C 1.503906 -1.785156 1.445312 -1.839844 1.347656 -1.839844 L 0.386719 -1.839844 C 0.28125 -1.839844 0.222656 -1.785156 0.222656 -1.675781 C 0.289062 -0.425781 1.324219 0.0820312 2.402344 0.0820312 Z M 2.402344 0.0820312"/></g><g id="h"><path d="M 2.335938 -3.757812 C 1.117188 -3.757812 0.222656 -2.992188 0.222656 -1.808594 C 0.222656 -0.609375 1.085938 0.132812 2.335938 0.132812 C 3.238281 0.132812 3.953125 -0.261719 4.242188 -1.085938 C 4.285156 -1.199219 4.21875 -1.273438 4.101562 -1.273438 L 3.191406 -1.273438 C 3.097656 -1.273438 3.050781 -1.226562 3.007812 -1.132812 C 2.910156 -0.914062 2.671875 -0.75 2.308594 -0.75 C 1.851562 -0.75 1.5625 -1.078125 1.527344 -1.578125 L 4.175781 -1.578125 C 4.285156 -1.578125 4.339844 -1.636719 4.339844 -1.742188 L 4.339844 -1.890625 C 4.339844 -3.089844 3.4375 -3.757812 2.335938 -3.757812 Z M 1.546875 -2.246094 C 1.617188 -2.640625 1.835938 -2.917969 2.292969 -2.917969 C 2.730469 -2.917969 3.007812 -2.640625 3.035156 -2.246094 Z M 1.546875 -2.246094"/></g><g id="d"><path d="M 2.738281 -3.707031 C 2.261719 -3.707031 1.875 -3.492188 1.628906 -3.1875 L 1.628906 -4.605469 C 1.628906 -5.449219 1.191406 -6 0.394531 -6.164062 L 0.394531 -0.164062 C 0.394531 -0.0585938 0.453125 0 0.558594 0 L 1.464844 0 C 1.570312 0 1.628906 -0.0585938 1.628906 -0.164062 L 1.628906 -1.808594 C 1.628906 -2.300781 1.933594 -2.714844 2.320312 -2.714844 C 2.703125 -2.714844 2.871094 -2.484375 2.871094 -2.054688 L 2.871094 -0.164062 C 2.871094 -0.0585938 2.925781 0 3.035156 0 L 3.9375 0 C 4.042969 0 4.101562 -0.0585938 4.101562 -0.164062 L 4.101562 -2.054688 C 4.101562 -3.042969 3.707031 -3.707031 2.738281 -3.707031 Z M 2.738281 -3.707031"/></g><g id="e"><path d="M 2.300781 0.132812 C 3.59375 0.132812 4.367188 -0.664062 4.367188 -1.808594 C 4.367188 -2.941406 3.585938 -3.757812 2.300781 -3.757812 C 1.011719 -3.757812 0.230469 -2.941406 0.230469 -1.808594 C 0.230469 -0.675781 1.003906 0.132812 2.300781 0.132812 Z M 2.300781 -0.832031 C 1.75 -0.832031 1.457031 -1.257812 1.457031 -1.800781 C 1.457031 -2.351562 1.757812 -2.796875 2.300781 -2.796875 C 2.84375 -2.796875 3.140625 -2.359375 3.140625 -1.800781 C 3.140625 -1.25 2.84375 -0.832031 2.300781 -0.832031 Z M 2.300781 -0.832031"/></g><g id="f"><path d="M 2.871094 -3.757812 C 2.246094 -3.757812 1.730469 -3.484375 1.414062 -3.03125 C 1.210938 -3.378906 0.867188 -3.609375 0.394531 -3.707031 L 0.394531 0.328125 C 0.394531 1.398438 0.832031 1.972656 1.628906 2.054688 L 1.628906 -0.34375 C 1.941406 -0.0429688 2.367188 0.132812 2.871094 0.132812 C 3.9375 0.132812 4.679688 -0.664062 4.679688 -1.816406 C 4.679688 -2.960938 3.9375 -3.757812 2.871094 -3.757812 Z M 2.492188 -0.855469 C 1.988281 -0.855469 1.628906 -1.25 1.628906 -1.808594 C 1.628906 -2.367188 1.988281 -2.761719 2.492188 -2.761719 C 2.992188 -2.761719 3.355469 -2.367188 3.355469 -1.808594 C 3.355469 -1.25 2.992188 -0.855469 2.492188 -0.855469 Z M 2.492188 -0.855469"/></g><g id="g"><path d="M 2.8125 -3.675781 C 2.730469 -3.691406 2.628906 -3.707031 2.539062 -3.707031 C 2.105469 -3.707031 1.699219 -3.511719 1.4375 -2.984375 C 1.242188 -3.359375 0.886719 -3.605469 0.394531 -3.707031 L 0.394531 -0.164062 C 0.394531 -0.0585938 0.453125 0 0.558594 0 L 1.464844 0 C 1.570312 0 1.628906 -0.0585938 1.628906 -0.164062 L 1.628906 -1.824219 C 1.675781 -2.328125 1.933594 -2.589844 2.375 -2.589844 C 2.492188 -2.589844 2.613281 -2.574219 2.753906 -2.539062 C 2.871094 -2.507812 2.941406 -2.558594 2.941406 -2.671875 L 2.941406 -3.484375 C 2.941406 -3.578125 2.902344 -3.648438 2.8125 -3.675781 Z M 2.8125 -3.675781"/></g><clipPath id="a"><path d="M 28 14.058594 L 32 14.058594 L 32 18 L 28 18 Z M 28 14.058594"/></clipPath><clipPath id="b"><path d="M 2.179688 25 L 45.367188 25 L 45.367188 44.589844 L 2.179688 44.589844 Z M 2.179688 25"/></clipPath></defs><path d="M 37.050781 19.519531 L 37.554688 16.082031 L 37.609375 16.082031 L 37.65625 16.367188 C 37.773438 17.132812 37.894531 17.902344 38.007812 18.664062 C 38.039062 18.867188 38.039062 19.070312 38.058594 19.277344 C 38.074219 19.484375 38.089844 19.519531 38.320312 19.550781 L 41.460938 19.980469 C 41.507812 19.992188 41.550781 20.007812 41.59375 20.023438 C 41.488281 20.050781 41.433594 20.0625 41.375 20.074219 C 40.601562 20.191406 39.824219 20.308594 39.042969 20.421875 C 38.792969 20.457031 38.542969 20.480469 38.289062 20.511719 C 38.089844 20.535156 38.085938 20.542969 38.058594 20.746094 C 37.910156 21.785156 37.769531 22.820312 37.632812 23.851562 C 37.625 23.882812 37.613281 23.910156 37.585938 23.933594 C 37.457031 23.375 37.386719 22.8125 37.300781 22.25 C 37.214844 21.6875 37.140625 21.125 37.058594 20.550781 L 33.65625 20.058594 C 34.011719 19.894531 34.390625 19.902344 34.753906 19.839844 C 35.117188 19.773438 35.511719 19.71875 35.890625 19.664062 C 36.269531 19.613281 36.65625 19.566406 37.050781 19.519531 Z M 37.050781 19.519531"/><path d="M 13.9375 28.390625 L 14.121094 27.117188 L 14.140625 27.117188 C 14.140625 27.152344 14.140625 27.1875 14.160156 27.222656 C 14.203125 27.507812 14.246094 27.792969 14.289062 28.074219 C 14.300781 28.152344 14.300781 28.226562 14.308594 28.292969 C 14.316406 28.359375 14.308594 28.386719 14.40625 28.394531 L 15.570312 28.554688 L 15.621094 28.570312 L 15.539062 28.589844 L 14.675781 28.71875 C 14.582031 28.730469 14.488281 28.738281 14.394531 28.75 C 14.300781 28.761719 14.316406 28.75 14.308594 28.839844 L 14.152344 29.988281 C 14.148438 30 14.140625 30.011719 14.132812 30.019531 C 14.085938 29.8125 14.058594 29.601562 14.027344 29.394531 C 13.996094 29.1875 13.96875 28.984375 13.9375 28.765625 L 12.675781 28.582031 C 12.808594 28.539062 12.945312 28.511719 13.085938 28.5 C 13.226562 28.472656 13.367188 28.453125 13.507812 28.433594 C 13.648438 28.414062 13.789062 28.410156 13.9375 28.390625 Z M 13.9375 28.390625"/><g clip-path="url(#a)"><path d="M 29.644531 15.367188 L 29.839844 14.089844 L 29.863281 14.089844 C 29.863281 14.125 29.878906 14.164062 29.882812 14.199219 C 29.925781 14.484375 29.96875 14.765625 30.011719 15.050781 C 30.011719 15.125 30.023438 15.203125 30.03125 15.269531 C 30.039062 15.339844 30.042969 15.359375 30.128906 15.371094 L 31.292969 15.527344 L 31.34375 15.546875 C 31.316406 15.554688 31.289062 15.558594 31.261719 15.5625 L 30.394531 15.691406 C 30.304688 15.707031 30.210938 15.714844 30.117188 15.726562 C 30.023438 15.738281 30.042969 15.738281 30.03125 15.816406 L 29.863281 16.972656 C 29.863281 16.984375 29.855469 16.996094 29.847656 17.003906 C 29.796875 16.796875 29.773438 16.589844 29.742188 16.378906 C 29.707031 16.171875 29.679688 15.960938 29.652344 15.75 L 28.390625 15.566406 C 28.523438 15.523438 28.660156 15.492188 28.796875 15.484375 C 28.9375 15.457031 29.078125 15.4375 29.21875 15.417969 C 29.359375 15.398438 29.503906 15.382812 29.644531 15.367188 Z M 29.644531 15.367188"/></g><path d="M 30.9375 19.441406 C 30.9375 19.519531 30.9375 19.597656 30.9375 19.671875 C 30.917969 20.09375 30.882812 20.511719 30.871094 20.933594 C 30.851562 21.679688 30.851562 22.421875 30.832031 23.164062 C 30.828125 23.304688 30.804688 23.445312 30.765625 23.582031 C 30.707031 23.785156 30.597656 23.863281 30.4375 23.855469 C 30.25 23.828125 30.140625 23.71875 30.113281 23.527344 C 30.109375 23.484375 30.109375 23.441406 30.113281 23.398438 C 30.109375 22.582031 29.863281 21.847656 29.375 21.191406 C 28.992188 20.621094 28.496094 20.175781 27.886719 19.855469 C 27.527344 19.664062 27.144531 19.527344 26.742188 19.441406 C 26.199219 19.324219 25.648438 19.285156 25.089844 19.316406 C 24.234375 19.34375 23.453125 19.597656 22.746094 20.078125 C 21.984375 20.605469 21.539062 21.320312 21.402344 22.234375 C 21.300781 22.867188 21.355469 23.484375 21.570312 24.089844 C 21.6875 24.398438 21.847656 24.683594 22.042969 24.945312 C 22.46875 25.535156 22.960938 26.0625 23.519531 26.527344 L 23.675781 26.660156 C 23.660156 26.761719 23.589844 26.769531 23.515625 26.789062 C 22.960938 26.949219 19.609375 28.054688 19.457031 28.117188 C 19.347656 28.164062 19.238281 28.199219 19.097656 28.246094 C 19.03125 28.140625 18.960938 28.042969 18.902344 27.941406 C 18.648438 27.496094 18.441406 27.03125 18.28125 26.542969 C 18.148438 26.113281 18.054688 25.675781 18 25.230469 C 17.933594 24.703125 17.914062 24.175781 17.953125 23.648438 C 18.007812 22.894531 18.199219 22.175781 18.53125 21.496094 C 18.917969 20.734375 19.441406 20.082031 20.101562 19.542969 C 20.664062 19.070312 21.292969 18.699219 21.976562 18.433594 C 22.359375 18.289062 22.746094 18.160156 23.132812 18.042969 C 23.40625 17.96875 23.679688 17.910156 23.957031 17.871094 C 24.710938 17.746094 25.472656 17.691406 26.238281 17.707031 C 26.847656 17.734375 27.457031 17.785156 28.066406 17.84375 C 28.480469 17.886719 28.894531 17.945312 29.304688 18.015625 C 29.78125 18.085938 30.25 18.195312 30.707031 18.34375 C 30.925781 18.417969 31.066406 18.5625 30.984375 18.917969"/><g clip-path="url(#b)"><path d="M 45.214844 29.128906 C 45.054688 28.597656 44.765625 28.148438 44.351562 27.777344 C 44.109375 27.550781 43.84375 27.355469 43.558594 27.191406 C 43.195312 26.980469 42.816406 26.796875 42.425781 26.644531 C 42.058594 26.507812 41.683594 26.390625 41.304688 26.296875 C 41.042969 26.226562 40.769531 26.179688 40.503906 26.121094 C 40.285156 26.078125 40.066406 26.019531 39.832031 25.992188 C 39.46875 25.945312 39.105469 25.917969 38.734375 25.886719 C 38.699219 25.886719 38.664062 25.871094 38.625 25.871094 C 38.308594 25.851562 37.988281 25.828125 37.667969 25.8125 C 37.632812 25.8125 37.597656 25.832031 37.5625 25.832031 C 37.476562 25.835938 37.390625 25.835938 37.304688 25.832031 C 37.183594 25.816406 37.0625 25.808594 36.941406 25.808594 C 36.703125 25.828125 36.46875 25.828125 36.230469 25.808594 C 35.351562 25.769531 34.488281 25.867188 33.617188 25.910156 C 33.554688 25.914062 33.488281 25.925781 33.425781 25.9375 L 33.0625 25.980469 C 32.734375 26.015625 32.402344 26.046875 32.078125 26.085938 C 31.855469 26.109375 31.648438 26.140625 31.4375 26.175781 C 31.160156 26.214844 30.882812 26.265625 30.605469 26.308594 C 30.386719 26.34375 30.167969 26.367188 29.949219 26.40625 C 29.589844 26.476562 29.234375 26.554688 28.871094 26.625 C 28.511719 26.699219 28.214844 26.746094 27.878906 26.808594 C 27.734375 26.839844 27.585938 26.875 27.441406 26.90625 L 26.515625 27.125 C 26.261719 27.1875 26.003906 27.25 25.746094 27.316406 C 25.488281 27.386719 25.222656 27.457031 24.960938 27.539062 C 24.695312 27.617188 24.457031 27.660156 24.210938 27.730469 C 23.886719 27.820312 23.566406 27.921875 23.242188 28.015625 L 22.253906 28.304688 L 21.933594 28.398438 C 20.941406 28.671875 19.96875 28.996094 19.015625 29.382812 C 18.859375 29.4375 18.703125 29.496094 18.550781 29.550781 C 18.53125 29.558594 18.511719 29.570312 18.496094 29.582031 L 18.148438 29.722656 L 18.121094 29.722656 L 17.503906 29.96875 C 17.503906 29.964844 17.503906 29.960938 17.503906 29.957031 C 17.339844 30.015625 17.199219 30.066406 17.0625 30.125 L 15.507812 30.804688 C 14.703125 31.148438 14.164062 31.394531 14.164062 31.394531 L 14.144531 31.414062 L 13.925781 31.511719 C 12.824219 32.015625 11.726562 32.566406 10.671875 33.15625 C 9.753906 33.664062 8.84375 34.1875 7.945312 34.722656 C 7.410156 35.039062 6.890625 35.378906 6.378906 35.734375 C 5.765625 36.152344 5.160156 36.585938 4.566406 37.03125 C 4.023438 37.449219 3.511719 37.898438 3.027344 38.386719 C 2.738281 38.679688 2.472656 39 2.238281 39.339844 C 2.214844 39.382812 2.195312 39.425781 2.183594 39.472656 C 2.21875 39.472656 2.234375 39.472656 2.242188 39.472656 C 3.148438 38.890625 4.082031 38.355469 5.035156 37.855469 C 5.757812 37.472656 6.484375 37.097656 7.214844 36.734375 C 7.949219 36.375 8.652344 36.042969 9.375 35.703125 C 9.839844 35.484375 10.308594 35.277344 10.773438 35.058594 L 13.703125 33.777344 L 14.183594 33.558594 L 14.484375 33.449219 L 14.523438 33.433594 L 19.359375 31.648438 L 19.414062 31.628906 C 19.78125 31.511719 20.148438 31.398438 20.511719 31.285156 C 20.765625 31.210938 21.023438 31.152344 21.269531 31.066406 C 21.386719 31.015625 21.488281 31.035156 21.582031 31.125 C 22.074219 31.539062 22.566406 31.953125 23.070312 32.355469 C 23.664062 32.828125 24.269531 33.285156 24.867188 33.75 C 25.460938 34.207031 26.003906 34.71875 26.496094 35.285156 C 26.933594 35.761719 27.285156 36.296875 27.550781 36.882812 C 27.667969 37.148438 27.761719 37.421875 27.832031 37.703125 C 27.894531 37.953125 27.902344 38.210938 27.941406 38.464844 C 28.03125 39.113281 27.945312 39.738281 27.683594 40.339844 C 27.320312 41.210938 26.71875 41.859375 25.878906 42.292969 C 25.527344 42.484375 25.152344 42.628906 24.757812 42.71875 C 24.496094 42.78125 24.21875 42.785156 23.949219 42.84375 C 23.410156 42.957031 22.871094 42.863281 22.339844 42.796875 C 21.953125 42.734375 21.582031 42.632812 21.21875 42.492188 C 20.382812 42.195312 19.710938 41.683594 19.199219 40.960938 C 18.761719 40.339844 18.46875 39.65625 18.320312 38.914062 C 18.199219 38.457031 18.136719 37.992188 18.140625 37.519531 C 18.140625 37.453125 18.125 37.390625 18.101562 37.332031 C 18.058594 37.179688 17.957031 37.109375 17.796875 37.113281 C 17.636719 37.105469 17.53125 37.179688 17.476562 37.332031 C 17.425781 37.433594 17.390625 37.542969 17.375 37.65625 C 17.335938 37.96875 17.300781 38.28125 17.285156 38.59375 C 17.265625 39.085938 17.230469 39.578125 17.210938 40.070312 C 17.167969 41.046875 17.191406 42.027344 17.191406 43.007812 C 17.195312 43.070312 17.210938 43.132812 17.234375 43.191406 C 17.34375 43.449219 17.535156 43.621094 17.808594 43.695312 C 18.0625 43.804688 18.320312 43.914062 18.582031 44 C 18.871094 44.101562 19.164062 44.1875 19.460938 44.257812 C 19.8125 44.335938 20.167969 44.390625 20.523438 44.433594 C 20.992188 44.492188 21.464844 44.550781 21.9375 44.570312 C 22.484375 44.59375 23.035156 44.570312 23.582031 44.570312 C 23.734375 44.574219 23.886719 44.566406 24.035156 44.550781 C 24.363281 44.511719 24.691406 44.46875 25.019531 44.414062 C 25.324219 44.371094 25.628906 44.316406 25.925781 44.238281 C 26.316406 44.128906 26.699219 43.996094 27.074219 43.847656 C 28.027344 43.476562 28.867188 42.929688 29.597656 42.214844 C 30.195312 41.628906 30.667969 40.953125 31.011719 40.191406 C 31.222656 39.738281 31.367188 39.265625 31.453125 38.773438 C 31.515625 38.496094 31.5625 38.21875 31.59375 37.933594 C 31.675781 36.972656 31.601562 36.023438 31.375 35.085938 C 31.253906 34.570312 31.082031 34.070312 30.863281 33.585938 C 30.542969 32.945312 30.148438 32.347656 29.6875 31.800781 C 29.21875 31.238281 28.710938 30.714844 28.167969 30.222656 C 27.988281 30.0625 27.816406 29.890625 27.640625 29.726562 C 27.640625 29.707031 27.65625 29.691406 27.664062 29.675781 C 27.980469 29.621094 28.296875 29.558594 28.613281 29.519531 C 29.121094 29.453125 29.628906 29.402344 30.132812 29.34375 L 30.222656 29.34375 C 30.570312 29.296875 30.917969 29.242188 31.265625 29.203125 C 31.566406 29.167969 31.867188 29.144531 32.167969 29.125 C 32.65625 29.09375 33.144531 29.0625 33.632812 29.042969 C 34.042969 29.03125 34.453125 29.042969 34.863281 29.03125 C 35.679688 29.003906 36.492188 29.078125 37.304688 29.121094 C 37.347656 29.125 37.390625 29.128906 37.433594 29.136719 L 38.28125 29.277344 C 38.484375 29.3125 38.691406 29.328125 38.894531 29.378906 C 39.242188 29.464844 39.582031 29.566406 39.917969 29.691406 C 40.347656 29.832031 40.714844 30.066406 41.015625 30.398438 C 41.207031 30.613281 41.308594 30.863281 41.316406 31.152344 C 41.351562 31.589844 41.296875 32.015625 41.148438 32.429688 C 41.046875 32.703125 40.933594 32.972656 40.804688 33.230469 C 40.515625 33.75 40.167969 34.226562 39.757812 34.65625 C 39.171875 35.277344 38.539062 35.84375 37.855469 36.351562 C 37.210938 36.839844 36.535156 37.285156 35.835938 37.6875 C 35.027344 38.144531 34.207031 38.578125 33.394531 39.023438 L 33.195312 39.128906 C 33.234375 39.15625 33.277344 39.167969 33.324219 39.152344 L 34.226562 38.773438 C 34.929688 38.472656 35.636719 38.191406 36.328125 37.871094 C 37.167969 37.476562 37.996094 37.058594 38.816406 36.625 C 39.777344 36.132812 40.695312 35.574219 41.578125 34.953125 C 41.984375 34.664062 42.394531 34.371094 42.777344 34.050781 C 43.210938 33.707031 43.609375 33.328125 43.96875 32.910156 C 44.21875 32.597656 44.492188 32.304688 44.714844 31.972656 C 44.960938 31.625 45.128906 31.246094 45.214844 30.828125 C 45.257812 30.585938 45.335938 30.34375 45.355469 30.101562 C 45.375 29.765625 45.328125 29.441406 45.214844 29.128906 Z M 45.214844 29.128906"/></g><g><use x="48.216" y="31.92" xmlns:xlink="http://www.w3.org/1999/xlink" xlink:href="#c" xlink:type="simple" xlink:actuate="onLoad" xlink:show="embed"/></g><g><use x="53.026" y="31.92" xmlns:xlink="http://www.w3.org/1999/xlink" xlink:href="#d" xlink:type="simple" xlink:actuate="onLoad" xlink:show="embed"/></g><g><use x="57.465" y="31.92" xmlns:xlink="http://www.w3.org/1999/xlink" xlink:href="#e" xlink:type="simple" xlink:actuate="onLoad" xlink:show="embed"/></g><g><use x="62.069" y="31.92" xmlns:xlink="http://www.w3.org/1999/xlink" xlink:href="#f" xlink:type="simple" xlink:actuate="onLoad" xlink:show="embed"/></g><g><use x="66.985" y="31.92" xmlns:xlink="http://www.w3.org/1999/xlink" xlink:href="#e" xlink:type="simple" xlink:actuate="onLoad" xlink:show="embed"/></g><g><use x="71.589" y="31.92" xmlns:xlink="http://www.w3.org/1999/xlink" xlink:href="#g" xlink:type="simple" xlink:actuate="onLoad" xlink:show="embed"/></g><g><use x="74.672" y="31.92" xmlns:xlink="http://www.w3.org/1999/xlink" xlink:href="#h" xlink:type="simple" xlink:actuate="onLoad" xlink:show="embed"/></g></svg>