<svg xmlns="http://www.w3.org/2000/svg" xmlns:xlink="http://www.w3.org/1999/xlink" width="165" viewBox="0 0 165 67.5" height="67.5" version="1.0"><defs><g id="b"><path d="M 6.996094 0.238281 C 9.847656 0.238281 13.277344 -0.984375 13.277344 -4.984375 C 13.277344 -8.484375 10.6875 -9.273438 8.316406 -9.800781 C 6.445312 -10.210938 4.746094 -10.402344 4.746094 -11.957031 C 4.746094 -13.0625 5.582031 -13.613281 6.855469 -13.613281 C 8.050781 -13.613281 8.988281 -13.132812 9.25 -11.789062 C 9.296875 -11.480469 9.464844 -11.335938 9.753906 -11.335938 L 12.34375 -11.335938 C 12.652344 -11.335938 12.820312 -11.503906 12.796875 -11.839844 C 12.535156 -15.167969 9.65625 -16.535156 6.925781 -16.535156 C 4.074219 -16.535156 1.148438 -15.003906 1.148438 -11.457031 C 1.148438 -8.484375 3.210938 -7.621094 5.152344 -7.09375 C 7.382812 -6.496094 9.683594 -6.398438 9.683594 -4.457031 C 9.683594 -3.117188 8.554688 -2.683594 7.355469 -2.683594 C 5.800781 -2.683594 4.625 -3.425781 4.410156 -4.914062 C 4.386719 -5.199219 4.21875 -5.367188 3.929688 -5.367188 L 1.125 -5.367188 C 0.816406 -5.367188 0.648438 -5.199219 0.648438 -4.890625 C 0.839844 -1.246094 3.859375 0.238281 6.996094 0.238281 Z M 6.996094 0.238281"/></g><g id="g"><path d="M 6.804688 -10.953125 C 3.257812 -10.953125 0.648438 -8.722656 0.648438 -5.273438 C 0.648438 -1.773438 3.164062 0.382812 6.804688 0.382812 C 9.441406 0.382812 11.527344 -0.765625 12.367188 -3.164062 C 12.484375 -3.5 12.292969 -3.714844 11.957031 -3.714844 L 9.296875 -3.714844 C 9.035156 -3.714844 8.890625 -3.570312 8.769531 -3.308594 C 8.484375 -2.660156 7.789062 -2.179688 6.734375 -2.179688 C 5.390625 -2.179688 4.554688 -3.140625 4.457031 -4.601562 L 12.175781 -4.601562 C 12.484375 -4.601562 12.652344 -4.769531 12.652344 -5.082031 L 12.652344 -5.511719 C 12.652344 -9.011719 10.015625 -10.953125 6.804688 -10.953125 Z M 4.503906 -6.542969 C 4.710938 -7.691406 5.355469 -8.507812 6.6875 -8.507812 C 7.957031 -8.507812 8.769531 -7.691406 8.84375 -6.542969 Z M 4.503906 -6.542969"/></g><g id="c"><path d="M 7.980469 -10.808594 C 6.589844 -10.808594 5.464844 -10.183594 4.746094 -9.285156 L 4.746094 -13.421875 C 4.746094 -15.890625 3.476562 -17.496094 1.148438 -17.972656 L 1.148438 -0.480469 C 1.148438 -0.167969 1.316406 0 1.628906 0 L 4.265625 0 C 4.578125 0 4.746094 -0.167969 4.746094 -0.480469 L 4.746094 -5.273438 C 4.746094 -6.710938 5.632812 -7.910156 6.757812 -7.910156 C 7.882812 -7.910156 8.363281 -7.238281 8.363281 -5.992188 L 8.363281 -0.480469 C 8.363281 -0.167969 8.53125 0 8.84375 0 L 11.480469 0 C 11.789062 0 11.957031 -0.167969 11.957031 -0.480469 L 11.957031 -5.992188 C 11.957031 -8.867188 10.808594 -10.808594 7.980469 -10.808594 Z M 7.980469 -10.808594"/></g><g id="d"><path d="M 6.710938 0.382812 C 10.472656 0.382812 12.726562 -1.941406 12.726562 -5.273438 C 12.726562 -8.578125 10.449219 -10.953125 6.710938 -10.953125 C 2.949219 -10.953125 0.671875 -8.578125 0.671875 -5.273438 C 0.671875 -1.964844 2.921875 0.382812 6.710938 0.382812 Z M 6.710938 -2.421875 C 5.105469 -2.421875 4.242188 -3.667969 4.242188 -5.25 C 4.242188 -6.855469 5.128906 -8.148438 6.710938 -8.148438 C 8.292969 -8.148438 9.15625 -6.878906 9.15625 -5.25 C 9.15625 -3.644531 8.292969 -2.421875 6.710938 -2.421875 Z M 6.710938 -2.421875"/></g><g id="e"><path d="M 8.363281 -10.953125 C 6.542969 -10.953125 5.042969 -10.160156 4.121094 -8.832031 C 3.535156 -9.847656 2.527344 -10.519531 1.148438 -10.808594 L 1.148438 0.957031 C 1.148438 4.074219 2.421875 5.75 4.746094 5.992188 L 4.746094 -1.007812 C 5.65625 -0.121094 6.902344 0.382812 8.363281 0.382812 C 11.480469 0.382812 13.636719 -1.941406 13.636719 -5.296875 C 13.636719 -8.628906 11.480469 -10.953125 8.363281 -10.953125 Z M 7.261719 -2.492188 C 5.800781 -2.492188 4.746094 -3.644531 4.746094 -5.273438 C 4.746094 -6.902344 5.800781 -8.050781 7.261719 -8.050781 C 8.722656 -8.050781 9.777344 -6.902344 9.777344 -5.273438 C 9.777344 -3.644531 8.722656 -2.492188 7.261719 -2.492188 Z M 7.261719 -2.492188"/></g><g id="f"><path d="M 8.195312 -10.710938 C 7.957031 -10.761719 7.667969 -10.808594 7.40625 -10.808594 C 6.136719 -10.808594 4.949219 -10.234375 4.195312 -8.699219 C 3.617188 -9.789062 2.589844 -10.507812 1.148438 -10.808594 L 1.148438 -0.480469 C 1.148438 -0.167969 1.316406 0 1.628906 0 L 4.265625 0 C 4.578125 0 4.746094 -0.167969 4.746094 -0.480469 L 4.746094 -5.320312 C 4.890625 -6.78125 5.632812 -7.550781 6.925781 -7.550781 C 7.261719 -7.550781 7.621094 -7.5 8.027344 -7.40625 C 8.363281 -7.308594 8.578125 -7.453125 8.578125 -7.789062 L 8.578125 -10.160156 C 8.578125 -10.425781 8.460938 -10.640625 8.195312 -10.710938 Z M 8.195312 -10.710938"/></g><clipPath id="a"><path d="M 0.605469 19 L 72.820312 19 L 72.820312 51.371094 L 0.605469 51.371094 Z M 0.605469 19"/></clipPath></defs><path d="M 58.917969 9.1875 L 59.761719 3.402344 L 59.851562 3.402344 L 59.929688 3.882812 C 60.128906 5.171875 60.328125 6.464844 60.515625 7.75 C 60.570312 8.089844 60.570312 8.433594 60.601562 8.78125 C 60.632812 9.128906 60.65625 9.191406 61.039062 9.242188 L 66.292969 9.960938 C 66.367188 9.984375 66.445312 10.007812 66.515625 10.039062 C 66.339844 10.078125 66.246094 10.105469 66.148438 10.121094 C 64.855469 10.316406 63.554688 10.511719 62.25 10.707031 C 61.832031 10.765625 61.410156 10.804688 60.992188 10.855469 C 60.652344 10.898438 60.648438 10.90625 60.601562 11.253906 C 60.355469 13 60.117188 14.738281 59.890625 16.476562 C 59.882812 16.53125 59.855469 16.578125 59.8125 16.613281 C 59.597656 15.675781 59.476562 14.726562 59.332031 13.78125 C 59.191406 12.839844 59.066406 11.886719 58.933594 10.925781 L 53.242188 10.09375 C 53.832031 9.820312 54.472656 9.832031 55.078125 9.726562 C 55.683594 9.617188 56.347656 9.523438 56.980469 9.433594 C 57.609375 9.34375 58.261719 9.269531 58.917969 9.1875 Z M 58.917969 9.1875"/><path d="M 20.265625 24.117188 L 20.578125 21.972656 L 20.613281 21.972656 C 20.613281 22.03125 20.613281 22.089844 20.640625 22.152344 C 20.714844 22.628906 20.789062 23.105469 20.859375 23.582031 C 20.875 23.710938 20.878906 23.839844 20.890625 23.949219 C 20.902344 24.0625 20.890625 24.105469 21.054688 24.125 L 23 24.390625 L 23.085938 24.417969 L 22.949219 24.449219 L 21.5 24.664062 C 21.347656 24.6875 21.191406 24.703125 21.035156 24.722656 C 20.875 24.738281 20.90625 24.722656 20.890625 24.867188 L 20.628906 26.808594 C 20.621094 26.824219 20.613281 26.84375 20.597656 26.855469 C 20.515625 26.507812 20.472656 26.15625 20.421875 25.804688 C 20.371094 25.453125 20.320312 25.117188 20.269531 24.746094 L 18.160156 24.4375 C 18.382812 24.363281 18.613281 24.316406 18.84375 24.296875 C 19.082031 24.253906 19.316406 24.222656 19.550781 24.191406 C 19.785156 24.15625 20.019531 24.144531 20.265625 24.117188 Z M 20.265625 24.117188"/><path d="M 46.535156 2.199219 L 46.859375 0.0546875 L 46.902344 0.0546875 C 46.902344 0.113281 46.921875 0.175781 46.929688 0.234375 C 47.003906 0.714844 47.078125 1.191406 47.148438 1.667969 C 47.148438 1.792969 47.167969 1.921875 47.179688 2.039062 C 47.191406 2.152344 47.203125 2.1875 47.339844 2.207031 L 49.289062 2.472656 L 49.375 2.5 C 49.328125 2.511719 49.285156 2.523438 49.238281 2.53125 L 47.789062 2.75 C 47.636719 2.769531 47.480469 2.785156 47.324219 2.804688 C 47.164062 2.820312 47.199219 2.824219 47.179688 2.953125 L 46.902344 4.90625 C 46.898438 4.925781 46.886719 4.941406 46.871094 4.957031 C 46.789062 4.609375 46.75 4.253906 46.695312 3.90625 C 46.640625 3.554688 46.597656 3.203125 46.546875 2.847656 L 44.433594 2.539062 C 44.65625 2.460938 44.882812 2.414062 45.117188 2.398438 C 45.355469 2.351562 45.589844 2.320312 45.824219 2.289062 C 46.058594 2.253906 46.300781 2.230469 46.535156 2.199219 Z M 46.535156 2.199219"/><path d="M 48.699219 9.058594 C 48.699219 9.191406 48.699219 9.320312 48.699219 9.445312 C 48.664062 10.152344 48.605469 10.859375 48.585938 11.566406 C 48.554688 12.820312 48.550781 14.070312 48.519531 15.320312 C 48.511719 15.558594 48.472656 15.792969 48.40625 16.023438 C 48.3125 16.367188 48.128906 16.5 47.859375 16.484375 C 47.71875 16.460938 47.597656 16.402344 47.5 16.300781 C 47.398438 16.199219 47.339844 16.078125 47.320312 15.933594 C 47.308594 15.863281 47.308594 15.789062 47.320312 15.71875 C 47.3125 14.34375 46.898438 13.101562 46.082031 12 C 45.441406 11.039062 44.613281 10.289062 43.597656 9.75 C 42.992188 9.429688 42.355469 9.199219 41.683594 9.058594 C 40.773438 8.863281 39.851562 8.792969 38.921875 8.847656 C 37.488281 8.890625 36.179688 9.320312 34.996094 10.128906 C 34.386719 10.550781 33.890625 11.078125 33.5 11.707031 C 33.109375 12.335938 32.859375 13.019531 32.75 13.753906 C 32.582031 14.820312 32.675781 15.859375 33.03125 16.878906 C 33.230469 17.394531 33.496094 17.875 33.824219 18.320312 C 34.535156 19.3125 35.355469 20.199219 36.289062 20.980469 L 36.550781 21.207031 C 36.523438 21.375 36.40625 21.386719 36.285156 21.421875 C 35.355469 21.691406 29.753906 23.550781 29.5 23.65625 C 29.316406 23.738281 29.132812 23.792969 28.902344 23.875 C 28.789062 23.691406 28.667969 23.53125 28.574219 23.355469 C 28.144531 22.609375 27.796875 21.824219 27.53125 21.007812 C 27.3125 20.28125 27.15625 19.546875 27.0625 18.792969 C 26.949219 17.910156 26.921875 17.023438 26.984375 16.132812 C 27.074219 14.863281 27.398438 13.660156 27.953125 12.515625 C 28.59375 11.234375 29.46875 10.136719 30.578125 9.226562 C 31.519531 8.429688 32.566406 7.808594 33.714844 7.359375 C 34.351562 7.117188 34.996094 6.898438 35.648438 6.703125 C 36.101562 6.574219 36.558594 6.480469 37.023438 6.410156 C 38.289062 6.199219 39.558594 6.109375 40.839844 6.140625 C 41.855469 6.183594 42.878906 6.273438 43.894531 6.367188 C 44.589844 6.4375 45.28125 6.539062 45.96875 6.65625 C 46.761719 6.777344 47.542969 6.960938 48.3125 7.207031 C 48.679688 7.332031 48.910156 7.578125 48.773438 8.171875"/><g clip-path="url(#a)"><path d="M 72.570312 25.355469 C 72.300781 24.464844 71.820312 23.703125 71.128906 23.082031 C 70.722656 22.703125 70.28125 22.375 69.800781 22.097656 C 69.191406 21.742188 68.558594 21.4375 67.90625 21.175781 C 67.289062 20.945312 66.664062 20.75 66.027344 20.589844 C 65.589844 20.472656 65.140625 20.394531 64.695312 20.296875 C 64.328125 20.222656 63.960938 20.125 63.570312 20.078125 C 62.960938 20 62.351562 19.957031 61.734375 19.902344 C 61.675781 19.902344 61.617188 19.878906 61.554688 19.875 C 61.019531 19.839844 60.484375 19.804688 59.949219 19.773438 C 59.890625 19.773438 59.832031 19.808594 59.769531 19.8125 C 59.628906 19.820312 59.484375 19.820312 59.339844 19.8125 C 59.140625 19.78125 58.9375 19.769531 58.734375 19.769531 C 58.339844 19.804688 57.945312 19.804688 57.546875 19.769531 C 56.078125 19.707031 54.632812 19.867188 53.179688 19.941406 C 53.070312 19.953125 52.964844 19.96875 52.855469 19.988281 L 52.25 20.0625 C 51.699219 20.121094 51.148438 20.171875 50.601562 20.234375 C 50.234375 20.277344 49.886719 20.332031 49.53125 20.386719 C 49.070312 20.457031 48.605469 20.539062 48.140625 20.613281 C 47.773438 20.671875 47.40625 20.707031 47.039062 20.777344 C 46.441406 20.890625 45.847656 21.023438 45.242188 21.144531 C 44.640625 21.269531 44.140625 21.347656 43.582031 21.457031 C 43.335938 21.503906 43.09375 21.5625 42.847656 21.617188 L 41.304688 21.988281 C 40.875 22.089844 40.445312 22.195312 40.015625 22.3125 C 39.585938 22.425781 39.140625 22.546875 38.699219 22.679688 C 38.257812 22.8125 37.863281 22.886719 37.445312 23.003906 C 36.90625 23.15625 36.371094 23.324219 35.832031 23.488281 L 34.175781 23.972656 L 33.640625 24.132812 C 31.980469 24.585938 30.355469 25.136719 28.761719 25.78125 C 28.5 25.875 28.238281 25.972656 27.984375 26.070312 C 27.949219 26.082031 27.917969 26.097656 27.890625 26.121094 L 27.3125 26.355469 L 27.261719 26.355469 L 26.230469 26.773438 C 26.230469 26.765625 26.230469 26.757812 26.230469 26.75 C 25.960938 26.851562 25.722656 26.933594 25.496094 27.035156 L 22.894531 28.179688 C 21.550781 28.753906 20.648438 29.167969 20.648438 29.167969 L 20.617188 29.203125 L 20.25 29.363281 C 18.410156 30.210938 16.574219 31.144531 14.808594 32.136719 C 13.273438 32.992188 11.753906 33.871094 10.246094 34.769531 C 9.355469 35.300781 8.484375 35.875 7.628906 36.46875 C 6.605469 37.179688 5.59375 37.90625 4.601562 38.65625 C 3.691406 39.355469 2.832031 40.113281 2.027344 40.933594 C 1.542969 41.429688 1.101562 41.964844 0.710938 42.539062 C 0.667969 42.609375 0.636719 42.683594 0.613281 42.761719 C 0.671875 42.761719 0.703125 42.761719 0.71875 42.761719 C 2.230469 41.78125 3.792969 40.882812 5.382812 40.042969 C 6.59375 39.398438 7.808594 38.765625 9.03125 38.15625 C 10.253906 37.550781 11.433594 36.992188 12.644531 36.417969 C 13.417969 36.050781 14.199219 35.703125 14.976562 35.339844 L 19.882812 33.179688 L 20.683594 32.808594 L 21.183594 32.628906 L 21.25 32.605469 L 29.335938 29.597656 L 29.425781 29.566406 C 30.042969 29.367188 30.65625 29.175781 31.261719 28.988281 C 31.6875 28.859375 32.117188 28.761719 32.53125 28.621094 C 32.726562 28.53125 32.898438 28.5625 33.050781 28.714844 C 33.871094 29.417969 34.695312 30.113281 35.539062 30.789062 C 36.53125 31.582031 37.546875 32.351562 38.546875 33.136719 C 39.539062 33.902344 40.449219 34.761719 41.273438 35.714844 C 42 36.519531 42.585938 37.417969 43.035156 38.40625 C 43.226562 38.855469 43.382812 39.316406 43.503906 39.785156 C 43.609375 40.203125 43.625 40.636719 43.6875 41.066406 C 43.835938 42.160156 43.691406 43.210938 43.257812 44.222656 C 42.644531 45.6875 41.640625 46.78125 40.238281 47.511719 C 39.644531 47.832031 39.023438 48.070312 38.367188 48.226562 C 37.925781 48.332031 37.457031 48.335938 37.011719 48.433594 C 36.105469 48.625 35.207031 48.46875 34.316406 48.359375 C 33.675781 48.253906 33.050781 48.082031 32.445312 47.847656 C 31.046875 47.347656 29.921875 46.484375 29.066406 45.265625 C 28.339844 44.222656 27.847656 43.074219 27.597656 41.824219 C 27.394531 41.054688 27.292969 40.269531 27.296875 39.472656 C 27.292969 39.367188 27.273438 39.261719 27.234375 39.160156 C 27.15625 38.90625 26.988281 38.785156 26.726562 38.792969 C 26.453125 38.78125 26.277344 38.902344 26.191406 39.160156 C 26.105469 39.332031 26.046875 39.515625 26.015625 39.707031 C 25.949219 40.230469 25.890625 40.757812 25.871094 41.285156 C 25.835938 42.113281 25.777344 42.941406 25.746094 43.765625 C 25.671875 45.410156 25.707031 47.0625 25.707031 48.710938 C 25.71875 48.816406 25.742188 48.917969 25.785156 49.019531 C 25.96875 49.457031 26.285156 49.742188 26.742188 49.871094 C 27.167969 50.054688 27.601562 50.238281 28.039062 50.382812 C 28.519531 50.554688 29.007812 50.699219 29.507812 50.816406 C 30.089844 50.945312 30.6875 51.039062 31.28125 51.113281 C 32.066406 51.210938 32.859375 51.308594 33.648438 51.339844 C 34.5625 51.382812 35.484375 51.339844 36.394531 51.339844 C 36.652344 51.347656 36.902344 51.335938 37.15625 51.3125 C 37.703125 51.246094 38.25 51.167969 38.800781 51.078125 C 39.308594 51.007812 39.816406 50.910156 40.316406 50.785156 C 40.96875 50.601562 41.609375 50.371094 42.238281 50.125 C 43.832031 49.5 45.234375 48.582031 46.453125 47.375 C 47.457031 46.390625 48.246094 45.257812 48.820312 43.972656 C 49.171875 43.210938 49.417969 42.417969 49.558594 41.589844 C 49.664062 41.121094 49.742188 40.648438 49.796875 40.175781 C 49.929688 38.558594 49.808594 36.960938 49.429688 35.382812 C 49.226562 34.511719 48.941406 33.667969 48.574219 32.855469 C 48.03125 31.777344 47.378906 30.777344 46.605469 29.851562 C 45.820312 28.90625 44.972656 28.023438 44.0625 27.203125 C 43.765625 26.929688 43.480469 26.640625 43.1875 26.359375 C 43.1875 26.332031 43.210938 26.304688 43.222656 26.277344 C 43.753906 26.1875 44.28125 26.082031 44.808594 26.015625 C 45.660156 25.902344 46.507812 25.820312 47.351562 25.71875 L 47.5 25.71875 C 48.082031 25.636719 48.660156 25.550781 49.246094 25.480469 C 49.746094 25.421875 50.25 25.378906 50.753906 25.351562 C 51.570312 25.296875 52.386719 25.246094 53.207031 25.214844 C 53.890625 25.191406 54.574219 25.214844 55.257812 25.191406 C 56.625 25.144531 57.980469 25.273438 59.339844 25.347656 C 59.414062 25.347656 59.488281 25.355469 59.558594 25.371094 L 60.972656 25.609375 C 61.3125 25.667969 61.664062 25.691406 61.996094 25.777344 C 62.578125 25.921875 63.152344 26.097656 63.714844 26.300781 C 64.429688 26.539062 65.042969 26.9375 65.550781 27.496094 C 65.871094 27.855469 66.035156 28.277344 66.050781 28.761719 C 66.109375 29.496094 66.015625 30.214844 65.765625 30.914062 C 65.601562 31.371094 65.414062 31.824219 65.199219 32.261719 C 64.714844 33.132812 64.128906 33.933594 63.445312 34.65625 C 62.46875 35.703125 61.40625 36.652344 60.261719 37.511719 C 59.183594 38.332031 58.054688 39.078125 56.882812 39.757812 C 55.535156 40.527344 54.164062 41.257812 52.800781 42.003906 L 52.472656 42.183594 C 52.535156 42.234375 52.605469 42.246094 52.683594 42.222656 L 54.199219 41.585938 C 55.371094 41.082031 56.554688 40.609375 57.710938 40.066406 C 59.113281 39.402344 60.5 38.699219 61.871094 37.972656 C 63.476562 37.144531 65.015625 36.203125 66.488281 35.15625 C 67.167969 34.671875 67.855469 34.179688 68.492188 33.640625 C 69.21875 33.0625 69.882812 32.421875 70.484375 31.71875 C 70.902344 31.195312 71.363281 30.703125 71.730469 30.140625 C 72.144531 29.5625 72.425781 28.917969 72.566406 28.21875 C 72.636719 27.808594 72.769531 27.402344 72.808594 26.992188 C 72.835938 26.429688 72.757812 25.882812 72.570312 25.355469 Z M 72.570312 25.355469"/></g><g fill="#FFA500"><use x="72.804" y="37.619" xmlns:xlink="http://www.w3.org/1999/xlink" xlink:href="#b" xlink:type="simple" xlink:actuate="onLoad" xlink:show="embed"/></g><g fill="#FFA500"><use x="86.822" y="37.619" xmlns:xlink="http://www.w3.org/1999/xlink" xlink:href="#c" xlink:type="simple" xlink:actuate="onLoad" xlink:show="embed"/></g><g fill="#FFA500"><use x="99.762" y="37.619" xmlns:xlink="http://www.w3.org/1999/xlink" xlink:href="#d" xlink:type="simple" xlink:actuate="onLoad" xlink:show="embed"/></g><g fill="#FFA500"><use x="113.182" y="37.619" xmlns:xlink="http://www.w3.org/1999/xlink" xlink:href="#e" xlink:type="simple" xlink:actuate="onLoad" xlink:show="embed"/></g><g><use x="127.5" y="37.619" xmlns:xlink="http://www.w3.org/1999/xlink" xlink:href="#d" xlink:type="simple" xlink:actuate="onLoad" xlink:show="embed"/></g><g><use x="140.92" y="37.619" xmlns:xlink="http://www.w3.org/1999/xlink" xlink:href="#f" xlink:type="simple" xlink:actuate="onLoad" xlink:show="embed"/></g><g><use x="149.906" y="37.619" xmlns:xlink="http://www.w3.org/1999/xlink" xlink:href="#g" xlink:type="simple" xlink:actuate="onLoad" xlink:show="embed"/></g></svg>