<svg width="174" height="58" viewBox="0 0 174 58" fill="none" xmlns="http://www.w3.org/2000/svg">
<path d="M30.4436 57.5489C29.8322 57.5489 29.2283 57.5292 28.6932 57.4921C26.7438 57.3449 24.8167 57.0243 22.9418 56.5353H22.9205C20.3749 55.81 17.9397 54.8167 15.6688 53.5774H15.6613C12.6606 51.7292 10.9401 49.5228 10.535 47.0171C10.0274 43.8419 11.7603 40.9692 13.3382 39.0916C16.4265 48.5856 22.3041 53.4004 30.81 53.4004C36.5989 53.4004 40.8011 49.833 40.8011 44.9189C40.8011 44.8992 40.8524 42.7529 39.8271 40.6481C38.0942 37.0861 33.4593 34.7203 29.3696 32.634C28.3694 32.1239 27.4279 31.6433 26.5277 31.1496C22.5267 28.9574 11.9091 23.1334 11.439 16.1657C11.2952 14.0336 12.1467 9.68744 19.4685 4.53188C19.5222 4.49584 24.9123 0.851994 33.5094 0.239226C34.047 0.200996 34.6134 0.181335 35.1923 0.181335C35.6561 0.181335 36.135 0.19335 36.6139 0.218473C39.7913 0.499484 42.9051 1.18276 45.8573 2.24683C46.1662 2.37682 46.4725 2.51663 46.7663 2.65862C47.2227 4.65858 47.6415 6.68148 48.0279 8.67271C48.4605 10.937 48.8518 13.2341 49.1907 15.5005L45.1897 16.3438C42.9391 10.0348 39.5633 4.20966 30.2536 4.20966C25.0386 4.20966 21.3964 7.54438 21.3964 12.3198C21.3964 17.5693 25.2961 20.075 33.4894 23.3977C42.6916 27.2305 48.1179 30.1633 50.471 34.6744C51.6888 37.0184 51.73 39.2172 51.75 40.2734V40.3258C51.7675 41.3384 51.64 46.6228 47.3977 51.1962C45.1097 53.6626 42.0539 55.4473 38.3168 56.5003C35.7692 57.1996 33.1139 57.5532 30.4436 57.5489V57.5489Z" fill="white"/>
<path d="M35.2023 0.224995C35.6649 0.224995 36.1425 0.23701 36.6152 0.26104C39.7831 0.545507 42.8871 1.23022 45.8299 2.29377C46.1312 2.42157 46.4263 2.55482 46.7051 2.69245C47.159 4.68367 47.5803 6.69784 47.9554 8.67923C48.3855 10.9271 48.7743 13.2067 49.1107 15.4568L45.221 16.2771C42.9704 9.96703 39.5734 4.15283 30.2424 4.15283C24.9911 4.15283 21.3227 7.51049 21.3227 12.3176C21.3227 17.5966 25.2336 20.1121 33.4506 23.4446C38.6281 25.6008 41.9052 27.1944 44.407 28.7717C47.3665 30.6373 49.2707 32.5193 50.4022 34.694C51.615 37.0282 51.6525 39.2193 51.6763 40.2723V40.3236C51.6938 41.334 51.5663 46.6009 47.3377 51.159C45.0572 53.6177 42.0115 55.3971 38.2868 56.4457C35.7456 57.1448 33.0966 57.4988 30.4324 57.4953C29.8223 57.4953 29.2209 57.4746 28.6907 57.4374C26.7456 57.2899 24.8227 56.9697 22.9518 56.4817V56.4817H22.9331C20.3898 55.7593 17.9567 54.769 15.6876 53.5326H15.6813C12.6994 51.6953 10.9865 49.502 10.5889 47.0106C10.0887 43.9041 11.7554 41.086 13.3058 39.215C16.4115 48.6643 22.2979 53.455 30.8025 53.455C36.6277 53.455 40.8562 49.8647 40.8562 44.9221C40.8501 43.4484 40.5177 41.9896 39.8772 40.6262C38.1355 37.0479 33.4906 34.6776 29.3934 32.5859C28.3932 32.0769 27.4529 31.5963 26.5527 31.1026C22.563 28.9181 11.9629 23.1028 11.4941 16.1624C11.4028 14.8124 11.7329 13.3837 12.4768 11.9167C13.7271 9.44492 16.0927 6.97418 19.4998 4.57554C19.5135 4.56571 20.8551 3.65038 23.2432 2.66842C26.4826 1.34457 29.9663 0.536008 33.5307 0.2807C34.067 0.242471 34.6309 0.22281 35.2086 0.22281L35.2023 0.224995ZM35.2086 0.113582C34.6747 0.113582 34.1058 0.129966 33.5207 0.171473C24.8023 0.792979 19.446 4.47614 19.446 4.47614C11.4578 10.1003 11.2915 14.6485 11.3928 16.1559C11.8654 23.1519 22.473 28.9683 26.5102 31.1823C31.2614 33.7863 37.6567 36.2789 39.7859 40.6557C40.4167 42.0053 40.7456 43.448 40.7549 44.9057C40.7549 50.1093 36.2151 53.3327 30.8263 53.3327C20.8963 53.3327 15.9326 46.8882 13.3795 38.9572C11.9954 40.5825 9.9412 43.583 10.4888 47.0127C10.9277 49.7631 12.9444 51.9531 15.6351 53.6101H15.6451C17.9239 54.8537 20.368 55.8496 22.9231 56.5756H22.9393C24.8167 57.0653 26.7463 57.3867 28.6982 57.5347C28.9783 57.5543 29.5922 57.5925 30.4487 57.5925C34.1058 57.5925 42.1728 56.9055 47.4528 51.2158C51.8413 46.4852 51.8288 40.9615 51.8188 40.3105C51.7988 39.2685 51.7763 37.0337 50.5323 34.6372C48.1567 30.0649 42.4853 27.0677 33.5207 23.3343C25.5775 20.1121 21.464 17.6337 21.464 12.3023C21.464 7.34556 25.2937 4.24676 30.2586 4.24676C38.9107 4.24676 42.5991 9.20461 45.1522 16.3918L49.2657 15.5245C48.9323 13.2956 48.5422 11.0018 48.0954 8.64318C47.6987 6.57077 47.2761 4.55734 46.8276 2.60289C46.5326 2.4587 46.2187 2.31562 45.8874 2.1758C42.933 1.1069 39.8163 0.419206 36.6352 0.134336C36.2063 0.11249 35.7249 0.0971985 35.2098 0.0971985L35.2086 0.113582Z" fill="black"/>
<path d="M66.3886 29C66.3886 45.0161 51.5262 58 33.193 58C29.7093 58.0034 26.2468 57.5267 22.9331 56.5877C24.8104 57.0774 26.74 57.3987 28.692 57.5467C30.1648 57.6559 40.9299 58.2523 47.4465 51.2279C51.835 46.4972 51.8225 40.9736 51.8125 40.3226C51.7925 39.2805 51.77 37.0457 50.526 34.6493C48.1504 30.077 42.479 27.0798 33.5144 23.3464C25.5712 20.1241 21.4577 17.6458 21.4577 12.3144C21.4577 7.35759 25.2874 4.2588 30.2523 4.2588C38.9044 4.2588 42.5928 9.21665 45.1459 16.4038L49.2594 15.5366C48.926 13.3076 48.5359 11.0138 48.0891 8.65522C47.6924 6.5828 47.2698 4.56937 46.8213 2.61492C46.5263 2.47074 46.2124 2.32765 45.8811 2.18784C57.919 6.54712 66.3886 16.9096 66.3886 29Z" fill="url(#paint0_linear_1_26)"/>
<path d="M40.7486 44.9079C40.7486 50.1115 36.2088 53.3349 30.82 53.3349C20.8901 53.3349 15.9264 46.8904 13.3732 38.9594C11.9892 40.5847 9.93491 43.5852 10.4825 47.0149C10.9214 49.7653 12.9381 51.9553 15.6288 53.6123C10.8446 51.0078 6.89909 47.3813 4.16457 43.075C1.43005 38.7686 -0.00322958 33.9246 5.4642e-06 29C5.4642e-06 12.9839 14.8624 0 33.1955 0C34.3426 0.000150705 35.489 0.0511904 36.6301 0.15292C35.5931 0.0971234 34.5528 0.104058 33.5169 0.173674C24.7985 0.79518 19.4422 4.47834 19.4422 4.47834C11.5253 10.0719 11.2602 14.4803 11.3865 16.1581C11.9504 23.6151 24.3321 30.0759 27.5042 31.7307C31.5176 33.8246 37.6754 36.339 39.7796 40.6579C40.4105 42.0075 40.7394 43.4502 40.7486 44.9079V44.9079Z" fill="url(#paint1_linear_1_26)"/>
<path d="M51.8125 40.3225C51.7925 39.2805 51.77 37.0457 50.5259 34.6492C48.1504 30.077 42.479 27.0798 33.5143 23.3463C25.5711 20.1241 21.4576 17.6457 21.4576 12.3143C21.4576 7.35758 25.2873 4.25879 30.2523 4.25879C38.9044 4.25879 42.5928 9.21663 45.1459 16.4038L49.2594 15.5366C48.926 13.3076 48.5359 11.0138 48.0891 8.65521C47.6923 6.58279 47.2697 4.56935 46.8213 2.6149C46.5262 2.47072 46.2124 2.32764 45.8811 2.18782C45.7002 2.11064 45.5135 2.03454 45.3209 1.95954C44.2343 1.53818 43.1038 1.20898 41.9451 0.976487C41.5187 0.867259 41.0186 0.743834 40.4535 0.630237C39.8884 0.51664 39.257 0.411779 38.5693 0.32112C38.5693 0.32112 37.7941 0.211893 36.6276 0.146357C35.5905 0.0905601 34.5503 0.0974947 33.5143 0.16711C24.796 0.788617 19.4397 4.47178 19.4397 4.47178C11.4615 10.1112 11.2752 14.6223 11.3865 16.1581C11.8866 23.2688 22.933 29.2468 26.8164 31.3484C31.3525 33.8027 37.6566 36.3019 39.7821 40.6579C40.4128 42.0075 40.7418 43.4502 40.7511 44.9079C40.7511 50.1115 36.2112 53.3348 30.8224 53.3348C20.8925 53.3348 15.9288 46.8904 13.3757 38.9594C11.9916 40.5847 9.93735 43.5852 10.485 47.0149C10.9238 49.7653 12.9406 51.9553 15.6312 53.6123H15.6412C17.7918 54.935 20.3699 55.9181 22.9192 56.5778H22.9355C24.8129 57.0675 26.7425 57.3889 28.6944 57.5368C30.1673 57.6461 40.9324 58.2425 47.4489 51.218C51.835 46.4972 51.8237 40.9735 51.8125 40.3225Z" fill="#FFD593"/>
<path d="M15.7613 32.1687C15.5112 33.0119 13.4745 40.2777 19.0258 46.4349C23.4119 51.2988 29.5909 52.2087 30.995 52.3835C28.832 51.9771 25.7375 51.088 22.8368 48.9974C14.696 43.1428 15.6363 33.2741 15.7613 32.1687Z" fill="#FFD593"/>
<path d="M18.4982 34.1632C18.2919 34.8491 16.6365 40.7649 21.1563 45.7774C24.7272 49.7369 29.7572 50.4742 30.8999 50.6205C29.1395 50.2928 26.6202 49.5654 24.2596 47.8669C17.6317 43.098 18.4019 35.0632 18.4982 34.1632Z" fill="#FFD593"/>
<path d="M20.7838 35.4783C20.61 36.0539 19.2234 41.0085 23.0093 45.2072C26.0001 48.5245 30.2136 49.1394 31.1713 49.264C29.1326 48.8946 27.2251 48.1035 25.6087 46.9571C20.0561 42.9615 20.6975 36.2331 20.7838 35.4783Z" fill="#FFD593"/>
<path d="M82.6601 39.7812C85.8901 39.7812 88.0371 38.1662 88.0371 35.4492V35.4112C88.0371 32.9222 86.1371 31.9342 83.0781 31.2692C81.2351 30.8512 80.7791 30.5852 80.7791 29.9772V29.9392C80.7791 29.4642 81.2161 29.0842 82.1091 29.0842C83.2871 29.0842 84.6171 29.5402 85.8331 30.3952L87.6761 27.7922C86.2321 26.6332 84.4651 26.0252 82.2041 26.0252C79.0121 26.0252 77.0551 27.8112 77.0551 30.2812V30.3192C77.0551 33.0552 79.2401 33.8532 82.0711 34.4992C83.8761 34.9172 84.3131 35.2212 84.3131 35.7722V35.8102C84.3131 36.3802 83.7811 36.7222 82.7931 36.7222C81.2541 36.7222 79.7911 36.1712 78.4801 35.1262L76.4281 37.5772C78.0621 39.0402 80.3041 39.7812 82.6601 39.7812ZM89.8296 39.5532H93.5156V34.4992H98.2466V39.5532H101.933V26.2532H98.2466V31.2312H93.5156V26.2532H89.8296V39.5532ZM110.972 39.8192C115.076 39.8192 118.154 36.7222 118.154 32.9032V32.8652C118.154 29.0462 115.114 25.9872 111.01 25.9872C106.906 25.9872 103.828 29.0842 103.828 32.9032V32.9412C103.828 36.7602 106.868 39.8192 110.972 39.8192ZM111.01 36.4942C108.996 36.4942 107.609 34.8222 107.609 32.9032V32.8652C107.609 30.9462 108.958 29.3122 110.972 29.3122C113.005 29.3122 114.392 30.9842 114.392 32.9032V32.9412C114.392 34.8602 113.043 36.4942 111.01 36.4942ZM120.074 39.5532H123.76V35.7532H125.584C128.89 35.7532 131.303 34.1002 131.303 30.9652V30.9272C131.303 27.9822 129.137 26.2532 125.774 26.2532H120.074V39.5532ZM123.76 32.8652V29.3502H125.489C126.819 29.3502 127.617 29.9582 127.617 31.0982V31.1362C127.617 32.1812 126.819 32.8652 125.508 32.8652H123.76ZM139.546 39.8192C143.65 39.8192 146.728 36.7222 146.728 32.9032V32.8652C146.728 29.0462 143.688 25.9872 139.584 25.9872C135.48 25.9872 132.402 29.0842 132.402 32.9032V32.9412C132.402 36.7602 135.442 39.8192 139.546 39.8192ZM139.584 36.4942C137.57 36.4942 136.183 34.8222 136.183 32.9032V32.8652C136.183 30.9462 137.532 29.3122 139.546 29.3122C141.579 29.3122 142.966 30.9842 142.966 32.9032V32.9412C142.966 34.8602 141.617 36.4942 139.584 36.4942ZM148.648 39.5532H152.334V35.5252H153.911H153.949L156.628 39.5532H160.884L157.711 34.9172C159.364 34.2142 160.447 32.8652 160.447 30.8322V30.7942C160.447 29.4832 160.048 28.4572 159.269 27.6972C158.376 26.7852 156.97 26.2532 154.937 26.2532H148.648V39.5532ZM152.334 32.6372V29.4452H154.747C155.982 29.4452 156.742 29.9772 156.742 31.0222V31.0602C156.742 32.0292 156.02 32.6372 154.766 32.6372H152.334ZM162.304 39.5532H173.096V36.4182H165.952V34.3092H172.336V31.4022H165.952V29.3882H173.001V26.2532H162.304V39.5532Z" fill="#1B1464"/>
<defs>
<linearGradient id="paint0_linear_1_26" x1="21.4577" y1="30.0966" x2="66.3886" y2="30.0966" gradientUnits="userSpaceOnUse">
<stop stop-color="#CA7BFF"/>
<stop offset="1"/>
</linearGradient>
<linearGradient id="paint1_linear_1_26" x1="-0.00249514" y1="26.8056" x2="40.7499" y2="26.8056" gradientUnits="userSpaceOnUse">
<stop/>
<stop offset="0.47" stop-color="#19236E"/>
</linearGradient>
</defs>
</svg>
