<svg xmlns="http://www.w3.org/2000/svg" xmlns:xlink="http://www.w3.org/1999/xlink" width="112.5" viewBox="0 0 112.5 45" height="45" version="1.0"><defs><g id="c"><path d="M 2.535156 0.0859375 C 3.566406 0.0859375 4.808594 -0.355469 4.808594 -1.804688 C 4.808594 -3.074219 3.871094 -3.359375 3.011719 -3.550781 C 2.335938 -3.699219 1.71875 -3.765625 1.71875 -4.332031 C 1.71875 -4.730469 2.023438 -4.929688 2.480469 -4.929688 C 2.917969 -4.929688 3.253906 -4.757812 3.351562 -4.269531 C 3.367188 -4.15625 3.429688 -4.105469 3.53125 -4.105469 L 4.46875 -4.105469 C 4.582031 -4.105469 4.644531 -4.167969 4.636719 -4.289062 C 4.539062 -5.496094 3.496094 -5.988281 2.507812 -5.988281 C 1.476562 -5.988281 0.417969 -5.433594 0.417969 -4.148438 C 0.417969 -3.074219 1.164062 -2.761719 1.867188 -2.570312 C 2.671875 -2.351562 3.507812 -2.316406 3.507812 -1.613281 C 3.507812 -1.128906 3.097656 -0.972656 2.664062 -0.972656 C 2.101562 -0.972656 1.675781 -1.242188 1.597656 -1.78125 C 1.589844 -1.882812 1.527344 -1.945312 1.421875 -1.945312 L 0.40625 -1.945312 C 0.296875 -1.945312 0.234375 -1.882812 0.234375 -1.769531 C 0.304688 -0.453125 1.398438 0.0859375 2.535156 0.0859375 Z M 2.535156 0.0859375"/></g><g id="h"><path d="M 2.464844 -3.964844 C 1.179688 -3.964844 0.234375 -3.160156 0.234375 -1.910156 C 0.234375 -0.640625 1.144531 0.140625 2.464844 0.140625 C 3.417969 0.140625 4.175781 -0.277344 4.480469 -1.144531 C 4.523438 -1.265625 4.453125 -1.34375 4.332031 -1.34375 L 3.367188 -1.34375 C 3.273438 -1.34375 3.21875 -1.292969 3.175781 -1.199219 C 3.074219 -0.964844 2.820312 -0.789062 2.4375 -0.789062 C 1.953125 -0.789062 1.648438 -1.136719 1.613281 -1.667969 L 4.410156 -1.667969 C 4.523438 -1.667969 4.582031 -1.726562 4.582031 -1.839844 L 4.582031 -1.996094 C 4.582031 -3.261719 3.628906 -3.964844 2.464844 -3.964844 Z M 1.632812 -2.371094 C 1.707031 -2.785156 1.941406 -3.082031 2.421875 -3.082031 C 2.882812 -3.082031 3.175781 -2.785156 3.203125 -2.371094 Z M 1.632812 -2.371094"/></g><g id="d"><path d="M 2.890625 -3.914062 C 2.386719 -3.914062 1.980469 -3.6875 1.71875 -3.363281 L 1.71875 -4.859375 C 1.71875 -5.753906 1.257812 -6.335938 0.417969 -6.511719 L 0.417969 -0.171875 C 0.417969 -0.0625 0.476562 0 0.589844 0 L 1.546875 0 C 1.65625 0 1.71875 -0.0625 1.71875 -0.171875 L 1.71875 -1.910156 C 1.71875 -2.429688 2.039062 -2.863281 2.449219 -2.863281 C 2.855469 -2.863281 3.027344 -2.621094 3.027344 -2.171875 L 3.027344 -0.171875 C 3.027344 -0.0625 3.089844 0 3.203125 0 L 4.15625 0 C 4.269531 0 4.332031 -0.0625 4.332031 -0.171875 L 4.332031 -2.171875 C 4.332031 -3.210938 3.914062 -3.914062 2.890625 -3.914062 Z M 2.890625 -3.914062"/></g><g id="e"><path d="M 2.429688 0.140625 C 3.792969 0.140625 4.609375 -0.703125 4.609375 -1.910156 C 4.609375 -3.105469 3.785156 -3.964844 2.429688 -3.964844 C 1.066406 -3.964844 0.242188 -3.105469 0.242188 -1.910156 C 0.242188 -0.710938 1.058594 0.140625 2.429688 0.140625 Z M 2.429688 -0.875 C 1.847656 -0.875 1.535156 -1.328125 1.535156 -1.902344 C 1.535156 -2.480469 1.859375 -2.949219 2.429688 -2.949219 C 3.003906 -2.949219 3.316406 -2.492188 3.316406 -1.902344 C 3.316406 -1.320312 3.003906 -0.875 2.429688 -0.875 Z M 2.429688 -0.875"/></g><g id="f"><path d="M 3.027344 -3.964844 C 2.371094 -3.964844 1.828125 -3.679688 1.492188 -3.199219 C 1.28125 -3.566406 0.914062 -3.808594 0.417969 -3.914062 L 0.417969 0.347656 C 0.417969 1.476562 0.875 2.082031 1.71875 2.171875 L 1.71875 -0.363281 C 2.046875 -0.0429688 2.5 0.140625 3.027344 0.140625 C 4.15625 0.140625 4.9375 -0.703125 4.9375 -1.917969 C 4.9375 -3.125 4.15625 -3.964844 3.027344 -3.964844 Z M 2.628906 -0.902344 C 2.101562 -0.902344 1.71875 -1.320312 1.71875 -1.910156 C 1.71875 -2.5 2.101562 -2.917969 2.628906 -2.917969 C 3.160156 -2.917969 3.542969 -2.5 3.542969 -1.910156 C 3.542969 -1.320312 3.160156 -0.902344 2.628906 -0.902344 Z M 2.628906 -0.902344"/></g><g id="g"><path d="M 2.96875 -3.878906 C 2.882812 -3.898438 2.777344 -3.914062 2.683594 -3.914062 C 2.222656 -3.914062 1.792969 -3.707031 1.519531 -3.152344 C 1.3125 -3.546875 0.9375 -3.804688 0.417969 -3.914062 L 0.417969 -0.171875 C 0.417969 -0.0625 0.476562 0 0.589844 0 L 1.546875 0 C 1.65625 0 1.71875 -0.0625 1.71875 -0.171875 L 1.71875 -1.925781 C 1.769531 -2.457031 2.039062 -2.734375 2.507812 -2.734375 C 2.628906 -2.734375 2.761719 -2.714844 2.90625 -2.683594 C 3.027344 -2.648438 3.105469 -2.699219 3.105469 -2.820312 L 3.105469 -3.679688 C 3.105469 -3.777344 3.0625 -3.855469 2.96875 -3.878906 Z M 2.96875 -3.878906"/></g><clipPath id="a"><path d="M 60 7.472656 L 64 7.472656 L 64 11 L 60 11 Z M 60 7.472656"/></clipPath><clipPath id="b"><path d="M 34.917969 19 L 77.667969 19 L 77.667969 37.472656 L 34.917969 37.472656 Z M 34.917969 19"/></clipPath></defs><path d="M 69.441406 12.835938 L 69.9375 9.457031 L 69.992188 9.457031 L 70.039062 9.738281 C 70.15625 10.492188 70.273438 11.246094 70.386719 11.996094 C 70.417969 12.195312 70.417969 12.398438 70.4375 12.601562 C 70.453125 12.800781 70.46875 12.839844 70.695312 12.867188 L 73.804688 13.289062 C 73.851562 13.300781 73.894531 13.316406 73.9375 13.332031 C 73.832031 13.355469 73.777344 13.371094 73.71875 13.382812 C 72.953125 13.496094 72.183594 13.613281 71.414062 13.722656 C 71.164062 13.757812 70.914062 13.78125 70.667969 13.8125 C 70.464844 13.835938 70.464844 13.839844 70.4375 14.042969 C 70.289062 15.0625 70.148438 16.078125 70.015625 17.09375 C 70.007812 17.125 69.992188 17.152344 69.96875 17.175781 C 69.84375 16.628906 69.769531 16.070312 69.683594 15.519531 C 69.601562 14.96875 69.527344 14.414062 69.449219 13.851562 L 66.078125 13.367188 C 66.429688 13.207031 66.808594 13.214844 67.167969 13.152344 C 67.527344 13.089844 67.917969 13.03125 68.292969 12.980469 C 68.664062 12.929688 69.050781 12.882812 69.441406 12.835938 Z M 69.441406 12.835938"/><path d="M 46.558594 21.554688 L 46.742188 20.304688 L 46.761719 20.304688 C 46.761719 20.339844 46.761719 20.371094 46.78125 20.410156 C 46.824219 20.6875 46.867188 20.964844 46.910156 21.246094 C 46.917969 21.320312 46.921875 21.394531 46.929688 21.460938 C 46.933594 21.523438 46.929688 21.550781 47.023438 21.5625 L 48.175781 21.714844 L 48.226562 21.734375 L 48.144531 21.75 L 47.289062 21.878906 C 47.199219 21.890625 47.105469 21.898438 47.011719 21.910156 C 46.917969 21.921875 46.9375 21.910156 46.929688 21.996094 L 46.769531 23.128906 C 46.769531 23.140625 46.761719 23.148438 46.753906 23.15625 C 46.707031 22.953125 46.679688 22.746094 46.648438 22.542969 C 46.621094 22.339844 46.589844 22.140625 46.558594 21.925781 L 45.3125 21.742188 C 45.445312 21.699219 45.578125 21.671875 45.714844 21.660156 C 45.855469 21.636719 45.996094 21.617188 46.132812 21.601562 C 46.273438 21.582031 46.414062 21.574219 46.558594 21.554688 Z M 46.558594 21.554688"/><g clip-path="url(#a)"><path d="M 62.109375 8.753906 L 62.300781 7.503906 L 62.324219 7.503906 C 62.324219 7.535156 62.339844 7.574219 62.34375 7.609375 C 62.386719 7.886719 62.429688 8.164062 62.472656 8.445312 C 62.472656 8.519531 62.484375 8.59375 62.492188 8.660156 C 62.496094 8.726562 62.503906 8.75 62.585938 8.757812 L 63.738281 8.914062 L 63.789062 8.929688 C 63.761719 8.9375 63.734375 8.945312 63.707031 8.949219 L 62.851562 9.074219 C 62.761719 9.089844 62.667969 9.097656 62.574219 9.109375 C 62.480469 9.117188 62.5 9.121094 62.492188 9.195312 L 62.324219 10.335938 C 62.324219 10.347656 62.316406 10.355469 62.308594 10.367188 C 62.261719 10.164062 62.234375 9.957031 62.203125 9.75 C 62.171875 9.546875 62.144531 9.339844 62.117188 9.132812 L 60.867188 8.953125 C 60.996094 8.90625 61.132812 8.878906 61.269531 8.871094 C 61.410156 8.84375 61.546875 8.824219 61.6875 8.808594 C 61.828125 8.789062 61.96875 8.773438 62.109375 8.753906 Z M 62.109375 8.753906"/></g><path d="M 63.386719 12.761719 C 63.386719 12.839844 63.386719 12.914062 63.386719 12.988281 C 63.367188 13.402344 63.335938 13.8125 63.324219 14.226562 C 63.304688 14.957031 63.300781 15.6875 63.285156 16.417969 C 63.277344 16.558594 63.257812 16.695312 63.214844 16.828125 C 63.160156 17.03125 63.050781 17.105469 62.894531 17.097656 C 62.707031 17.070312 62.597656 16.964844 62.574219 16.777344 C 62.566406 16.734375 62.566406 16.691406 62.574219 16.652344 C 62.570312 15.847656 62.324219 15.125 61.839844 14.480469 C 61.460938 13.917969 60.972656 13.480469 60.371094 13.164062 C 60.011719 12.976562 59.632812 12.84375 59.238281 12.761719 C 58.695312 12.648438 58.152344 12.605469 57.601562 12.636719 C 56.753906 12.664062 55.976562 12.914062 55.277344 13.386719 C 54.527344 13.902344 54.082031 14.609375 53.949219 15.503906 C 53.847656 16.125 53.90625 16.734375 54.113281 17.328125 C 54.230469 17.628906 54.386719 17.910156 54.585938 18.171875 C 55.003906 18.75 55.492188 19.269531 56.042969 19.726562 L 56.199219 19.855469 C 56.183594 19.953125 56.113281 19.960938 56.042969 19.984375 C 55.492188 20.140625 52.175781 21.226562 52.023438 21.289062 C 51.914062 21.335938 51.804688 21.367188 51.667969 21.414062 C 51.601562 21.308594 51.53125 21.214844 51.476562 21.113281 C 51.222656 20.675781 51.015625 20.21875 50.859375 19.738281 C 50.730469 19.316406 50.636719 18.886719 50.582031 18.449219 C 50.515625 17.933594 50.496094 17.414062 50.535156 16.894531 C 50.585938 16.152344 50.777344 15.449219 51.109375 14.78125 C 51.488281 14.03125 52.007812 13.390625 52.660156 12.859375 C 53.21875 12.394531 53.839844 12.03125 54.519531 11.769531 C 54.894531 11.625 55.277344 11.5 55.664062 11.386719 C 55.929688 11.3125 56.203125 11.253906 56.480469 11.214844 C 57.226562 11.09375 57.980469 11.039062 58.734375 11.054688 C 59.339844 11.082031 59.945312 11.132812 60.546875 11.191406 C 60.957031 11.230469 61.367188 11.289062 61.773438 11.359375 C 62.242188 11.429688 62.707031 11.535156 63.160156 11.679688 C 63.378906 11.753906 63.515625 11.894531 63.433594 12.246094"/><g clip-path="url(#b)"><path d="M 77.523438 22.28125 C 77.359375 21.757812 77.074219 21.316406 76.667969 20.953125 C 76.425781 20.730469 76.164062 20.539062 75.882812 20.378906 C 75.519531 20.171875 75.148438 19.992188 74.757812 19.839844 C 74.394531 19.703125 74.023438 19.589844 73.648438 19.496094 C 73.390625 19.425781 73.121094 19.382812 72.859375 19.328125 C 72.640625 19.28125 72.421875 19.226562 72.191406 19.199219 C 71.832031 19.152344 71.472656 19.125 71.105469 19.09375 C 71.070312 19.09375 71.035156 19.082031 71 19.078125 C 70.683594 19.058594 70.367188 19.039062 70.046875 19.019531 C 70.015625 19.019531 69.980469 19.039062 69.945312 19.042969 C 69.859375 19.046875 69.773438 19.046875 69.691406 19.042969 C 69.570312 19.023438 69.449219 19.015625 69.332031 19.019531 C 69.097656 19.035156 68.863281 19.035156 68.628906 19.019531 C 67.757812 18.980469 66.902344 19.074219 66.042969 19.117188 C 65.976562 19.125 65.914062 19.132812 65.851562 19.144531 L 65.492188 19.1875 C 65.164062 19.222656 64.839844 19.253906 64.515625 19.289062 C 64.296875 19.3125 64.09375 19.347656 63.882812 19.378906 C 63.609375 19.417969 63.335938 19.464844 63.058594 19.507812 C 62.84375 19.542969 62.625 19.566406 62.40625 19.605469 C 62.054688 19.671875 61.699219 19.75 61.34375 19.820312 C 60.988281 19.894531 60.691406 19.941406 60.359375 20.003906 C 60.214844 20.03125 60.070312 20.066406 59.925781 20.097656 L 59.011719 20.3125 C 58.757812 20.371094 58.503906 20.433594 58.25 20.5 C 57.996094 20.570312 57.730469 20.640625 57.46875 20.71875 C 57.210938 20.792969 56.972656 20.835938 56.730469 20.90625 C 56.410156 20.996094 56.089844 21.09375 55.773438 21.1875 L 54.792969 21.472656 L 54.476562 21.566406 C 53.492188 21.832031 52.53125 22.152344 51.585938 22.53125 C 51.433594 22.582031 51.277344 22.640625 51.125 22.699219 C 51.105469 22.703125 51.085938 22.714844 51.070312 22.726562 L 50.730469 22.863281 L 50.699219 22.863281 L 50.089844 23.109375 C 50.089844 23.105469 50.089844 23.101562 50.089844 23.09375 C 49.929688 23.152344 49.789062 23.199219 49.652344 23.261719 L 48.113281 23.929688 C 47.316406 24.265625 46.785156 24.507812 46.785156 24.507812 L 46.765625 24.527344 L 46.546875 24.621094 C 45.460938 25.117188 44.371094 25.660156 43.328125 26.242188 C 42.417969 26.738281 41.519531 27.253906 40.628906 27.78125 C 40.097656 28.089844 39.582031 28.425781 39.078125 28.773438 C 38.46875 29.183594 37.871094 29.609375 37.285156 30.046875 C 36.746094 30.457031 36.238281 30.902344 35.761719 31.378906 C 35.472656 31.667969 35.210938 31.980469 34.980469 32.316406 C 34.957031 32.359375 34.9375 32.402344 34.925781 32.445312 C 34.957031 32.445312 34.976562 32.445312 34.984375 32.445312 C 35.882812 31.875 36.804688 31.347656 37.746094 30.859375 C 38.464844 30.484375 39.183594 30.113281 39.90625 29.757812 C 40.632812 29.402344 41.328125 29.078125 42.046875 28.742188 C 42.503906 28.527344 42.96875 28.324219 43.425781 28.109375 L 46.328125 26.851562 L 46.804688 26.632812 L 47.101562 26.527344 L 47.140625 26.515625 L 51.925781 24.757812 L 51.980469 24.742188 C 52.347656 24.625 52.707031 24.511719 53.066406 24.402344 C 53.316406 24.328125 53.574219 24.269531 53.820312 24.1875 C 53.933594 24.136719 54.035156 24.152344 54.125 24.242188 C 54.613281 24.652344 55.097656 25.058594 55.601562 25.453125 C 56.1875 25.917969 56.789062 26.367188 57.378906 26.824219 C 57.96875 27.273438 58.507812 27.773438 58.992188 28.332031 C 59.421875 28.800781 59.769531 29.324219 60.035156 29.902344 C 60.148438 30.164062 60.242188 30.433594 60.316406 30.710938 C 60.375 30.953125 60.386719 31.207031 60.421875 31.457031 C 60.507812 32.09375 60.425781 32.710938 60.167969 33.300781 C 59.804688 34.15625 59.210938 34.792969 58.382812 35.222656 C 58.03125 35.410156 57.660156 35.546875 57.273438 35.640625 C 57.011719 35.703125 56.734375 35.703125 56.472656 35.757812 C 55.933594 35.871094 55.402344 35.78125 54.875 35.714844 C 54.496094 35.65625 54.128906 35.554688 53.769531 35.417969 C 52.941406 35.125 52.273438 34.621094 51.765625 33.910156 C 51.335938 33.300781 51.046875 32.628906 50.898438 31.898438 C 50.777344 31.449219 50.71875 30.992188 50.71875 30.527344 C 50.71875 30.464844 50.707031 30.402344 50.683594 30.34375 C 50.636719 30.195312 50.539062 30.125 50.382812 30.128906 C 50.222656 30.121094 50.117188 30.191406 50.0625 30.34375 C 50.011719 30.445312 49.980469 30.550781 49.960938 30.660156 C 49.921875 30.96875 49.886719 31.277344 49.875 31.582031 C 49.855469 32.066406 49.820312 32.550781 49.800781 33.035156 C 49.757812 33.996094 49.78125 34.957031 49.78125 35.921875 C 49.785156 35.984375 49.800781 36.042969 49.824219 36.101562 C 49.933594 36.359375 50.121094 36.523438 50.390625 36.597656 C 50.644531 36.707031 50.898438 36.8125 51.160156 36.898438 C 51.445312 37 51.734375 37.082031 52.027344 37.152344 C 52.375 37.226562 52.726562 37.28125 53.078125 37.324219 C 53.542969 37.382812 54.011719 37.4375 54.480469 37.457031 C 55.019531 37.480469 55.566406 37.457031 56.105469 37.457031 C 56.257812 37.460938 56.40625 37.453125 56.558594 37.441406 C 56.878906 37.402344 57.203125 37.355469 57.527344 37.304688 C 57.832031 37.265625 58.132812 37.207031 58.425781 37.132812 C 58.8125 37.023438 59.191406 36.890625 59.566406 36.746094 C 60.507812 36.382812 61.339844 35.847656 62.058594 35.140625 C 62.652344 34.566406 63.121094 33.90625 63.460938 33.15625 C 63.667969 32.710938 63.816406 32.246094 63.898438 31.761719 C 63.960938 31.488281 64.007812 31.214844 64.039062 30.933594 C 64.117188 29.992188 64.046875 29.058594 63.820312 28.136719 C 63.699219 27.628906 63.53125 27.136719 63.316406 26.660156 C 62.996094 26.03125 62.609375 25.445312 62.152344 24.90625 C 61.6875 24.355469 61.183594 23.839844 60.644531 23.359375 C 60.46875 23.199219 60.300781 23.03125 60.125 22.867188 C 60.125 22.851562 60.140625 22.835938 60.148438 22.816406 C 60.460938 22.765625 60.773438 22.703125 61.085938 22.664062 C 61.589844 22.601562 62.09375 22.550781 62.59375 22.492188 L 62.679688 22.492188 C 63.023438 22.445312 63.367188 22.394531 63.710938 22.351562 C 64.007812 22.320312 64.308594 22.292969 64.605469 22.277344 C 65.089844 22.246094 65.574219 22.214844 66.058594 22.199219 C 66.460938 22.183594 66.867188 22.199219 67.273438 22.183594 C 68.082031 22.15625 68.886719 22.234375 69.691406 22.277344 C 69.734375 22.277344 69.777344 22.28125 69.816406 22.289062 L 70.65625 22.429688 C 70.859375 22.460938 71.0625 22.476562 71.261719 22.527344 C 71.605469 22.609375 71.945312 22.714844 72.277344 22.832031 C 72.703125 22.972656 73.0625 23.203125 73.367188 23.53125 C 73.554688 23.742188 73.652344 23.988281 73.660156 24.269531 C 73.695312 24.699219 73.640625 25.117188 73.492188 25.527344 C 73.394531 25.792969 73.285156 26.058594 73.15625 26.3125 C 72.871094 26.824219 72.523438 27.289062 72.117188 27.714844 C 71.539062 28.324219 70.914062 28.878906 70.234375 29.382812 C 69.597656 29.859375 68.929688 30.296875 68.234375 30.691406 C 67.4375 31.140625 66.625 31.566406 65.816406 32.003906 L 65.625 32.109375 C 65.660156 32.136719 65.703125 32.148438 65.75 32.132812 L 66.644531 31.761719 C 67.339844 31.464844 68.039062 31.1875 68.722656 30.871094 C 69.554688 30.484375 70.375 30.074219 71.1875 29.648438 C 72.136719 29.164062 73.046875 28.617188 73.921875 28.003906 C 74.324219 27.722656 74.730469 27.433594 75.109375 27.117188 C 75.535156 26.78125 75.929688 26.410156 76.285156 25.996094 C 76.535156 25.691406 76.804688 25.402344 77.023438 25.074219 C 77.269531 24.738281 77.433594 24.363281 77.519531 23.953125 C 77.5625 23.714844 77.640625 23.476562 77.660156 23.234375 C 77.679688 22.90625 77.632812 22.589844 77.523438 22.28125 Z M 77.523438 22.28125"/></g><g><use x="78.566" y="25.203" xmlns:xlink="http://www.w3.org/1999/xlink" xlink:href="#c" xlink:type="simple" xlink:actuate="onLoad" xlink:show="embed"/></g><g><use x="83.644" y="25.203" xmlns:xlink="http://www.w3.org/1999/xlink" xlink:href="#d" xlink:type="simple" xlink:actuate="onLoad" xlink:show="embed"/></g><g><use x="88.331" y="25.203" xmlns:xlink="http://www.w3.org/1999/xlink" xlink:href="#e" xlink:type="simple" xlink:actuate="onLoad" xlink:show="embed"/></g><g><use x="93.192" y="25.203" xmlns:xlink="http://www.w3.org/1999/xlink" xlink:href="#f" xlink:type="simple" xlink:actuate="onLoad" xlink:show="embed"/></g><g><use x="98.382" y="25.203" xmlns:xlink="http://www.w3.org/1999/xlink" xlink:href="#e" xlink:type="simple" xlink:actuate="onLoad" xlink:show="embed"/></g><g><use x="103.243" y="25.203" xmlns:xlink="http://www.w3.org/1999/xlink" xlink:href="#g" xlink:type="simple" xlink:actuate="onLoad" xlink:show="embed"/></g><g><use x="106.498" y="25.203" xmlns:xlink="http://www.w3.org/1999/xlink" xlink:href="#h" xlink:type="simple" xlink:actuate="onLoad" xlink:show="embed"/></g></svg>