<svg xmlns="http://www.w3.org/2000/svg" width="375" viewBox="0 0 375 375" height="375" version="1.0"><defs><clipPath id="a"><path d="M 225 61.441406 L 250 61.441406 L 250 86 L 225 86 Z M 225 61.441406"/></clipPath><clipPath id="b"><path d="M 9.75 158 L 365.25 158 L 365.25 313.441406 L 9.75 313.441406 Z M 9.75 158"/></clipPath></defs><path fill="#FFF" d="M-37.5 -37.5H412.5V412.5H-37.5z"/><path fill="#FFF" d="M-37.5 -37.5H412.5V412.5H-37.5z"/><path fill="#0D6EFD" d="M-37.5 -37.5H412.5V412.5H-37.5z"/><path fill="#F8F9FF" d="M 296.808594 106.511719 L 300.949219 78.128906 L 301.402344 78.128906 L 301.78125 80.496094 C 302.757812 86.824219 303.753906 93.152344 304.675781 99.460938 C 304.929688 101.125 304.945312 102.824219 305.089844 104.523438 C 305.234375 106.222656 305.363281 106.53125 307.242188 106.785156 L 333.109375 110.308594 C 333.480469 110.417969 333.847656 110.542969 334.210938 110.6875 C 333.34375 110.886719 332.871094 111.015625 332.402344 111.085938 C 326.023438 112.0625 319.625 113.019531 313.210938 113.960938 C 311.148438 114.25 309.070312 114.449219 307.007812 114.703125 C 305.34375 114.902344 305.324219 114.957031 305.089844 116.65625 C 303.886719 125.210938 302.714844 133.75 301.582031 142.273438 C 301.546875 142.546875 301.417969 142.769531 301.203125 142.941406 C 300.152344 138.347656 299.554688 133.683594 298.851562 129.054688 C 298.144531 124.429688 297.53125 119.765625 296.878906 115.046875 L 268.863281 110.960938 C 271.773438 109.621094 274.921875 109.675781 277.90625 109.152344 C 280.890625 108.628906 284.144531 108.15625 287.257812 107.722656 C 290.367188 107.289062 293.570312 106.910156 296.808594 106.511719 Z M 296.808594 106.511719"/><path fill="#F8F9FF" d="M 106.53125 179.75 L 108.070312 169.226562 L 108.230469 169.226562 C 108.230469 169.515625 108.230469 169.804688 108.375 170.113281 C 108.738281 172.445312 109.101562 174.796875 109.445312 177.128906 C 109.535156 177.761719 109.550781 178.394531 109.605469 178.933594 C 109.660156 179.476562 109.605469 179.695312 110.402344 179.785156 L 119.988281 181.085938 L 120.40625 181.230469 L 119.734375 181.375 L 112.609375 182.441406 C 111.847656 182.550781 111.089844 182.625 110.3125 182.714844 C 109.535156 182.804688 109.679688 182.714844 109.605469 183.4375 L 108.304688 192.945312 C 108.277344 193.039062 108.230469 193.117188 108.160156 193.179688 C 107.761719 191.480469 107.542969 189.746094 107.292969 188.027344 C 107.039062 186.3125 106.804688 184.648438 106.550781 182.839844 L 96.167969 181.320312 C 97.261719 180.957031 98.382812 180.730469 99.53125 180.632812 C 100.691406 180.417969 101.847656 180.273438 103.003906 180.109375 C 104.164062 179.949219 105.320312 179.894531 106.53125 179.75 Z M 106.53125 179.75"/><g clip-path="url(#a)"><path fill="#F8F9FF" d="M 235.835938 72.234375 L 237.445312 61.714844 L 237.644531 61.714844 C 237.644531 62.003906 237.753906 62.308594 237.789062 62.597656 C 238.152344 64.949219 238.511719 67.28125 238.855469 69.632812 C 238.855469 70.246094 238.964844 70.878906 239.019531 71.441406 C 239.074219 72 239.128906 72.179688 239.816406 72.273438 L 249.402344 73.574219 L 249.816406 73.71875 C 249.597656 73.777344 249.375 73.824219 249.148438 73.863281 L 242.019531 74.929688 C 241.261719 75.039062 240.503906 75.109375 239.722656 75.199219 C 238.945312 75.289062 239.109375 75.308594 239.019531 75.941406 L 237.644531 85.503906 C 237.625 85.605469 237.578125 85.691406 237.5 85.757812 C 237.101562 84.058594 236.902344 82.324219 236.632812 80.605469 C 236.359375 78.886719 236.144531 77.152344 235.90625 75.417969 L 225.507812 73.898438 C 226.597656 73.519531 227.71875 73.289062 228.871094 73.210938 C 230.03125 72.976562 231.1875 72.832031 232.34375 72.667969 C 233.503906 72.507812 234.695312 72.378906 235.835938 72.234375 Z M 235.835938 72.234375"/></g><path fill="#F8F9FF" d="M 246.488281 105.878906 C 246.488281 106.53125 246.488281 107.164062 246.488281 107.777344 C 246.324219 111.25 246.035156 114.71875 245.945312 118.191406 C 245.785156 124.339844 245.765625 130.464844 245.621094 136.59375 C 245.578125 137.769531 245.390625 138.921875 245.058594 140.046875 C 244.589844 141.730469 243.683594 142.378906 242.363281 142.308594 C 242.027344 142.257812 241.707031 142.152344 241.402344 142 C 241.097656 141.84375 240.828125 141.644531 240.589844 141.402344 C 240.347656 141.160156 240.152344 140.886719 240.003906 140.578125 C 239.851562 140.273438 239.753906 139.953125 239.707031 139.613281 C 239.660156 139.257812 239.660156 138.902344 239.707031 138.546875 C 239.6875 135.261719 239.160156 132.058594 238.117188 128.941406 C 237.074219 125.820312 235.574219 122.945312 233.609375 120.304688 C 232.0625 117.988281 230.253906 115.898438 228.183594 114.03125 C 226.117188 112.164062 223.847656 110.578125 221.382812 109.277344 C 218.402344 107.703125 215.261719 106.570312 211.960938 105.878906 C 207.472656 104.921875 202.941406 104.578125 198.359375 104.847656 C 194.90625 104.953125 191.535156 105.542969 188.25 106.613281 C 184.964844 107.683594 181.894531 109.191406 179.042969 111.140625 C 177.5625 112.164062 176.199219 113.328125 174.960938 114.632812 C 173.71875 115.933594 172.621094 117.351562 171.671875 118.878906 C 170.722656 120.410156 169.9375 122.015625 169.316406 123.707031 C 168.695312 125.398438 168.253906 127.132812 167.992188 128.910156 C 167.164062 134.136719 167.621094 139.246094 169.367188 144.242188 C 170.34375 146.777344 171.648438 149.132812 173.273438 151.3125 C 176.761719 156.179688 180.808594 160.527344 185.410156 164.363281 L 186.691406 165.464844 C 186.566406 166.296875 185.988281 166.351562 185.390625 166.535156 C 180.816406 167.851562 153.230469 176.964844 151.984375 177.488281 C 151.078125 177.886719 150.175781 178.15625 149.035156 178.554688 C 148.476562 177.667969 147.898438 176.875 147.425781 176.023438 C 145.320312 172.355469 143.609375 168.511719 142.289062 164.492188 C 141.210938 160.941406 140.445312 157.324219 139.992188 153.644531 C 139.425781 149.304688 139.292969 144.953125 139.59375 140.589844 C 140.039062 134.363281 141.632812 128.449219 144.371094 122.835938 C 147.53125 116.546875 151.835938 111.171875 157.285156 106.710938 C 161.929688 102.804688 167.078125 99.75 172.730469 97.546875 C 175.859375 96.351562 179.042969 95.285156 182.242188 94.328125 C 184.472656 93.707031 186.734375 93.230469 189.027344 92.898438 C 195.242188 91.863281 201.5 91.417969 207.800781 91.5625 C 212.8125 91.777344 217.839844 92.210938 222.847656 92.683594 C 226.269531 93.027344 229.667969 93.53125 233.050781 94.09375 C 236.96875 94.6875 240.816406 95.59375 244.589844 96.804688 C 246.398438 97.417969 247.539062 98.613281 246.867188 101.539062"/><g clip-path="url(#b)"><path fill="#F8F9FF" d="M 364.019531 185.824219 C 363.363281 183.675781 362.429688 181.65625 361.222656 179.761719 C 360.015625 177.867188 358.578125 176.171875 356.910156 174.667969 C 354.910156 172.820312 352.734375 171.210938 350.378906 169.839844 C 347.378906 168.105469 344.269531 166.597656 341.046875 165.320312 C 338.019531 164.1875 334.941406 163.230469 331.804688 162.449219 C 329.652344 161.867188 327.429688 161.488281 325.238281 161.019531 C 323.429688 160.640625 321.621094 160.167969 319.703125 159.933594 C 316.703125 159.554688 313.699219 159.339844 310.660156 159.066406 C 310.371094 159.066406 310.082031 158.957031 309.773438 158.941406 C 307.152344 158.777344 304.511719 158.597656 301.871094 158.453125 C 301.601562 158.453125 301.3125 158.613281 301.003906 158.632812 C 300.296875 158.667969 299.59375 158.667969 298.886719 158.632812 C 297.898438 158.484375 296.902344 158.421875 295.902344 158.433594 C 293.957031 158.589844 292.007812 158.589844 290.058594 158.433594 C 282.824219 158.109375 275.71875 158.902344 268.554688 159.265625 C 268.019531 159.316406 267.488281 159.394531 266.964844 159.5 L 263.980469 159.863281 C 261.265625 160.152344 258.554688 160.40625 255.859375 160.710938 C 254.050781 160.910156 252.347656 161.183594 250.59375 161.453125 C 248.316406 161.796875 246.035156 162.195312 243.757812 162.554688 C 241.949219 162.84375 240.140625 163.027344 238.332031 163.371094 C 235.382812 163.929688 232.453125 164.582031 229.488281 165.175781 C 226.519531 165.773438 224.0625 166.171875 221.3125 166.695312 C 220.101562 166.929688 218.90625 167.21875 217.695312 167.492188 L 210.097656 169.300781 C 207.980469 169.804688 205.867188 170.328125 203.75 170.890625 C 201.632812 171.449219 199.445312 172.046875 197.273438 172.699219 C 195.105469 173.347656 193.148438 173.710938 191.105469 174.289062 C 188.449219 175.03125 185.808594 175.863281 183.148438 176.65625 L 175.007812 179.042969 L 172.367188 179.820312 C 164.203125 182.054688 156.199219 184.753906 148.347656 187.921875 C 147.066406 188.371094 145.78125 188.859375 144.515625 189.332031 C 144.347656 189.386719 144.199219 189.472656 144.0625 189.582031 L 141.222656 190.722656 L 140.96875 190.722656 L 135.886719 192.785156 C 135.894531 192.746094 135.894531 192.710938 135.886719 192.675781 C 134.566406 193.164062 133.390625 193.5625 132.269531 194.066406 L 119.464844 199.671875 C 112.84375 202.492188 108.414062 204.535156 108.414062 204.535156 L 108.25 204.699219 L 106.441406 205.492188 C 97.398438 209.652344 88.355469 214.226562 79.65625 219.085938 C 72.105469 223.28125 64.625 227.589844 57.207031 232.015625 C 52.8125 234.617188 48.527344 237.4375 44.3125 240.347656 C 39.273438 243.820312 34.304688 247.394531 29.410156 251.070312 C 24.929688 254.5 20.710938 258.226562 16.746094 262.242188 C 14.347656 264.675781 12.183594 267.304688 10.253906 270.125 C 10.058594 270.46875 9.902344 270.828125 9.785156 271.207031 C 10.074219 271.207031 10.21875 271.207031 10.289062 271.207031 C 17.742188 266.398438 25.429688 261.988281 33.261719 257.867188 C 39.230469 254.722656 45.199219 251.609375 51.222656 248.628906 C 57.246094 245.644531 63.050781 242.914062 69 240.09375 C 72.816406 238.289062 76.671875 236.589844 80.488281 234.796875 L 104.632812 224.203125 L 108.574219 222.394531 L 111.035156 221.511719 L 111.378906 221.382812 L 151.171875 206.632812 L 151.621094 206.488281 C 154.660156 205.511719 157.675781 204.566406 160.667969 203.648438 C 162.746094 203.015625 164.863281 202.527344 166.90625 201.839844 C 167.339844 201.644531 167.789062 201.589844 168.253906 201.675781 C 168.722656 201.761719 169.121094 201.972656 169.457031 202.3125 C 173.507812 205.746094 177.558594 209.164062 181.71875 212.472656 C 186.601562 216.375 191.59375 220.136719 196.515625 223.988281 C 201.414062 227.753906 205.886719 231.972656 209.933594 236.640625 C 213.511719 240.59375 216.40625 244.992188 218.617188 249.839844 C 219.558594 252.042969 220.332031 254.300781 220.933594 256.617188 C 221.4375 258.660156 221.511719 260.796875 221.816406 262.890625 C 222.175781 265.523438 222.175781 268.152344 221.816406 270.78125 C 221.457031 273.414062 220.753906 275.949219 219.703125 278.386719 C 218.980469 280.109375 218.117188 281.757812 217.105469 283.332031 C 216.097656 284.902344 214.960938 286.378906 213.695312 287.753906 C 212.429688 289.125 211.054688 290.382812 209.566406 291.515625 C 208.082031 292.652344 206.511719 293.652344 204.851562 294.511719 C 201.933594 296.085938 198.855469 297.253906 195.628906 298.019531 C 193.457031 298.542969 191.160156 298.5625 188.972656 299.03125 C 184.503906 299.972656 180.074219 299.210938 175.695312 298.667969 C 172.539062 298.152344 169.472656 297.3125 166.488281 296.15625 C 163.128906 294.957031 160.03125 293.277344 157.191406 291.117188 C 154.351562 288.957031 151.902344 286.417969 149.851562 283.5 C 146.265625 278.375 143.855469 272.746094 142.617188 266.617188 C 141.609375 262.835938 141.117188 258.992188 141.132812 255.082031 C 141.128906 254.550781 141.027344 254.039062 140.824219 253.546875 C 140.746094 253.277344 140.625 253.03125 140.464844 252.804688 C 140.300781 252.578125 140.109375 252.382812 139.882812 252.21875 C 139.65625 252.054688 139.410156 251.933594 139.144531 251.851562 C 138.878906 251.769531 138.605469 251.730469 138.328125 251.738281 C 138.039062 251.726562 137.757812 251.757812 137.480469 251.835938 C 137.203125 251.914062 136.945312 252.035156 136.707031 252.199219 C 136.46875 252.363281 136.261719 252.558594 136.085938 252.789062 C 135.914062 253.019531 135.78125 253.273438 135.6875 253.546875 C 135.265625 254.394531 134.980469 255.285156 134.835938 256.222656 C 134.511719 258.789062 134.222656 261.375 134.113281 263.960938 C 133.953125 268.027344 133.664062 272.09375 133.5 276.144531 C 133.136719 284.207031 133.320312 292.304688 133.320312 300.386719 C 133.367188 300.914062 133.496094 301.417969 133.699219 301.90625 C 134.121094 302.925781 134.746094 303.800781 135.570312 304.53125 C 136.398438 305.265625 137.339844 305.78125 138.402344 306.082031 C 140.5 306.984375 142.632812 307.890625 144.785156 308.59375 C 147.15625 309.441406 149.570312 310.152344 152.019531 310.726562 C 154.894531 311.359375 157.828125 311.8125 160.757812 312.175781 C 164.628906 312.664062 168.515625 313.132812 172.40625 313.296875 C 176.910156 313.496094 181.449219 313.296875 185.933594 313.296875 C 187.183594 313.320312 188.433594 313.273438 189.675781 313.152344 C 192.367188 312.824219 195.0625 312.445312 197.761719 312.011719 C 200.277344 311.667969 202.769531 311.183594 205.234375 310.566406 C 208.433594 309.660156 211.597656 308.539062 214.691406 307.328125 C 222.53125 304.257812 229.449219 299.761719 235.4375 293.84375 C 240.375 289.015625 244.265625 283.453125 247.105469 277.15625 C 248.824219 273.417969 250.03125 269.519531 250.722656 265.460938 C 251.242188 263.167969 251.636719 260.851562 251.898438 258.515625 C 252.554688 250.585938 251.953125 242.753906 250.089844 235.015625 C 249.085938 230.746094 247.683594 226.609375 245.875 222.613281 C 243.21875 217.328125 239.992188 212.417969 236.199219 207.878906 C 232.328125 203.253906 228.15625 198.921875 223.679688 194.878906 C 222.214844 193.542969 220.804688 192.132812 219.359375 190.757812 C 219.359375 190.613281 219.484375 190.488281 219.539062 190.34375 C 222.144531 189.910156 224.75 189.382812 227.351562 189.058594 C 231.53125 188.515625 235.710938 188.101562 239.867188 187.613281 L 240.59375 187.613281 C 243.449219 187.214844 246.308594 186.78125 249.183594 186.4375 C 251.644531 186.148438 254.140625 185.949219 256.617188 185.804688 C 260.632812 185.535156 264.648438 185.28125 268.683594 185.136719 C 272.046875 185.027344 275.429688 185.136719 278.792969 185.027344 C 285.519531 184.792969 292.195312 185.425781 298.886719 185.785156 C 299.246094 185.796875 299.601562 185.832031 299.953125 185.894531 L 306.917969 187.070312 C 308.601562 187.359375 310.316406 187.46875 311.964844 187.902344 C 314.824219 188.605469 317.640625 189.460938 320.410156 190.46875 C 323.933594 191.632812 326.949219 193.585938 329.453125 196.328125 C 330.214844 197.183594 330.804688 198.144531 331.230469 199.210938 C 331.652344 200.277344 331.878906 201.382812 331.914062 202.527344 C 332.207031 206.148438 331.742188 209.667969 330.519531 213.085938 C 329.710938 215.34375 328.773438 217.546875 327.71875 219.703125 C 325.335938 223.984375 322.460938 227.898438 319.089844 231.453125 C 314.277344 236.578125 309.054688 241.25 303.425781 245.464844 C 298.105469 249.476562 292.5625 253.148438 286.785156 256.472656 C 280.148438 260.253906 273.402344 263.832031 266.691406 267.503906 L 265.082031 268.371094 C 265.390625 268.621094 265.734375 268.6875 266.113281 268.570312 L 273.566406 265.441406 C 279.335938 262.964844 285.175781 260.652344 290.855469 257.992188 C 297.765625 254.738281 304.585938 251.285156 311.347656 247.722656 C 319.242188 243.652344 326.816406 239.046875 334.066406 233.914062 C 337.414062 231.527344 340.792969 229.121094 343.941406 226.464844 C 347.511719 223.636719 350.777344 220.5 353.746094 217.046875 C 355.808594 214.476562 358.066406 212.054688 359.875 209.308594 C 361.921875 206.453125 363.296875 203.308594 364 199.871094 C 364.34375 197.863281 364.996094 195.875 365.175781 193.851562 C 365.320312 191.097656 364.9375 188.421875 364.019531 185.824219 Z M 364.019531 185.824219"/></g></svg>