<svg xmlns="http://www.w3.org/2000/svg" xmlns:xlink="http://www.w3.org/1999/xlink" width="112.5" viewBox="0 0 112.5 56.25" height="56.25" version="1.0"><defs><g id="b"><path d="M 4.328125 0.148438 C 6.089844 0.148438 8.207031 -0.609375 8.207031 -3.082031 C 8.207031 -5.246094 6.609375 -5.734375 5.140625 -6.058594 C 3.984375 -6.3125 2.933594 -6.429688 2.933594 -7.394531 C 2.933594 -8.074219 3.453125 -8.414062 4.238281 -8.414062 C 4.976562 -8.414062 5.554688 -8.121094 5.71875 -7.289062 C 5.75 -7.097656 5.851562 -7.007812 6.03125 -7.007812 L 7.628906 -7.007812 C 7.824219 -7.007812 7.925781 -7.113281 7.910156 -7.320312 C 7.75 -9.378906 5.972656 -10.222656 4.28125 -10.222656 C 2.519531 -10.222656 0.710938 -9.273438 0.710938 -7.082031 C 0.710938 -5.246094 1.984375 -4.710938 3.183594 -4.386719 C 4.5625 -4.015625 5.984375 -3.957031 5.984375 -2.753906 C 5.984375 -1.925781 5.289062 -1.660156 4.546875 -1.660156 C 3.585938 -1.660156 2.859375 -2.117188 2.726562 -3.039062 C 2.710938 -3.214844 2.609375 -3.320312 2.429688 -3.320312 L 0.695312 -3.320312 C 0.503906 -3.320312 0.398438 -3.214844 0.398438 -3.023438 C 0.519531 -0.769531 2.386719 0.148438 4.328125 0.148438 Z M 4.328125 0.148438"/></g><g id="g"><path d="M 4.207031 -6.769531 C 2.015625 -6.769531 0.398438 -5.394531 0.398438 -3.257812 C 0.398438 -1.097656 1.957031 0.238281 4.207031 0.238281 C 5.835938 0.238281 7.125 -0.472656 7.644531 -1.957031 C 7.71875 -2.164062 7.601562 -2.296875 7.394531 -2.296875 L 5.75 -2.296875 C 5.585938 -2.296875 5.496094 -2.207031 5.421875 -2.042969 C 5.246094 -1.644531 4.816406 -1.347656 4.164062 -1.347656 C 3.332031 -1.347656 2.816406 -1.941406 2.753906 -2.84375 L 7.527344 -2.84375 C 7.71875 -2.84375 7.824219 -2.949219 7.824219 -3.140625 L 7.824219 -3.40625 C 7.824219 -5.570312 6.191406 -6.769531 4.207031 -6.769531 Z M 2.785156 -4.042969 C 2.910156 -4.757812 3.3125 -5.261719 4.132812 -5.261719 C 4.917969 -5.261719 5.421875 -4.757812 5.46875 -4.042969 Z M 2.785156 -4.042969"/></g><g id="c"><path d="M 4.933594 -6.683594 C 4.074219 -6.683594 3.378906 -6.296875 2.933594 -5.742188 L 2.933594 -8.296875 C 2.933594 -9.824219 2.148438 -10.816406 0.710938 -11.113281 L 0.710938 -0.296875 C 0.710938 -0.105469 0.816406 0 1.007812 0 L 2.636719 0 C 2.828125 0 2.933594 -0.105469 2.933594 -0.296875 L 2.933594 -3.257812 C 2.933594 -4.148438 3.480469 -4.890625 4.179688 -4.890625 C 4.875 -4.890625 5.171875 -4.472656 5.171875 -3.703125 L 5.171875 -0.296875 C 5.171875 -0.105469 5.273438 0 5.46875 0 L 7.097656 0 C 7.289062 0 7.394531 -0.105469 7.394531 -0.296875 L 7.394531 -3.703125 C 7.394531 -5.480469 6.683594 -6.683594 4.933594 -6.683594 Z M 4.933594 -6.683594"/></g><g id="d"><path d="M 4.148438 0.238281 C 6.476562 0.238281 7.867188 -1.199219 7.867188 -3.257812 C 7.867188 -5.304688 6.460938 -6.769531 4.148438 -6.769531 C 1.824219 -6.769531 0.414062 -5.304688 0.414062 -3.257812 C 0.414062 -1.214844 1.808594 0.238281 4.148438 0.238281 Z M 4.148438 -1.496094 C 3.15625 -1.496094 2.621094 -2.265625 2.621094 -3.246094 C 2.621094 -4.238281 3.171875 -5.039062 4.148438 -5.039062 C 5.125 -5.039062 5.660156 -4.253906 5.660156 -3.246094 C 5.660156 -2.253906 5.125 -1.496094 4.148438 -1.496094 Z M 4.148438 -1.496094"/></g><g id="e"><path d="M 5.171875 -6.769531 C 4.042969 -6.769531 3.117188 -6.28125 2.546875 -5.460938 C 2.183594 -6.089844 1.5625 -6.503906 0.710938 -6.683594 L 0.710938 0.59375 C 0.710938 2.519531 1.496094 3.554688 2.933594 3.703125 L 2.933594 -0.621094 C 3.496094 -0.0742188 4.265625 0.238281 5.171875 0.238281 C 7.097656 0.238281 8.429688 -1.199219 8.429688 -3.273438 C 8.429688 -5.332031 7.097656 -6.769531 5.171875 -6.769531 Z M 4.488281 -1.539062 C 3.585938 -1.539062 2.933594 -2.253906 2.933594 -3.257812 C 2.933594 -4.265625 3.585938 -4.976562 4.488281 -4.976562 C 5.394531 -4.976562 6.046875 -4.265625 6.046875 -3.257812 C 6.046875 -2.253906 5.394531 -1.539062 4.488281 -1.539062 Z M 4.488281 -1.539062"/></g><g id="f"><path d="M 5.066406 -6.621094 C 4.917969 -6.652344 4.742188 -6.683594 4.578125 -6.683594 C 3.792969 -6.683594 3.058594 -6.328125 2.59375 -5.378906 C 2.238281 -6.050781 1.601562 -6.496094 0.710938 -6.683594 L 0.710938 -0.296875 C 0.710938 -0.105469 0.816406 0 1.007812 0 L 2.636719 0 C 2.828125 0 2.933594 -0.105469 2.933594 -0.296875 L 2.933594 -3.289062 C 3.023438 -4.191406 3.480469 -4.667969 4.28125 -4.667969 C 4.488281 -4.667969 4.710938 -4.636719 4.964844 -4.578125 C 5.171875 -4.519531 5.304688 -4.609375 5.304688 -4.816406 L 5.304688 -6.28125 C 5.304688 -6.445312 5.230469 -6.578125 5.066406 -6.621094 Z M 5.066406 -6.621094"/></g><clipPath id="a"><path d="M 0.492188 13 L 51.046875 13 L 51.046875 35.683594 L 0.492188 35.683594 Z M 0.492188 13"/></clipPath></defs><path d="M 41.3125 6.382812 L 41.902344 2.363281 L 41.96875 2.363281 L 42.019531 2.699219 C 42.160156 3.59375 42.300781 4.492188 42.433594 5.382812 C 42.46875 5.621094 42.472656 5.859375 42.492188 6.101562 C 42.511719 6.339844 42.53125 6.382812 42.796875 6.421875 L 46.476562 6.917969 C 46.527344 6.933594 46.582031 6.953125 46.632812 6.972656 C 46.507812 7 46.441406 7.019531 46.375 7.03125 C 45.46875 7.167969 44.558594 7.304688 43.644531 7.4375 C 43.351562 7.476562 43.058594 7.507812 42.765625 7.542969 C 42.527344 7.570312 42.523438 7.578125 42.492188 7.816406 C 42.320312 9.03125 42.152344 10.238281 41.992188 11.445312 C 41.988281 11.484375 41.96875 11.515625 41.9375 11.539062 C 41.789062 10.890625 41.703125 10.230469 41.605469 9.574219 C 41.503906 8.917969 41.417969 8.257812 41.324219 7.589844 L 37.339844 7.011719 C 37.753906 6.824219 38.203125 6.832031 38.625 6.757812 C 39.050781 6.683594 39.511719 6.613281 39.957031 6.554688 C 40.398438 6.492188 40.851562 6.4375 41.3125 6.382812 Z M 41.3125 6.382812"/><path d="M 14.257812 16.753906 L 14.476562 15.261719 L 14.496094 15.261719 C 14.496094 15.304688 14.496094 15.34375 14.519531 15.386719 C 14.570312 15.71875 14.621094 16.050781 14.671875 16.382812 C 14.683594 16.472656 14.6875 16.5625 14.695312 16.636719 C 14.699219 16.714844 14.695312 16.746094 14.804688 16.757812 L 16.167969 16.941406 L 16.230469 16.960938 L 16.132812 16.984375 L 15.121094 17.132812 C 15.011719 17.148438 14.90625 17.160156 14.792969 17.171875 C 14.683594 17.183594 14.703125 17.171875 14.695312 17.273438 L 14.507812 18.621094 C 14.503906 18.632812 14.496094 18.644531 14.488281 18.65625 C 14.429688 18.414062 14.398438 18.167969 14.363281 17.925781 C 14.328125 17.683594 14.292969 17.445312 14.257812 17.191406 L 12.78125 16.976562 C 12.9375 16.925781 13.097656 16.890625 13.261719 16.878906 C 13.425781 16.847656 13.589844 16.828125 13.753906 16.804688 C 13.917969 16.78125 14.082031 16.773438 14.257812 16.753906 Z M 14.257812 16.753906"/><path d="M 32.644531 1.527344 L 32.871094 0.0390625 L 32.902344 0.0390625 C 32.902344 0.078125 32.917969 0.121094 32.921875 0.164062 C 32.972656 0.496094 33.023438 0.828125 33.074219 1.160156 C 33.074219 1.246094 33.089844 1.335938 33.097656 1.414062 C 33.105469 1.496094 33.113281 1.519531 33.210938 1.535156 L 34.574219 1.71875 L 34.632812 1.738281 C 34.601562 1.746094 34.570312 1.753906 34.535156 1.757812 L 33.523438 1.910156 C 33.414062 1.925781 33.308594 1.933594 33.195312 1.949219 C 33.085938 1.960938 33.109375 1.964844 33.097656 2.054688 L 32.902344 3.40625 C 32.898438 3.421875 32.890625 3.433594 32.878906 3.441406 C 32.824219 3.203125 32.796875 2.957031 32.757812 2.714844 C 32.71875 2.46875 32.6875 2.226562 32.652344 1.980469 L 31.175781 1.765625 C 31.328125 1.710938 31.488281 1.675781 31.652344 1.667969 C 31.816406 1.632812 31.980469 1.613281 32.148438 1.589844 C 32.3125 1.566406 32.480469 1.546875 32.644531 1.527344 Z M 32.644531 1.527344"/><path d="M 34.160156 6.292969 C 34.160156 6.382812 34.160156 6.472656 34.160156 6.5625 C 34.136719 7.054688 34.09375 7.542969 34.082031 8.035156 C 34.058594 8.90625 34.054688 9.773438 34.035156 10.640625 C 34.027344 10.808594 34.003906 10.972656 33.957031 11.132812 C 33.886719 11.367188 33.757812 11.460938 33.570312 11.449219 C 33.351562 11.417969 33.222656 11.289062 33.195312 11.070312 C 33.1875 11.019531 33.1875 10.96875 33.195312 10.917969 C 33.1875 9.964844 32.898438 9.101562 32.328125 8.335938 C 31.878906 7.667969 31.300781 7.148438 30.589844 6.773438 C 30.164062 6.550781 29.71875 6.390625 29.25 6.292969 C 28.609375 6.15625 27.964844 6.109375 27.3125 6.148438 C 26.3125 6.175781 25.394531 6.472656 24.566406 7.039062 C 23.679688 7.648438 23.152344 8.488281 22.996094 9.554688 C 22.878906 10.292969 22.941406 11.019531 23.191406 11.726562 C 23.332031 12.082031 23.515625 12.417969 23.746094 12.726562 C 24.242188 13.414062 24.820312 14.03125 25.472656 14.574219 L 25.65625 14.730469 C 25.636719 14.847656 25.554688 14.855469 25.46875 14.882812 C 24.820312 15.066406 20.898438 16.359375 20.71875 16.433594 C 20.589844 16.488281 20.460938 16.527344 20.300781 16.582031 C 20.21875 16.457031 20.136719 16.347656 20.070312 16.226562 C 19.773438 15.707031 19.527344 15.160156 19.339844 14.59375 C 19.1875 14.089844 19.078125 13.578125 19.015625 13.054688 C 18.933594 12.441406 18.914062 11.824219 18.957031 11.207031 C 19.019531 10.328125 19.246094 9.488281 19.636719 8.695312 C 20.085938 7.804688 20.699219 7.042969 21.472656 6.410156 C 22.132812 5.855469 22.867188 5.425781 23.667969 5.113281 C 24.113281 4.945312 24.566406 4.792969 25.023438 4.65625 C 25.339844 4.570312 25.660156 4.5 25.988281 4.453125 C 26.871094 4.308594 27.761719 4.246094 28.65625 4.265625 C 29.371094 4.296875 30.085938 4.355469 30.796875 4.421875 C 31.28125 4.472656 31.765625 4.542969 32.246094 4.625 C 32.804688 4.707031 33.351562 4.835938 33.886719 5.007812 C 34.144531 5.09375 34.308594 5.261719 34.210938 5.679688"/><g clip-path="url(#a)"><path d="M 50.871094 17.613281 C 50.679688 16.992188 50.34375 16.46875 49.859375 16.035156 C 49.574219 15.773438 49.265625 15.542969 48.933594 15.351562 C 48.503906 15.105469 48.0625 14.890625 47.605469 14.710938 C 47.175781 14.550781 46.734375 14.414062 46.289062 14.304688 C 45.984375 14.222656 45.667969 14.167969 45.355469 14.101562 C 45.097656 14.046875 44.84375 13.980469 44.570312 13.945312 C 44.144531 13.894531 43.714844 13.863281 43.285156 13.824219 C 43.242188 13.824219 43.203125 13.808594 43.15625 13.804688 C 42.785156 13.78125 42.410156 13.757812 42.035156 13.738281 C 41.996094 13.738281 41.953125 13.761719 41.910156 13.761719 C 41.808594 13.769531 41.710938 13.769531 41.609375 13.761719 C 41.46875 13.742188 41.328125 13.734375 41.183594 13.734375 C 40.90625 13.757812 40.632812 13.757812 40.355469 13.734375 C 39.324219 13.6875 38.316406 13.800781 37.296875 13.851562 C 37.21875 13.859375 37.144531 13.871094 37.070312 13.886719 L 36.644531 13.9375 C 36.257812 13.976562 35.875 14.011719 35.492188 14.058594 C 35.234375 14.085938 34.992188 14.125 34.742188 14.160156 C 34.417969 14.210938 34.09375 14.265625 33.769531 14.316406 C 33.511719 14.359375 33.253906 14.386719 33 14.433594 C 32.578125 14.511719 32.164062 14.605469 31.742188 14.6875 C 31.320312 14.773438 30.96875 14.832031 30.578125 14.90625 C 30.40625 14.9375 30.234375 14.980469 30.0625 15.015625 L 28.984375 15.273438 C 28.683594 15.34375 28.382812 15.417969 28.082031 15.5 C 27.78125 15.578125 27.46875 15.664062 27.160156 15.753906 C 26.851562 15.847656 26.574219 15.898438 26.28125 15.980469 C 25.90625 16.085938 25.527344 16.203125 25.152344 16.316406 L 23.992188 16.652344 L 23.617188 16.761719 C 22.457031 17.078125 21.320312 17.460938 20.203125 17.910156 C 20.019531 17.972656 19.835938 18.042969 19.65625 18.109375 C 19.632812 18.117188 19.613281 18.128906 19.59375 18.144531 L 19.1875 18.308594 L 19.152344 18.308594 L 18.429688 18.597656 C 18.433594 18.59375 18.433594 18.589844 18.429688 18.582031 C 18.242188 18.652344 18.074219 18.707031 17.917969 18.78125 L 16.09375 19.574219 C 15.152344 19.972656 14.523438 20.261719 14.523438 20.261719 L 14.5 20.285156 L 14.242188 20.398438 C 12.957031 20.988281 11.671875 21.636719 10.433594 22.324219 C 9.359375 22.917969 8.296875 23.527344 7.242188 24.152344 C 6.617188 24.523438 6.007812 24.921875 5.410156 25.335938 C 4.691406 25.824219 3.984375 26.332031 3.289062 26.851562 C 2.652344 27.339844 2.050781 27.867188 1.488281 28.433594 C 1.148438 28.777344 0.839844 29.152344 0.566406 29.550781 C 0.539062 29.597656 0.515625 29.648438 0.5 29.703125 C 0.539062 29.703125 0.558594 29.703125 0.570312 29.703125 C 1.628906 29.023438 2.722656 28.398438 3.835938 27.816406 C 4.6875 27.371094 5.535156 26.929688 6.390625 26.507812 C 7.246094 26.085938 8.074219 25.699219 8.917969 25.296875 C 9.460938 25.042969 10.011719 24.800781 10.550781 24.546875 L 13.984375 23.046875 L 14.546875 22.792969 L 14.898438 22.667969 L 14.945312 22.648438 L 20.605469 20.558594 L 20.667969 20.539062 C 21.101562 20.402344 21.527344 20.265625 21.953125 20.136719 C 22.25 20.046875 22.550781 19.976562 22.839844 19.882812 C 22.976562 19.820312 23.097656 19.839844 23.203125 19.949219 C 23.78125 20.433594 24.355469 20.917969 24.949219 21.386719 C 25.640625 21.9375 26.351562 22.472656 27.050781 23.015625 C 27.75 23.550781 28.382812 24.148438 28.960938 24.808594 C 29.46875 25.367188 29.878906 25.992188 30.195312 26.679688 C 30.328125 26.988281 30.4375 27.308594 30.523438 27.636719 C 30.597656 27.925781 30.605469 28.230469 30.648438 28.527344 C 30.753906 29.285156 30.652344 30.015625 30.347656 30.71875 C 29.921875 31.734375 29.21875 32.496094 28.238281 33.003906 C 27.820312 33.226562 27.386719 33.390625 26.925781 33.5 C 26.617188 33.574219 26.289062 33.578125 25.980469 33.644531 C 25.34375 33.777344 24.714844 33.667969 24.089844 33.59375 C 23.644531 33.519531 23.207031 33.402344 22.78125 33.238281 C 21.804688 32.886719 21.015625 32.292969 20.417969 31.445312 C 19.90625 30.71875 19.5625 29.921875 19.386719 29.054688 C 19.246094 28.519531 19.175781 27.972656 19.175781 27.421875 C 19.175781 27.34375 19.160156 27.273438 19.132812 27.203125 C 19.082031 27.027344 18.960938 26.941406 18.777344 26.945312 C 18.589844 26.9375 18.460938 27.023438 18.402344 27.203125 C 18.34375 27.324219 18.300781 27.449219 18.28125 27.582031 C 18.234375 27.945312 18.195312 28.3125 18.179688 28.675781 C 18.15625 29.253906 18.113281 29.828125 18.089844 30.402344 C 18.039062 31.542969 18.066406 32.691406 18.066406 33.835938 C 18.074219 33.910156 18.089844 33.980469 18.121094 34.050781 C 18.246094 34.355469 18.46875 34.550781 18.789062 34.640625 C 19.085938 34.769531 19.390625 34.898438 19.695312 35 C 20.035156 35.117188 20.375 35.21875 20.726562 35.300781 C 21.132812 35.390625 21.550781 35.453125 21.96875 35.503906 C 22.515625 35.574219 23.070312 35.640625 23.625 35.664062 C 24.265625 35.691406 24.910156 35.664062 25.546875 35.664062 C 25.726562 35.667969 25.902344 35.660156 26.078125 35.644531 C 26.460938 35.597656 26.84375 35.542969 27.230469 35.480469 C 27.585938 35.433594 27.941406 35.363281 28.292969 35.277344 C 28.746094 35.148438 29.195312 34.992188 29.636719 34.820312 C 30.75 34.382812 31.734375 33.746094 32.585938 32.910156 C 33.289062 32.226562 33.84375 31.4375 34.246094 30.546875 C 34.492188 30.015625 34.664062 29.464844 34.761719 28.890625 C 34.835938 28.566406 34.890625 28.238281 34.925781 27.90625 C 35.019531 26.785156 34.933594 25.675781 34.671875 24.578125 C 34.527344 23.972656 34.328125 23.386719 34.070312 22.824219 C 33.691406 22.074219 33.234375 21.378906 32.695312 20.734375 C 32.144531 20.082031 31.550781 19.46875 30.914062 18.894531 C 30.707031 18.707031 30.507812 18.507812 30.300781 18.3125 C 30.300781 18.292969 30.316406 18.273438 30.324219 18.253906 C 30.695312 18.191406 31.066406 18.117188 31.4375 18.070312 C 32.03125 17.996094 32.625 17.933594 33.21875 17.867188 L 33.320312 17.867188 C 33.726562 17.808594 34.132812 17.75 34.542969 17.699219 C 34.890625 17.660156 35.246094 17.632812 35.597656 17.609375 C 36.167969 17.570312 36.742188 17.535156 37.3125 17.515625 C 37.792969 17.5 38.273438 17.515625 38.75 17.5 C 39.707031 17.46875 40.65625 17.558594 41.609375 17.609375 C 41.660156 17.609375 41.710938 17.613281 41.761719 17.625 L 42.75 17.789062 C 42.992188 17.832031 43.234375 17.847656 43.46875 17.90625 C 43.875 18.007812 44.277344 18.128906 44.671875 18.269531 C 45.171875 18.4375 45.601562 18.710938 45.957031 19.101562 C 46.179688 19.351562 46.296875 19.644531 46.304688 19.976562 C 46.347656 20.492188 46.28125 20.988281 46.109375 21.472656 C 45.992188 21.792969 45.859375 22.105469 45.710938 22.410156 C 45.371094 23.015625 44.960938 23.570312 44.480469 24.074219 C 43.796875 24.800781 43.054688 25.460938 42.253906 26.058594 C 41.5 26.625 40.710938 27.144531 39.890625 27.617188 C 38.945312 28.152344 37.984375 28.660156 37.03125 29.179688 L 36.800781 29.300781 C 36.847656 29.335938 36.894531 29.347656 36.949219 29.332031 L 38.007812 28.886719 C 38.828125 28.535156 39.660156 28.207031 40.46875 27.832031 C 41.449219 27.371094 42.417969 26.882812 43.382812 26.378906 C 44.503906 25.800781 45.582031 25.148438 46.613281 24.421875 C 47.085938 24.085938 47.570312 23.746094 48.015625 23.367188 C 48.523438 22.96875 48.988281 22.523438 49.410156 22.035156 C 49.703125 21.671875 50.023438 21.328125 50.28125 20.9375 C 50.574219 20.535156 50.769531 20.089844 50.867188 19.601562 C 50.917969 19.316406 51.011719 19.035156 51.035156 18.75 C 51.054688 18.359375 51 17.980469 50.871094 17.613281 Z M 50.871094 17.613281"/></g><g><use x="52.302" y="22.481" xmlns:xlink="http://www.w3.org/1999/xlink" xlink:href="#b" xlink:type="simple" xlink:actuate="onLoad" xlink:show="embed"/></g><g><use x="60.966" y="22.481" xmlns:xlink="http://www.w3.org/1999/xlink" xlink:href="#c" xlink:type="simple" xlink:actuate="onLoad" xlink:show="embed"/></g><g><use x="68.964" y="22.481" xmlns:xlink="http://www.w3.org/1999/xlink" xlink:href="#d" xlink:type="simple" xlink:actuate="onLoad" xlink:show="embed"/></g><g><use x="77.257" y="22.481" xmlns:xlink="http://www.w3.org/1999/xlink" xlink:href="#e" xlink:type="simple" xlink:actuate="onLoad" xlink:show="embed"/></g><g><use x="86.114" y="22.481" xmlns:xlink="http://www.w3.org/1999/xlink" xlink:href="#d" xlink:type="simple" xlink:actuate="onLoad" xlink:show="embed"/></g><g><use x="94.408" y="22.481" xmlns:xlink="http://www.w3.org/1999/xlink" xlink:href="#f" xlink:type="simple" xlink:actuate="onLoad" xlink:show="embed"/></g><g><use x="99.961" y="22.481" xmlns:xlink="http://www.w3.org/1999/xlink" xlink:href="#g" xlink:type="simple" xlink:actuate="onLoad" xlink:show="embed"/></g></svg>