<svg xmlns="http://www.w3.org/2000/svg" xmlns:xlink="http://www.w3.org/1999/xlink" width="375" viewBox="0 0 375 375" height="375" version="1.0"><defs><g id="h"><path d="M 6.59375 -10.234375 L 6.59375 -8.1875 L 3.078125 -8.1875 L 3.078125 -6.15625 L 6.453125 -6.15625 L 6.453125 -4.109375 L 3.078125 -4.109375 L 3.078125 -2.046875 L 6.59375 -2.046875 L 6.59375 0 L 0.75 0 L 0.75 -10.234375 Z M 6.59375 -10.234375"/></g><g id="i"><path d="M 2.359375 -6.359375 L 3.90625 -2.90625 L 5.453125 -6.359375 L 8.0625 -6.359375 L 4.65625 0 L 3.15625 0 L -0.25 -6.359375 Z M 2.359375 -6.359375"/></g><g id="j"><path d="M 7.1875 -2.875 L 2.5625 -2.875 C 2.5625 -2.425781 2.707031 -2.09375 3 -1.875 C 3.289062 -1.664062 3.601562 -1.5625 3.9375 -1.5625 C 4.300781 -1.5625 4.582031 -1.609375 4.78125 -1.703125 C 4.988281 -1.796875 5.226562 -1.984375 5.5 -2.265625 L 7.078125 -1.46875 C 6.421875 -0.363281 5.320312 0.1875 3.78125 0.1875 C 2.820312 0.1875 2 -0.140625 1.3125 -0.796875 C 0.625 -1.453125 0.28125 -2.242188 0.28125 -3.171875 C 0.28125 -4.097656 0.625 -4.890625 1.3125 -5.546875 C 2 -6.210938 2.820312 -6.546875 3.78125 -6.546875 C 4.789062 -6.546875 5.613281 -6.253906 6.25 -5.671875 C 6.882812 -5.085938 7.203125 -4.253906 7.203125 -3.171875 C 7.203125 -3.023438 7.195312 -2.925781 7.1875 -2.875 Z M 2.625 -4.09375 L 5.046875 -4.09375 C 4.992188 -4.425781 4.863281 -4.679688 4.65625 -4.859375 C 4.445312 -5.035156 4.175781 -5.125 3.84375 -5.125 C 3.476562 -5.125 3.1875 -5.023438 2.96875 -4.828125 C 2.757812 -4.640625 2.644531 -4.394531 2.625 -4.09375 Z M 2.625 -4.09375"/></g><g id="k"><path d="M 0.75 0 L 0.75 -6.359375 L 2.9375 -6.359375 L 2.9375 -5.453125 L 2.96875 -5.453125 C 2.976562 -5.484375 3.003906 -5.519531 3.046875 -5.5625 C 3.085938 -5.613281 3.164062 -5.703125 3.28125 -5.828125 C 3.40625 -5.953125 3.535156 -6.0625 3.671875 -6.15625 C 3.816406 -6.257812 4 -6.347656 4.21875 -6.421875 C 4.445312 -6.503906 4.675781 -6.546875 4.90625 -6.546875 C 5.144531 -6.546875 5.378906 -6.515625 5.609375 -6.453125 C 5.847656 -6.390625 6.019531 -6.320312 6.125 -6.25 L 6.296875 -6.15625 L 5.390625 -4.296875 C 5.109375 -4.523438 4.726562 -4.640625 4.25 -4.640625 C 3.976562 -4.640625 3.75 -4.582031 3.5625 -4.46875 C 3.375 -4.351562 3.238281 -4.210938 3.15625 -4.046875 C 3.082031 -3.878906 3.023438 -3.738281 2.984375 -3.625 C 2.953125 -3.507812 2.9375 -3.414062 2.9375 -3.34375 L 2.9375 0 Z M 0.75 0"/></g><g id="l"><path d="M 5.578125 -6.359375 L 8.09375 -6.359375 L 3.109375 3.21875 L 0.578125 3.21875 L 2.765625 -1 L -0.25 -6.359375 L 2.28125 -6.359375 L 4.0625 -3.109375 Z M 5.578125 -6.359375"/></g><g id="m"><path d="M 1.109375 -6.359375 L 1.109375 -8.734375 L 3.3125 -8.734375 L 3.3125 -6.359375 L 4.65625 -6.359375 L 4.65625 -4.6875 L 3.3125 -4.6875 L 3.3125 -2.671875 C 3.3125 -2.078125 3.476562 -1.78125 3.8125 -1.78125 C 3.894531 -1.78125 3.976562 -1.796875 4.0625 -1.828125 C 4.15625 -1.867188 4.226562 -1.90625 4.28125 -1.9375 L 4.359375 -1.984375 L 4.90625 -0.203125 C 4.425781 0.0546875 3.882812 0.1875 3.28125 0.1875 C 2.875 0.1875 2.519531 0.113281 2.21875 -0.03125 C 1.925781 -0.175781 1.703125 -0.367188 1.546875 -0.609375 C 1.390625 -0.859375 1.273438 -1.113281 1.203125 -1.375 C 1.140625 -1.644531 1.109375 -1.9375 1.109375 -2.25 L 1.109375 -4.6875 L 0.203125 -4.6875 L 0.203125 -6.359375 Z M 1.109375 -6.359375"/></g><g id="n"><path d="M 0.75 0 L 0.75 -10.671875 L 2.9375 -10.671875 L 2.9375 -5.6875 L 2.96875 -5.6875 C 3.539062 -6.257812 4.144531 -6.546875 4.78125 -6.546875 C 5.101562 -6.546875 5.414062 -6.503906 5.71875 -6.421875 C 6.03125 -6.335938 6.328125 -6.207031 6.609375 -6.03125 C 6.898438 -5.863281 7.132812 -5.617188 7.3125 -5.296875 C 7.488281 -4.984375 7.578125 -4.613281 7.578125 -4.1875 L 7.578125 0 L 5.390625 0 L 5.390625 -3.59375 C 5.390625 -3.925781 5.28125 -4.21875 5.0625 -4.46875 C 4.851562 -4.71875 4.582031 -4.84375 4.25 -4.84375 C 3.914062 -4.84375 3.613281 -4.710938 3.34375 -4.453125 C 3.070312 -4.191406 2.9375 -3.90625 2.9375 -3.59375 L 2.9375 0 Z M 0.75 0"/></g><g id="o"><path d="M 0.953125 -9.90625 C 1.210938 -10.164062 1.519531 -10.296875 1.875 -10.296875 C 2.226562 -10.296875 2.53125 -10.164062 2.78125 -9.90625 C 3.039062 -9.65625 3.171875 -9.351562 3.171875 -9 C 3.171875 -8.644531 3.039062 -8.335938 2.78125 -8.078125 C 2.53125 -7.816406 2.226562 -7.6875 1.875 -7.6875 C 1.519531 -7.6875 1.210938 -7.816406 0.953125 -8.078125 C 0.703125 -8.335938 0.578125 -8.644531 0.578125 -9 C 0.578125 -9.351562 0.703125 -9.65625 0.953125 -9.90625 Z M 0.75 -6.359375 L 0.75 0 L 2.9375 0 L 2.9375 -6.359375 Z M 0.75 -6.359375"/></g><g id="p"><path d="M 0.75 0 L 0.75 -6.359375 L 2.9375 -6.359375 L 2.9375 -5.6875 L 2.96875 -5.6875 C 3.539062 -6.257812 4.144531 -6.546875 4.78125 -6.546875 C 5.101562 -6.546875 5.414062 -6.503906 5.71875 -6.421875 C 6.03125 -6.335938 6.328125 -6.207031 6.609375 -6.03125 C 6.898438 -5.863281 7.132812 -5.617188 7.3125 -5.296875 C 7.488281 -4.984375 7.578125 -4.613281 7.578125 -4.1875 L 7.578125 0 L 5.390625 0 L 5.390625 -3.59375 C 5.390625 -3.925781 5.28125 -4.21875 5.0625 -4.46875 C 4.851562 -4.71875 4.582031 -4.84375 4.25 -4.84375 C 3.914062 -4.84375 3.613281 -4.710938 3.34375 -4.453125 C 3.070312 -4.191406 2.9375 -3.90625 2.9375 -3.59375 L 2.9375 0 Z M 0.75 0"/></g><g id="q"><path d="M 0.453125 1.5625 L 2.265625 0.6875 C 2.585938 1.226562 3.160156 1.5 3.984375 1.5 C 4.359375 1.5 4.707031 1.375 5.03125 1.125 C 5.363281 0.882812 5.53125 0.515625 5.53125 0.015625 L 5.53125 -0.453125 C 5.144531 -0.0234375 4.453125 0.1875 3.453125 0.1875 C 2.535156 0.1875 1.773438 -0.132812 1.171875 -0.78125 C 0.578125 -1.4375 0.28125 -2.234375 0.28125 -3.171875 C 0.28125 -4.117188 0.578125 -4.914062 1.171875 -5.5625 C 1.773438 -6.21875 2.535156 -6.546875 3.453125 -6.546875 C 4.265625 -6.546875 4.945312 -6.296875 5.5 -5.796875 L 5.53125 -5.796875 L 5.53125 -6.359375 L 7.734375 -6.359375 L 7.734375 0.171875 C 7.734375 1.203125 7.390625 2 6.703125 2.5625 C 6.015625 3.125 5.109375 3.40625 3.984375 3.40625 C 2.160156 3.40625 0.984375 2.789062 0.453125 1.5625 Z M 3.046875 -4.25 C 2.765625 -3.96875 2.625 -3.609375 2.625 -3.171875 C 2.625 -2.734375 2.757812 -2.375 3.03125 -2.09375 C 3.300781 -1.820312 3.660156 -1.6875 4.109375 -1.6875 C 4.535156 -1.6875 4.882812 -1.828125 5.15625 -2.109375 C 5.4375 -2.390625 5.578125 -2.742188 5.578125 -3.171875 C 5.578125 -3.609375 5.4375 -3.96875 5.15625 -4.25 C 4.875 -4.53125 4.523438 -4.671875 4.109375 -4.671875 C 3.679688 -4.671875 3.328125 -4.53125 3.046875 -4.25 Z M 3.046875 -4.25"/></g><g id="s"><path d="M 1.171875 -0.78125 C 0.578125 -1.4375 0.28125 -2.234375 0.28125 -3.171875 C 0.28125 -4.117188 0.578125 -4.914062 1.171875 -5.5625 C 1.773438 -6.21875 2.535156 -6.546875 3.453125 -6.546875 C 4.296875 -6.546875 4.988281 -6.28125 5.53125 -5.75 L 5.53125 -6.359375 L 7.734375 -6.359375 L 7.734375 0 L 5.5625 0 L 5.5625 -0.71875 L 5.53125 -0.71875 C 4.988281 -0.113281 4.296875 0.1875 3.453125 0.1875 C 2.535156 0.1875 1.773438 -0.132812 1.171875 -0.78125 Z M 3.046875 -4.25 C 2.765625 -3.96875 2.625 -3.609375 2.625 -3.171875 C 2.625 -2.734375 2.757812 -2.375 3.03125 -2.09375 C 3.300781 -1.820312 3.660156 -1.6875 4.109375 -1.6875 C 4.535156 -1.6875 4.882812 -1.828125 5.15625 -2.109375 C 5.4375 -2.390625 5.578125 -2.742188 5.578125 -3.171875 C 5.578125 -3.609375 5.4375 -3.96875 5.15625 -4.25 C 4.875 -4.53125 4.523438 -4.671875 4.109375 -4.671875 C 3.679688 -4.671875 3.328125 -4.53125 3.046875 -4.25 Z M 3.046875 -4.25"/></g><g id="t"><path d="M 1.34375 -0.75 C 0.632812 -1.382812 0.28125 -2.191406 0.28125 -3.171875 C 0.28125 -4.160156 0.648438 -4.96875 1.390625 -5.59375 C 2.128906 -6.226562 3.039062 -6.546875 4.125 -6.546875 C 5.1875 -6.546875 6.082031 -6.226562 6.8125 -5.59375 C 7.550781 -4.957031 7.921875 -4.148438 7.921875 -3.171875 C 7.921875 -2.203125 7.5625 -1.398438 6.84375 -0.765625 C 6.125 -0.128906 5.21875 0.1875 4.125 0.1875 C 2.976562 0.1875 2.050781 -0.125 1.34375 -0.75 Z M 3.046875 -4.25 C 2.765625 -3.96875 2.625 -3.609375 2.625 -3.171875 C 2.625 -2.734375 2.757812 -2.375 3.03125 -2.09375 C 3.300781 -1.820312 3.660156 -1.6875 4.109375 -1.6875 C 4.535156 -1.6875 4.882812 -1.828125 5.15625 -2.109375 C 5.4375 -2.390625 5.578125 -2.742188 5.578125 -3.171875 C 5.578125 -3.609375 5.4375 -3.96875 5.15625 -4.25 C 4.875 -4.53125 4.523438 -4.671875 4.109375 -4.671875 C 3.679688 -4.671875 3.328125 -4.53125 3.046875 -4.25 Z M 3.046875 -4.25"/></g><g id="u"><path d="M 2.8125 -6.359375 L 2.8125 -3.34375 C 2.8125 -2.707031 2.90625 -2.253906 3.09375 -1.984375 C 3.289062 -1.722656 3.613281 -1.59375 4.0625 -1.59375 C 4.519531 -1.59375 4.84375 -1.722656 5.03125 -1.984375 C 5.226562 -2.253906 5.328125 -2.707031 5.328125 -3.34375 L 5.328125 -6.359375 L 7.515625 -6.359375 L 7.515625 -2.796875 C 7.515625 -1.742188 7.238281 -0.984375 6.6875 -0.515625 C 6.144531 -0.046875 5.269531 0.1875 4.0625 0.1875 C 2.863281 0.1875 1.988281 -0.046875 1.4375 -0.515625 C 0.894531 -0.984375 0.625 -1.742188 0.625 -2.796875 L 0.625 -6.359375 Z M 2.8125 -6.359375"/></g><g id="v"><path d="M 1.171875 -0.78125 C 0.578125 -1.4375 0.28125 -2.234375 0.28125 -3.171875 C 0.28125 -4.117188 0.578125 -4.914062 1.171875 -5.5625 C 1.773438 -6.21875 2.535156 -6.546875 3.453125 -6.546875 C 4.296875 -6.546875 4.988281 -6.28125 5.53125 -5.75 L 5.53125 -10.671875 L 7.734375 -10.671875 L 7.734375 0 L 5.5625 0 L 5.5625 -0.71875 L 5.53125 -0.71875 C 4.988281 -0.113281 4.296875 0.1875 3.453125 0.1875 C 2.535156 0.1875 1.773438 -0.132812 1.171875 -0.78125 Z M 3.046875 -4.25 C 2.765625 -3.96875 2.625 -3.609375 2.625 -3.171875 C 2.625 -2.734375 2.757812 -2.375 3.03125 -2.09375 C 3.300781 -1.820312 3.660156 -1.6875 4.109375 -1.6875 C 4.535156 -1.6875 4.882812 -1.828125 5.15625 -2.109375 C 5.4375 -2.390625 5.578125 -2.742188 5.578125 -3.171875 C 5.578125 -3.609375 5.4375 -3.96875 5.15625 -4.25 C 4.875 -4.53125 4.523438 -4.671875 4.109375 -4.671875 C 3.679688 -4.671875 3.328125 -4.53125 3.046875 -4.25 Z M 3.046875 -4.25"/></g><g id="w"><path d="M 3.515625 -6.546875 C 3.878906 -6.546875 4.238281 -6.503906 4.59375 -6.421875 C 4.945312 -6.335938 5.210938 -6.253906 5.390625 -6.171875 L 5.640625 -6.046875 L 4.921875 -4.609375 C 4.429688 -4.878906 3.960938 -5.015625 3.515625 -5.015625 C 3.265625 -5.015625 3.085938 -4.984375 2.984375 -4.921875 C 2.878906 -4.867188 2.828125 -4.769531 2.828125 -4.625 C 2.828125 -4.59375 2.832031 -4.5625 2.84375 -4.53125 C 2.851562 -4.5 2.867188 -4.46875 2.890625 -4.4375 C 2.910156 -4.40625 2.929688 -4.378906 2.953125 -4.359375 C 2.972656 -4.335938 3.007812 -4.3125 3.0625 -4.28125 C 3.113281 -4.257812 3.148438 -4.242188 3.171875 -4.234375 C 3.203125 -4.222656 3.25 -4.203125 3.3125 -4.171875 C 3.382812 -4.148438 3.4375 -4.132812 3.46875 -4.125 C 3.5 -4.113281 3.554688 -4.09375 3.640625 -4.0625 C 3.722656 -4.039062 3.785156 -4.023438 3.828125 -4.015625 C 4.078125 -3.941406 4.296875 -3.859375 4.484375 -3.765625 C 4.679688 -3.679688 4.882812 -3.554688 5.09375 -3.390625 C 5.300781 -3.234375 5.460938 -3.035156 5.578125 -2.796875 C 5.691406 -2.554688 5.75 -2.285156 5.75 -1.984375 C 5.75 -0.535156 4.742188 0.1875 2.734375 0.1875 C 2.285156 0.1875 1.851562 0.117188 1.4375 -0.015625 C 1.03125 -0.160156 0.738281 -0.304688 0.5625 -0.453125 L 0.28125 -0.671875 L 1.171875 -2.171875 C 1.242188 -2.109375 1.332031 -2.035156 1.4375 -1.953125 C 1.539062 -1.878906 1.734375 -1.773438 2.015625 -1.640625 C 2.296875 -1.503906 2.539062 -1.4375 2.75 -1.4375 C 3.207031 -1.4375 3.4375 -1.585938 3.4375 -1.890625 C 3.4375 -2.035156 3.378906 -2.144531 3.265625 -2.21875 C 3.148438 -2.300781 2.953125 -2.390625 2.671875 -2.484375 C 2.398438 -2.585938 2.179688 -2.679688 2.015625 -2.765625 C 1.617188 -2.972656 1.304688 -3.207031 1.078125 -3.46875 C 0.847656 -3.726562 0.734375 -4.070312 0.734375 -4.5 C 0.734375 -5.144531 0.984375 -5.644531 1.484375 -6 C 1.984375 -6.363281 2.660156 -6.546875 3.515625 -6.546875 Z M 3.515625 -6.546875"/></g><g id="x"><path d="M 7.296875 -5.578125 C 7.890625 -4.929688 8.1875 -4.132812 8.1875 -3.1875 C 8.1875 -2.25 7.890625 -1.453125 7.296875 -0.796875 C 6.703125 -0.140625 5.945312 0.1875 5.03125 0.1875 C 4.1875 0.1875 3.488281 -0.078125 2.9375 -0.609375 L 2.9375 3.21875 L 0.75 3.21875 L 0.75 -6.359375 L 2.921875 -6.359375 L 2.921875 -5.640625 L 2.9375 -5.640625 C 3.488281 -6.242188 4.1875 -6.546875 5.03125 -6.546875 C 5.945312 -6.546875 6.703125 -6.222656 7.296875 -5.578125 Z M 5.421875 -2.109375 C 5.710938 -2.390625 5.859375 -2.75 5.859375 -3.1875 C 5.859375 -3.625 5.71875 -3.976562 5.4375 -4.25 C 5.164062 -4.53125 4.804688 -4.671875 4.359375 -4.671875 C 3.929688 -4.671875 3.578125 -4.53125 3.296875 -4.25 C 3.023438 -3.96875 2.890625 -3.613281 2.890625 -3.1875 C 2.890625 -2.75 3.03125 -2.390625 3.3125 -2.109375 C 3.601562 -1.828125 3.953125 -1.6875 4.359375 -1.6875 C 4.785156 -1.6875 5.140625 -1.828125 5.421875 -2.109375 Z M 5.421875 -2.109375"/></g><g id="b"><path d="M 23.164062 0.792969 C 32.605469 0.792969 43.949219 -3.253906 43.949219 -16.5 C 43.949219 -28.082031 35.378906 -30.699219 27.527344 -32.445312 C 21.339844 -33.792969 15.707031 -34.429688 15.707031 -39.585938 C 15.707031 -43.234375 18.484375 -45.058594 22.6875 -45.058594 C 26.652344 -45.058594 29.746094 -43.472656 30.621094 -39.027344 C 30.777344 -37.996094 31.335938 -37.523438 32.285156 -37.523438 L 40.855469 -37.523438 C 41.886719 -37.523438 42.441406 -38.078125 42.359375 -39.1875 C 41.488281 -50.214844 31.96875 -54.734375 22.925781 -54.734375 C 13.484375 -54.734375 3.808594 -49.660156 3.808594 -37.917969 C 3.808594 -28.082031 10.628906 -25.226562 17.054688 -23.480469 C 24.433594 -21.496094 32.046875 -21.179688 32.046875 -14.753906 C 32.046875 -10.3125 28.320312 -8.882812 24.355469 -8.882812 C 19.195312 -8.882812 15.308594 -11.34375 14.597656 -16.261719 C 14.515625 -17.214844 13.960938 -17.769531 13.007812 -17.769531 L 3.726562 -17.769531 C 2.695312 -17.769531 2.140625 -17.214844 2.140625 -16.183594 C 2.777344 -4.125 12.773438 0.792969 23.164062 0.792969 Z M 23.164062 0.792969"/></g><g id="g"><path d="M 22.527344 -36.253906 C 10.789062 -36.253906 2.140625 -28.875 2.140625 -17.453125 C 2.140625 -5.871094 10.472656 1.269531 22.527344 1.269531 C 31.253906 1.269531 38.15625 -2.539062 40.933594 -10.472656 C 41.328125 -11.582031 40.695312 -12.296875 39.585938 -12.296875 L 30.777344 -12.296875 C 29.90625 -12.296875 29.429688 -11.820312 29.035156 -10.945312 C 28.082031 -8.804688 25.78125 -7.21875 22.292969 -7.21875 C 17.847656 -7.21875 15.070312 -10.390625 14.753906 -15.230469 L 40.296875 -15.230469 C 41.328125 -15.230469 41.886719 -15.785156 41.886719 -16.816406 L 41.886719 -18.246094 C 41.886719 -29.828125 33.160156 -36.253906 22.527344 -36.253906 Z M 14.914062 -21.65625 C 15.585938 -25.464844 17.730469 -28.160156 22.132812 -28.160156 C 26.335938 -28.160156 29.035156 -25.464844 29.273438 -21.65625 Z M 14.914062 -21.65625"/></g><g id="c"><path d="M 26.417969 -35.777344 C 21.816406 -35.777344 18.085938 -33.714844 15.707031 -30.738281 L 15.707031 -44.421875 C 15.707031 -52.59375 11.503906 -57.910156 3.808594 -59.496094 L 3.808594 -1.585938 C 3.808594 -0.554688 4.363281 0 5.394531 0 L 14.121094 0 C 15.152344 0 15.707031 -0.554688 15.707031 -1.585938 L 15.707031 -17.453125 C 15.707031 -22.210938 18.640625 -26.179688 22.371094 -26.179688 C 26.097656 -26.179688 27.683594 -23.957031 27.683594 -19.832031 L 27.683594 -1.585938 C 27.683594 -0.554688 28.242188 0 29.273438 0 L 37.996094 0 C 39.027344 0 39.585938 -0.554688 39.585938 -1.585938 L 39.585938 -19.832031 C 39.585938 -29.351562 35.777344 -35.777344 26.417969 -35.777344 Z M 26.417969 -35.777344"/></g><g id="d"><path d="M 22.210938 1.269531 C 34.667969 1.269531 42.121094 -6.425781 42.121094 -17.453125 C 42.121094 -28.398438 34.585938 -36.253906 22.210938 -36.253906 C 9.757812 -36.253906 2.222656 -28.398438 2.222656 -17.453125 C 2.222656 -6.503906 9.679688 1.269531 22.210938 1.269531 Z M 22.210938 -8.011719 C 16.898438 -8.011719 14.039062 -12.136719 14.039062 -17.371094 C 14.039062 -22.6875 16.976562 -26.972656 22.210938 -26.972656 C 27.449219 -26.972656 30.304688 -22.765625 30.304688 -17.371094 C 30.304688 -12.058594 27.449219 -8.011719 22.210938 -8.011719 Z M 22.210938 -8.011719"/></g><g id="e"><path d="M 27.683594 -36.253906 C 21.65625 -36.253906 16.699219 -33.636719 13.644531 -29.230469 C 11.699219 -32.605469 8.367188 -34.824219 3.808594 -35.777344 L 3.808594 3.171875 C 3.808594 13.484375 8.011719 19.039062 15.707031 19.832031 L 15.707031 -3.332031 C 18.722656 -0.398438 22.847656 1.269531 27.683594 1.269531 C 37.996094 1.269531 45.136719 -6.425781 45.136719 -17.53125 C 45.136719 -28.558594 37.996094 -36.253906 27.683594 -36.253906 Z M 24.035156 -8.25 C 19.195312 -8.25 15.707031 -12.058594 15.707031 -17.453125 C 15.707031 -22.847656 19.195312 -26.652344 24.035156 -26.652344 C 28.875 -26.652344 32.367188 -22.847656 32.367188 -17.453125 C 32.367188 -12.058594 28.875 -8.25 24.035156 -8.25 Z M 24.035156 -8.25"/></g><g id="f"><path d="M 27.128906 -35.460938 C 26.335938 -35.617188 25.386719 -35.777344 24.511719 -35.777344 C 20.308594 -35.777344 16.382812 -33.871094 13.882812 -28.796875 C 11.976562 -32.40625 8.566406 -34.785156 3.808594 -35.777344 L 3.808594 -1.585938 C 3.808594 -0.554688 4.363281 0 5.394531 0 L 14.121094 0 C 15.152344 0 15.707031 -0.554688 15.707031 -1.585938 L 15.707031 -17.609375 C 16.183594 -22.449219 18.640625 -24.988281 22.925781 -24.988281 C 24.035156 -24.988281 25.226562 -24.828125 26.574219 -24.511719 C 27.683594 -24.195312 28.398438 -24.671875 28.398438 -25.78125 L 28.398438 -33.636719 C 28.398438 -34.507812 28.003906 -35.222656 27.128906 -35.460938 Z M 27.128906 -35.460938"/></g><clipPath id="a"><path d="M 18.785156 104 L 356.285156 104 L 356.285156 252 L 18.785156 252 Z M 18.785156 104"/></clipPath></defs><path d="M 291.308594 55.574219 L 295.242188 28.625 L 295.667969 28.625 L 296.03125 30.875 C 296.957031 36.882812 297.902344 42.890625 298.777344 48.878906 C 299.019531 50.457031 299.035156 52.070312 299.171875 53.683594 C 299.308594 55.296875 299.429688 55.589844 301.214844 55.832031 L 325.769531 59.179688 C 326.125 59.28125 326.476562 59.402344 326.816406 59.539062 C 325.992188 59.726562 325.546875 59.847656 325.101562 59.914062 C 319.046875 60.84375 312.972656 61.753906 306.882812 62.644531 C 304.925781 62.917969 302.949219 63.109375 300.992188 63.347656 C 299.414062 63.539062 299.394531 63.589844 299.171875 65.203125 C 298.027344 73.328125 296.917969 81.433594 295.839844 89.523438 C 295.804688 89.785156 295.6875 89.996094 295.480469 90.160156 C 294.484375 85.800781 293.917969 81.371094 293.25 76.976562 C 292.578125 72.582031 291.996094 68.15625 291.375 63.675781 L 264.777344 59.796875 C 267.542969 58.527344 270.53125 58.578125 273.363281 58.078125 C 276.199219 57.582031 279.289062 57.136719 282.242188 56.722656 C 285.195312 56.3125 288.234375 55.949219 291.308594 55.574219 Z M 291.308594 55.574219"/><path d="M 110.667969 125.105469 L 112.125 115.117188 L 112.28125 115.117188 C 112.28125 115.390625 112.28125 115.664062 112.417969 115.957031 C 112.761719 118.171875 113.105469 120.402344 113.433594 122.617188 C 113.515625 123.21875 113.535156 123.820312 113.585938 124.332031 C 113.636719 124.847656 113.585938 125.054688 114.339844 125.140625 L 123.441406 126.375 L 123.835938 126.511719 L 123.203125 126.652344 L 116.4375 127.664062 C 115.714844 127.765625 114.996094 127.835938 114.257812 127.921875 C 113.515625 128.007812 113.65625 127.921875 113.585938 128.605469 L 112.351562 137.636719 C 112.324219 137.722656 112.28125 137.796875 112.210938 137.859375 C 111.835938 136.246094 111.628906 134.597656 111.386719 132.96875 C 111.148438 131.335938 110.925781 129.757812 110.683594 128.039062 L 100.828125 126.597656 C 101.867188 126.253906 102.929688 126.035156 104.023438 125.945312 C 105.121094 125.742188 106.21875 125.601562 107.320312 125.449219 C 108.417969 125.292969 109.515625 125.242188 110.667969 125.105469 Z M 110.667969 125.105469"/><path d="M 233.425781 23.03125 L 234.953125 13.039062 L 235.140625 13.039062 C 235.140625 13.316406 235.246094 13.605469 235.277344 13.882812 C 235.621094 16.113281 235.964844 18.328125 236.292969 20.558594 C 236.292969 21.140625 236.394531 21.742188 236.445312 22.273438 C 236.496094 22.808594 236.550781 22.976562 237.203125 23.0625 L 246.300781 24.300781 L 246.699219 24.4375 C 246.488281 24.492188 246.277344 24.539062 246.0625 24.574219 L 239.296875 25.585938 C 238.574219 25.691406 237.855469 25.757812 237.117188 25.84375 C 236.378906 25.929688 236.53125 25.949219 236.445312 26.546875 L 235.140625 35.628906 C 235.121094 35.722656 235.078125 35.804688 235.003906 35.867188 C 234.625 34.253906 234.4375 32.609375 234.179688 30.976562 C 233.921875 29.347656 233.714844 27.699219 233.492188 26.050781 L 223.621094 24.609375 C 224.65625 24.246094 225.71875 24.03125 226.8125 23.957031 C 227.910156 23.734375 229.011719 23.597656 230.109375 23.441406 C 231.207031 23.289062 232.34375 23.167969 233.425781 23.03125 Z M 233.425781 23.03125"/><path d="M 243.539062 54.972656 C 243.539062 55.589844 243.539062 56.191406 243.539062 56.773438 C 243.382812 60.070312 243.109375 63.367188 243.023438 66.660156 C 242.867188 72.496094 242.851562 78.316406 242.714844 84.132812 C 242.671875 85.25 242.496094 86.34375 242.179688 87.414062 C 241.734375 89.007812 240.875 89.628906 239.621094 89.558594 C 239.300781 89.511719 239 89.410156 238.710938 89.265625 C 238.421875 89.117188 238.164062 88.929688 237.9375 88.699219 C 237.707031 88.46875 237.523438 88.207031 237.378906 87.917969 C 237.238281 87.628906 237.144531 87.320312 237.097656 87 C 237.054688 86.664062 237.054688 86.324219 237.097656 85.988281 C 237.082031 82.867188 236.578125 79.828125 235.589844 76.867188 C 234.601562 73.90625 233.175781 71.175781 231.3125 68.667969 C 229.84375 66.46875 228.125 64.484375 226.160156 62.710938 C 224.195312 60.9375 222.042969 59.433594 219.703125 58.199219 C 216.875 56.707031 213.890625 55.628906 210.757812 54.972656 C 206.5 54.0625 202.195312 53.734375 197.84375 53.996094 C 194.566406 54.09375 191.367188 54.652344 188.246094 55.667969 C 185.128906 56.683594 182.214844 58.117188 179.507812 59.96875 C 178.101562 60.941406 176.808594 62.042969 175.628906 63.28125 C 174.453125 64.519531 173.410156 65.863281 172.507812 67.316406 C 171.605469 68.765625 170.859375 70.292969 170.273438 71.898438 C 169.683594 73.503906 169.265625 75.148438 169.015625 76.839844 C 168.226562 81.800781 168.664062 86.652344 170.320312 91.394531 C 171.25 93.800781 172.484375 96.039062 174.027344 98.105469 C 177.34375 102.726562 181.183594 106.859375 185.550781 110.5 L 186.769531 111.546875 C 186.648438 112.335938 186.101562 112.386719 185.535156 112.558594 C 181.1875 113.8125 155.003906 122.460938 153.816406 122.960938 C 152.960938 123.335938 152.101562 123.59375 151.019531 123.972656 C 150.488281 123.132812 149.9375 122.375 149.492188 121.570312 C 147.492188 118.085938 145.867188 114.4375 144.613281 110.617188 C 143.59375 107.25 142.863281 103.816406 142.433594 100.320312 C 141.894531 96.203125 141.769531 92.070312 142.054688 87.929688 C 142.480469 82.015625 143.992188 76.398438 146.589844 71.074219 C 149.589844 65.101562 153.675781 59.996094 158.847656 55.761719 C 163.257812 52.054688 168.148438 49.152344 173.515625 47.058594 C 176.484375 45.925781 179.507812 44.914062 182.546875 44.003906 C 184.664062 43.414062 186.808594 42.960938 188.984375 42.648438 C 194.886719 41.667969 200.828125 41.242188 206.808594 41.378906 C 211.566406 41.585938 216.339844 41.996094 221.09375 42.441406 C 224.339844 42.769531 227.570312 43.25 230.78125 43.78125 C 234.5 44.347656 238.152344 45.207031 241.734375 46.355469 C 243.453125 46.941406 244.535156 48.074219 243.898438 50.851562"/><g clip-path="url(#a)"><path d="M 355.117188 130.871094 C 354.492188 128.835938 353.609375 126.917969 352.464844 125.117188 C 351.316406 123.320312 349.953125 121.707031 348.367188 120.28125 C 346.46875 118.527344 344.402344 117 342.167969 115.699219 C 339.320312 114.050781 336.367188 112.621094 333.308594 111.410156 C 330.4375 110.332031 327.511719 109.421875 324.535156 108.679688 C 322.492188 108.128906 320.378906 107.769531 318.300781 107.324219 C 316.585938 106.964844 314.867188 106.515625 313.046875 106.292969 C 310.195312 105.933594 307.347656 105.726562 304.460938 105.46875 C 304.1875 105.46875 303.910156 105.367188 303.621094 105.351562 C 301.128906 105.195312 298.625 105.023438 296.117188 104.886719 C 295.859375 104.886719 295.582031 105.039062 295.292969 105.058594 C 294.621094 105.09375 293.953125 105.09375 293.28125 105.058594 C 292.34375 104.917969 291.398438 104.855469 290.449219 104.867188 C 288.601562 105.015625 286.753906 105.015625 284.902344 104.867188 C 278.035156 104.558594 271.285156 105.316406 264.488281 105.660156 C 263.980469 105.707031 263.476562 105.78125 262.976562 105.882812 L 260.140625 106.226562 C 257.566406 106.5 254.992188 106.738281 252.433594 107.03125 C 250.714844 107.21875 249.101562 107.476562 247.4375 107.734375 C 245.273438 108.0625 243.109375 108.4375 240.945312 108.78125 C 239.226562 109.058594 237.511719 109.230469 235.792969 109.554688 C 232.996094 110.085938 230.214844 110.703125 227.398438 111.269531 C 224.582031 111.835938 222.246094 112.214844 219.636719 112.714844 C 218.484375 112.9375 217.351562 113.210938 216.203125 113.46875 L 208.988281 115.183594 C 206.980469 115.664062 204.972656 116.164062 202.960938 116.695312 C 200.953125 117.226562 198.875 117.792969 196.816406 118.410156 C 194.753906 119.03125 192.898438 119.371094 190.960938 119.921875 C 188.433594 120.625 185.929688 121.414062 183.40625 122.171875 L 175.675781 124.4375 L 173.171875 125.175781 C 165.417969 127.292969 157.816406 129.855469 150.367188 132.863281 C 149.148438 133.292969 147.929688 133.757812 146.726562 134.203125 C 146.570312 134.257812 146.425781 134.335938 146.296875 134.441406 L 143.601562 135.523438 L 143.359375 135.523438 L 138.535156 137.480469 C 138.542969 137.445312 138.542969 137.414062 138.535156 137.378906 C 137.28125 137.839844 136.167969 138.21875 135.101562 138.699219 L 122.945312 144.019531 C 116.660156 146.699219 112.453125 148.636719 112.453125 148.636719 L 112.296875 148.792969 L 110.582031 149.546875 C 101.996094 153.496094 93.410156 157.839844 85.152344 162.457031 C 77.984375 166.4375 70.882812 170.527344 63.839844 174.726562 C 59.667969 177.199219 55.597656 179.875 51.597656 182.640625 C 46.8125 185.9375 42.097656 189.328125 37.449219 192.820312 C 33.199219 196.078125 29.191406 199.613281 25.429688 203.425781 C 23.152344 205.738281 21.097656 208.230469 19.265625 210.910156 C 19.078125 211.238281 18.929688 211.582031 18.816406 211.941406 C 19.09375 211.941406 19.230469 211.941406 19.300781 211.941406 C 26.375 207.375 33.671875 203.1875 41.105469 199.273438 C 46.773438 196.285156 52.441406 193.332031 58.15625 190.5 C 63.875 187.667969 69.386719 185.078125 75.035156 182.398438 C 78.660156 180.683594 82.316406 179.070312 85.941406 177.371094 L 108.863281 167.3125 L 112.609375 165.597656 L 114.941406 164.753906 L 115.269531 164.636719 L 153.046875 150.628906 L 153.476562 150.492188 C 156.359375 149.566406 159.222656 148.667969 162.058594 147.796875 C 164.035156 147.195312 166.042969 146.734375 167.984375 146.082031 C 168.394531 145.894531 168.820312 145.839844 169.265625 145.921875 C 169.710938 146.003906 170.089844 146.207031 170.40625 146.527344 C 174.253906 149.789062 178.097656 153.03125 182.046875 156.171875 C 186.683594 159.878906 191.421875 163.449219 196.09375 167.105469 C 200.742188 170.683594 204.992188 174.6875 208.835938 179.121094 C 212.230469 182.871094 214.976562 187.046875 217.078125 191.652344 C 217.972656 193.742188 218.703125 195.886719 219.273438 198.089844 C 219.753906 200.027344 219.824219 202.054688 220.117188 204.042969 C 220.457031 206.542969 220.457031 209.039062 220.113281 211.535156 C 219.773438 214.03125 219.105469 216.4375 218.105469 218.753906 C 216.726562 222.050781 214.824219 225.015625 212.402344 227.648438 C 209.980469 230.277344 207.183594 232.417969 204.007812 234.066406 C 201.238281 235.558594 198.316406 236.667969 195.253906 237.394531 C 193.191406 237.890625 191.011719 237.910156 188.933594 238.355469 C 184.691406 239.25 180.484375 238.527344 176.328125 238.011719 C 173.332031 237.519531 170.421875 236.726562 167.589844 235.625 C 164.398438 234.488281 161.457031 232.890625 158.761719 230.839844 C 156.0625 228.792969 153.742188 226.382812 151.792969 223.613281 C 148.390625 218.746094 146.101562 213.398438 144.921875 207.578125 C 143.96875 203.992188 143.5 200.339844 143.515625 196.628906 C 143.511719 196.125 143.414062 195.636719 143.222656 195.171875 C 143.148438 194.917969 143.035156 194.683594 142.882812 194.464844 C 142.726562 194.25 142.542969 194.066406 142.332031 193.910156 C 142.117188 193.753906 141.882812 193.636719 141.628906 193.558594 C 141.378906 193.480469 141.117188 193.445312 140.855469 193.453125 C 140.582031 193.441406 140.3125 193.472656 140.046875 193.546875 C 139.785156 193.621094 139.539062 193.738281 139.3125 193.894531 C 139.085938 194.046875 138.890625 194.234375 138.726562 194.453125 C 138.5625 194.671875 138.433594 194.910156 138.347656 195.171875 C 137.945312 195.976562 137.675781 196.820312 137.539062 197.710938 C 137.230469 200.148438 136.957031 202.601562 136.851562 205.058594 C 136.699219 208.917969 136.425781 212.78125 136.269531 216.625 C 135.925781 224.28125 136.097656 231.96875 136.097656 239.644531 C 136.144531 240.140625 136.265625 240.621094 136.457031 241.085938 C 136.859375 242.050781 137.453125 242.882812 138.238281 243.578125 C 139.019531 244.273438 139.914062 244.761719 140.921875 245.050781 C 142.914062 245.90625 144.941406 246.765625 146.984375 247.433594 C 149.234375 248.238281 151.527344 248.914062 153.851562 249.460938 C 156.582031 250.0625 159.363281 250.492188 162.144531 250.832031 C 165.820312 251.296875 169.511719 251.742188 173.203125 251.898438 C 177.480469 252.085938 181.789062 251.898438 186.046875 251.898438 C 187.234375 251.921875 188.421875 251.875 189.601562 251.761719 C 192.15625 251.453125 194.714844 251.089844 197.277344 250.679688 C 199.667969 250.351562 202.03125 249.894531 204.371094 249.304688 C 207.410156 248.449219 210.414062 247.382812 213.351562 246.234375 C 220.796875 243.316406 227.359375 239.046875 233.046875 233.429688 C 237.734375 228.84375 241.425781 223.5625 244.121094 217.585938 C 245.757812 214.035156 246.902344 210.335938 247.554688 206.480469 C 248.050781 204.304688 248.425781 202.109375 248.671875 199.890625 C 249.296875 192.359375 248.726562 184.921875 246.953125 177.578125 C 246.003906 173.523438 244.671875 169.597656 242.953125 165.800781 C 240.433594 160.785156 237.371094 156.121094 233.765625 151.8125 C 230.09375 147.421875 226.136719 143.308594 221.886719 139.472656 C 220.492188 138.203125 219.15625 136.863281 217.78125 135.558594 C 217.78125 135.421875 217.902344 135.300781 217.953125 135.164062 C 220.425781 134.753906 222.898438 134.253906 225.371094 133.945312 C 229.335938 133.429688 233.304688 133.035156 237.253906 132.570312 L 237.941406 132.570312 C 240.652344 132.195312 243.367188 131.78125 246.097656 131.457031 C 248.433594 131.183594 250.800781 130.992188 253.152344 130.855469 C 256.964844 130.597656 260.777344 130.359375 264.605469 130.21875 C 267.800781 130.117188 271.011719 130.21875 274.207031 130.117188 C 280.59375 129.894531 286.929688 130.496094 293.28125 130.839844 C 293.625 130.847656 293.960938 130.882812 294.296875 130.941406 L 300.90625 132.058594 C 302.503906 132.332031 304.136719 132.433594 305.699219 132.847656 C 308.414062 133.511719 311.085938 134.324219 313.714844 135.285156 C 317.0625 136.390625 319.925781 138.242188 322.300781 140.84375 C 323.023438 141.660156 323.585938 142.570312 323.988281 143.582031 C 324.386719 144.59375 324.605469 145.644531 324.636719 146.734375 C 324.917969 150.167969 324.476562 153.511719 323.316406 156.757812 C 322.542969 158.898438 321.65625 160.992188 320.652344 163.039062 C 318.394531 167.101562 315.664062 170.820312 312.464844 174.195312 C 307.890625 179.0625 302.933594 183.496094 297.59375 187.496094 C 292.542969 191.308594 287.277344 194.792969 281.796875 197.949219 C 275.492188 201.539062 269.089844 204.9375 262.71875 208.421875 L 261.191406 209.246094 C 261.480469 209.484375 261.808594 209.546875 262.167969 209.433594 L 269.242188 206.464844 C 274.722656 204.113281 280.265625 201.914062 285.660156 199.394531 C 292.21875 196.304688 298.691406 193.023438 305.113281 189.644531 C 312.609375 185.777344 319.796875 181.40625 326.679688 176.53125 C 329.859375 174.265625 333.070312 171.980469 336.054688 169.457031 C 339.445312 166.777344 342.546875 163.792969 345.363281 160.515625 C 347.320312 158.078125 349.46875 155.777344 351.183594 153.167969 C 353.125 150.460938 354.429688 147.472656 355.097656 144.210938 C 355.425781 142.304688 356.042969 140.417969 356.214844 138.492188 C 356.355469 135.878906 355.988281 133.339844 355.117188 130.871094 Z M 355.117188 130.871094"/></g><g fill="#FFA500"><use x="37.774" y="309.631" xmlns:xlink="http://www.w3.org/1999/xlink" xlink:href="#b" xlink:type="simple" xlink:actuate="onLoad" xlink:show="embed"/></g><g fill="#FFA500"><use x="84.179" y="309.631" xmlns:xlink="http://www.w3.org/1999/xlink" xlink:href="#c" xlink:type="simple" xlink:actuate="onLoad" xlink:show="embed"/></g><g fill="#FFA500"><use x="127.014" y="309.631" xmlns:xlink="http://www.w3.org/1999/xlink" xlink:href="#d" xlink:type="simple" xlink:actuate="onLoad" xlink:show="embed"/></g><g fill="#FFA500"><use x="171.436" y="309.631" xmlns:xlink="http://www.w3.org/1999/xlink" xlink:href="#e" xlink:type="simple" xlink:actuate="onLoad" xlink:show="embed"/></g><g><use x="218.864" y="309.631" xmlns:xlink="http://www.w3.org/1999/xlink" xlink:href="#d" xlink:type="simple" xlink:actuate="onLoad" xlink:show="embed"/></g><g><use x="263.286" y="309.631" xmlns:xlink="http://www.w3.org/1999/xlink" xlink:href="#f" xlink:type="simple" xlink:actuate="onLoad" xlink:show="embed"/></g><g><use x="293.032" y="309.631" xmlns:xlink="http://www.w3.org/1999/xlink" xlink:href="#g" xlink:type="simple" xlink:actuate="onLoad" xlink:show="embed"/></g><g><use x="99.116" y="347.408" xmlns:xlink="http://www.w3.org/1999/xlink" xlink:href="#h" xlink:type="simple" xlink:actuate="onLoad" xlink:show="embed"/></g><g><use x="106.314" y="347.408" xmlns:xlink="http://www.w3.org/1999/xlink" xlink:href="#i" xlink:type="simple" xlink:actuate="onLoad" xlink:show="embed"/></g><g><use x="114.132" y="347.408" xmlns:xlink="http://www.w3.org/1999/xlink" xlink:href="#j" xlink:type="simple" xlink:actuate="onLoad" xlink:show="embed"/></g><g><use x="121.616" y="347.408" xmlns:xlink="http://www.w3.org/1999/xlink" xlink:href="#k" xlink:type="simple" xlink:actuate="onLoad" xlink:show="embed"/></g><g><use x="127.796" y="347.408" xmlns:xlink="http://www.w3.org/1999/xlink" xlink:href="#l" xlink:type="simple" xlink:actuate="onLoad" xlink:show="embed"/></g><g><use x="135.651" y="347.408" xmlns:xlink="http://www.w3.org/1999/xlink" xlink:href="#m" xlink:type="simple" xlink:actuate="onLoad" xlink:show="embed"/></g><g><use x="140.554" y="347.408" xmlns:xlink="http://www.w3.org/1999/xlink" xlink:href="#n" xlink:type="simple" xlink:actuate="onLoad" xlink:show="embed"/></g><g><use x="148.757" y="347.408" xmlns:xlink="http://www.w3.org/1999/xlink" xlink:href="#o" xlink:type="simple" xlink:actuate="onLoad" xlink:show="embed"/></g><g><use x="152.505" y="347.408" xmlns:xlink="http://www.w3.org/1999/xlink" xlink:href="#p" xlink:type="simple" xlink:actuate="onLoad" xlink:show="embed"/></g><g><use x="160.708" y="347.408" xmlns:xlink="http://www.w3.org/1999/xlink" xlink:href="#q" xlink:type="simple" xlink:actuate="onLoad" xlink:show="embed"/></g><g fill="#FF0"><use x="169.182" y="347.408" xmlns:xlink="http://www.w3.org/1999/xlink" xlink:href="#r" xlink:type="simple" xlink:actuate="onLoad" xlink:show="embed"/></g><g fill="#FFA500"><use x="172.569" y="347.408" xmlns:xlink="http://www.w3.org/1999/xlink" xlink:href="#s" xlink:type="simple" xlink:actuate="onLoad" xlink:show="embed"/></g><g fill="#FFA500"><use x="181.045" y="347.408" xmlns:xlink="http://www.w3.org/1999/xlink" xlink:href="#m" xlink:type="simple" xlink:actuate="onLoad" xlink:show="embed"/></g><g fill="#FFA500"><use x="185.947" y="347.408" xmlns:xlink="http://www.w3.org/1999/xlink" xlink:href="#r" xlink:type="simple" xlink:actuate="onLoad" xlink:show="embed"/></g><g fill="#FFA500"><use x="189.335" y="347.408" xmlns:xlink="http://www.w3.org/1999/xlink" xlink:href="#l" xlink:type="simple" xlink:actuate="onLoad" xlink:show="embed"/></g><g fill="#FFA500"><use x="197.191" y="347.408" xmlns:xlink="http://www.w3.org/1999/xlink" xlink:href="#t" xlink:type="simple" xlink:actuate="onLoad" xlink:show="embed"/></g><g fill="#FFA500"><use x="205.394" y="347.408" xmlns:xlink="http://www.w3.org/1999/xlink" xlink:href="#u" xlink:type="simple" xlink:actuate="onLoad" xlink:show="embed"/></g><g fill="#FFA500"><use x="213.535" y="347.408" xmlns:xlink="http://www.w3.org/1999/xlink" xlink:href="#k" xlink:type="simple" xlink:actuate="onLoad" xlink:show="embed"/></g><g fill="#FF0"><use x="219.713" y="347.408" xmlns:xlink="http://www.w3.org/1999/xlink" xlink:href="#r" xlink:type="simple" xlink:actuate="onLoad" xlink:show="embed"/></g><g><use x="223.1" y="347.408" xmlns:xlink="http://www.w3.org/1999/xlink" xlink:href="#v" xlink:type="simple" xlink:actuate="onLoad" xlink:show="embed"/></g><g><use x="231.576" y="347.408" xmlns:xlink="http://www.w3.org/1999/xlink" xlink:href="#t" xlink:type="simple" xlink:actuate="onLoad" xlink:show="embed"/></g><g><use x="239.779" y="347.408" xmlns:xlink="http://www.w3.org/1999/xlink" xlink:href="#t" xlink:type="simple" xlink:actuate="onLoad" xlink:show="embed"/></g><g><use x="247.983" y="347.408" xmlns:xlink="http://www.w3.org/1999/xlink" xlink:href="#k" xlink:type="simple" xlink:actuate="onLoad" xlink:show="embed"/></g><g><use x="254.163" y="347.408" xmlns:xlink="http://www.w3.org/1999/xlink" xlink:href="#w" xlink:type="simple" xlink:actuate="onLoad" xlink:show="embed"/></g><g><use x="260.269" y="347.408" xmlns:xlink="http://www.w3.org/1999/xlink" xlink:href="#m" xlink:type="simple" xlink:actuate="onLoad" xlink:show="embed"/></g><g><use x="265.171" y="347.408" xmlns:xlink="http://www.w3.org/1999/xlink" xlink:href="#j" xlink:type="simple" xlink:actuate="onLoad" xlink:show="embed"/></g><g><use x="272.654" y="347.408" xmlns:xlink="http://www.w3.org/1999/xlink" xlink:href="#x" xlink:type="simple" xlink:actuate="onLoad" xlink:show="embed"/></g><g><use x="281.13" y="347.408" xmlns:xlink="http://www.w3.org/1999/xlink" xlink:href="#w" xlink:type="simple" xlink:actuate="onLoad" xlink:show="embed"/></g></svg>