<svg id="Layer_1" data-name="Layer 1" xmlns="http://www.w3.org/2000/svg" xmlns:xlink="http://www.w3.org/1999/xlink" viewBox="0 0 1280 1024"><defs><style>.cls-1{fill:#fff;}.cls-2{fill:url(#linear-gradient);}.cls-3{fill:url(#linear-gradient-2);}.cls-4{fill:#ffd593;}</style><linearGradient id="linear-gradient" x1="547.44" y1="531.54" x2="906.8" y2="531.54" gradientUnits="userSpaceOnUse"><stop offset="0" stop-color="#ca7bff"/><stop offset="1"/></linearGradient><linearGradient id="linear-gradient-2" x1="375.8" y1="501.41" x2="701.74" y2="501.41" gradientUnits="userSpaceOnUse"><stop offset="0"/><stop offset="0.47" stop-color="#19236e"/></linearGradient></defs><path class="cls-1" d="M619.31,782.88c-4.89,0-9.72-.19-14-.53a230.05,230.05,0,0,1-46-8.76l-.17-.05a263.91,263.91,0,0,1-58-27.08l-.06,0c-24-16.92-37.76-37.12-40.95-60.06C456.1,657.29,470,631,482.58,613.8c24.7,86.92,71.71,131,139.74,131,46.3,0,79.91-32.66,79.91-77.65,0-.18.41-19.84-7.79-39.1-13.86-32.62-50.93-54.27-83.64-73.37-8-4.67-15.53-9.07-22.73-13.59-32-20.07-116.92-73.39-120.68-137.18-1.15-19.52,5.66-59.31,64.22-106.51.43-.33,43.54-33.69,112.3-39.3,4.3-.35,8.82-.53,13.46-.53,3.71,0,7.54.11,11.37.34a263.41,263.41,0,0,1,73.85,18.65c2.47,1.2,4.92,2.47,7.27,3.77,3.65,18.32,7,36.84,10.09,55.06,3.46,20.75,6.59,41.78,9.3,62.51l-32,7.72c-18-57.76-45-111.09-119.46-111.09-41.71,0-70.84,30.53-70.84,74.25,0,48.06,31.19,71,96.72,101.42,73.6,35.09,117.05,61.93,135.82,103.24,9.74,21.46,10.07,41.6,10.23,51.27v.47c.14,9.27-.87,57.64-34.81,99.52-18.3,22.58-42.74,38.92-72.62,48.56A208.93,208.93,0,0,1,619.31,782.88Z"/><path d="M657.37,258.06c3.7,0,7.52.11,11.3.33A263.19,263.19,0,0,1,742.37,277c2.41,1.17,4.77,2.39,7,3.65,3.63,18.23,7,36.67,10,54.81,3.44,20.58,6.55,41.45,9.24,62.05L737.58,405c-18-57.77-45.17-111-119.8-111-42,0-71.34,30.74-71.34,74.75,0,48.33,31.28,71.36,97,101.87,41.41,19.74,67.62,34.33,87.63,48.77,23.67,17.08,38.9,34.31,47.95,54.22,9.7,21.37,10,41.43,10.19,51.07v.47c.14,9.25-.88,57.47-34.7,99.2-18.24,22.51-42.6,38.8-72.39,48.4a208.08,208.08,0,0,1-62.82,9.61c-4.88,0-9.69-.19-13.93-.53a230,230,0,0,1-45.9-8.75h0l-.15,0a263.37,263.37,0,0,1-57.95-27l-.05,0c-23.85-16.82-37.55-36.9-40.73-59.71-4-28.44,9.33-54.24,21.73-71.37,24.84,86.51,71.92,130.37,139.94,130.37,46.59,0,80.41-32.87,80.41-78.12a104.59,104.59,0,0,0-7.83-39.33c-13.93-32.76-51.08-54.46-83.85-73.61-8-4.66-15.52-9.06-22.72-13.58-31.91-20-116.69-73.24-120.44-136.78-.73-12.36,1.91-25.44,7.86-38.87,10-22.63,28.92-45.25,56.17-67.21.11-.09,10.84-8.47,29.94-17.46A240.58,240.58,0,0,1,644,258.59c4.29-.35,8.8-.53,13.42-.53m0-1c-4.27,0-8.82.15-13.5.53C574.14,263.28,531.3,297,531.3,297c-63.89,51.49-65.22,93.13-64.41,106.93C470.67,468,555.51,521.23,587.8,541.5c38,23.84,89.15,46.66,106.18,86.73a104.48,104.48,0,0,1,7.75,38.91c0,47.64-36.31,77.15-79.41,77.15-79.42,0-119.12-59-139.54-131.61-11.07,14.88-27.5,42.35-23.12,73.75,3.51,25.18,19.64,45.23,41.16,60.4l.08,0A264,264,0,0,0,559.11,774l.13,0a230.71,230.71,0,0,0,46.06,8.78c2.24.18,7.15.53,14,.53,29.25,0,93.77-6.29,136-58.38,35.1-43.31,35-93.88,34.92-99.84-.16-9.54-.34-30-10.29-51.94-19-41.86-64.36-69.3-136.06-103.48-63.53-29.5-96.43-52.19-96.43-101,0-45.38,30.63-73.75,70.34-73.75,69.2,0,98.7,45.39,119.12,111.19l32.9-7.94q-4-30.61-9.36-63-4.76-28.46-10.14-55.3c-2.36-1.32-4.87-2.63-7.52-3.91a263.67,263.67,0,0,0-74-18.69c-3.43-.2-7.28-.34-11.4-.34Z"/><path class="cls-2" d="M906.8,521.5C906.8,668.13,787.93,787,641.3,787a265,265,0,0,1-82.06-12.93,230.71,230.71,0,0,0,46.06,8.78c11.78.95,97.88,6.46,150-57.85,35.1-43.31,35-93.88,34.92-99.84-.16-9.54-.34-30-10.29-51.94-19-41.86-64.36-69.3-136.06-103.48-63.53-29.5-96.43-52.19-96.43-101,0-45.38,30.63-73.75,70.34-73.75,69.2,0,98.7,45.39,119.12,111.19l32.9-7.94q-4-30.61-9.36-63-4.76-28.46-10.14-55.3c-2.36-1.32-4.87-2.63-7.52-3.91C839.06,315.94,906.8,410.81,906.8,521.5Z"/><path class="cls-3" d="M701.73,667.14c0,47.64-36.31,77.15-79.41,77.15-79.42,0-119.12-59-139.54-131.61-11.07,14.88-27.5,42.35-23.12,73.75,3.51,25.18,19.64,45.23,41.16,60.4a265.32,265.32,0,0,1-125-225.33C375.8,374.87,494.67,256,641.3,256a271,271,0,0,1,27.47,1.4,180.22,180.22,0,0,0-24.9.19C574.14,263.28,531.3,297,531.3,297c-63.28,51.21-65.42,91.59-64.41,106.93C471.4,472.2,570.43,531.35,595.8,546.5c32.1,19.17,81.35,42.19,98.18,81.73A104.45,104.45,0,0,1,701.73,667.14Z"/><path class="cls-4" d="M790.22,625.16c-.16-9.54-.34-30-10.29-51.94-19-41.86-64.36-69.3-136.06-103.48-63.53-29.5-96.43-52.19-96.43-101,0-45.38,30.63-73.75,70.34-73.75,69.2,0,98.7,45.39,119.12,111.19l32.9-7.94q-4-30.61-9.36-63-4.76-28.46-10.14-55.3c-2.36-1.32-4.87-2.63-7.52-3.91Q740.61,275,738.3,274a148.48,148.48,0,0,0-27-9c-3.41-1-7.41-2.13-11.93-3.17s-9.57-2-15.07-2.83c0,0-6.2-1-15.53-1.6a180.22,180.22,0,0,0-24.9.19C574.14,263.28,531.3,297,531.3,297c-63.81,51.59-65.27,92.87-64.41,106.93,4,65.1,92.35,119.83,123.41,139.07C626.58,565.47,677,588.35,694,628.23a104.48,104.48,0,0,1,7.75,38.91c0,47.64-36.31,77.15-79.41,77.15-79.42,0-119.12-59-139.54-131.61-11.07,14.88-27.5,42.35-23.12,73.75,3.51,25.18,19.64,45.23,41.16,60.4l.08,0C518.1,759,538.72,768,559.11,774l.13,0a230.71,230.71,0,0,0,46.06,8.78c11.78.95,97.88,6.46,150-57.85C790.4,681.69,790.31,631.12,790.22,625.16Z"/><path class="cls-4" d="M501.88,550.51c-2,7.72-18.29,74.24,26.11,130.61,35.08,44.53,84.5,52.86,95.73,54.46-17.3-3.72-42.05-11.86-65.25-31C493.36,651,500.88,560.63,501.88,550.51Z"/><path class="cls-4" d="M523.77,568.77c-1.65,6.28-14.89,60.44,21.26,106.33,28.56,36.25,68.79,43,77.93,44.34-14.08-3-34.23-9.66-53.11-25.21C516.84,650.56,523,577,523.77,568.77Z"/><path class="cls-4" d="M542.05,580.81c-1.39,5.27-12.48,50.63,17.8,89.07,23.92,30.37,57.62,36,65.28,37.14a104.13,104.13,0,0,1-44.49-21.12C536.23,649.32,541.36,587.72,542.05,580.81Z"/></svg>