<svg xmlns="http://www.w3.org/2000/svg" xmlns:xlink="http://www.w3.org/1999/xlink" width="500" zoomAndPan="magnify" viewBox="0 0 375 374.999991" height="500" preserveAspectRatio="xMidYMid meet" version="1.0"><defs><clipPath id="69706914e5"><path d="M 0 115.679688 L 375 115.679688 L 375 265.679688 L 0 265.679688 Z M 0 115.679688 " clip-rule="nonzero"/></clipPath><clipPath id="c1cd8a7feb"><path d="M 128 134 L 234 134 L 234 177 L 128 177 Z M 128 134 " clip-rule="nonzero"/></clipPath><clipPath id="01b7a3e7d0"><path d="M 154.964844 61.113281 L 288.085938 114.019531 L 235.179688 247.144531 L 102.058594 194.234375 Z M 154.964844 61.113281 " clip-rule="nonzero"/></clipPath><clipPath id="7c2f225168"><path d="M 235.074219 246.898438 L 101.953125 193.992188 L 154.859375 60.871094 L 287.980469 113.777344 Z M 235.074219 246.898438 " clip-rule="nonzero"/></clipPath></defs><g clip-path="url(#69706914e5)"><rect x="-37.5" width="450" fill="#ffffff" y="-37.499999" height="449.999989" fill-opacity="1"/><rect x="-37.5" width="450" fill="#ffffff" y="-37.499999" height="449.999989" fill-opacity="1"/><rect x="-37.5" width="450" fill="#03234d" y="-37.499999" height="449.999989" fill-opacity="1"/></g><g clip-path="url(#c1cd8a7feb)"><g clip-path="url(#01b7a3e7d0)"><g clip-path="url(#7c2f225168)"><path fill="#ffffff" d="M 219.925781 136.542969 C 225.242188 140.496094 229.378906 146.019531 230.234375 152.734375 C 231.035156 159.050781 228.382812 165.816406 223.273438 169.6875 C 218.097656 173.617188 211.648438 173.878906 205.425781 173.492188 C 198.292969 173.046875 191.394531 170.164062 184.929688 167.304688 C 177.441406 163.992188 170.160156 160.183594 162.449219 157.398438 C 156.460938 155.234375 149.945312 153.46875 143.535156 153.410156 C 138.503906 153.367188 132.125 154.6875 129.480469 159.519531 C 128.253906 161.769531 128.152344 164.613281 129.429688 166.863281 C 131.023438 169.667969 134.503906 171.035156 137.472656 171.761719 C 144.46875 173.46875 152.191406 171.589844 157.746094 167.046875 C 163.929688 161.996094 167.011719 154.515625 168.371094 146.828125 C 168.539062 145.882812 166.960938 145.464844 166.707031 146.414062 C 164.945312 152.96875 162.054688 159.824219 156.859375 164.40625 C 155.644531 165.476562 154.320312 166.394531 152.894531 167.164062 C 151.46875 167.9375 149.976562 168.535156 148.414062 168.96875 C 146.851562 169.402344 145.261719 169.652344 143.644531 169.722656 C 142.027344 169.796875 140.417969 169.683594 138.824219 169.394531 C 135.882812 168.863281 131.683594 167.714844 130.914062 164.351562 C 130.28125 161.582031 132.066406 159.285156 134.269531 157.859375 C 138.859375 154.894531 144.945312 155.449219 150.0625 156.359375 C 165.339844 159.074219 178.398438 167.828125 192.875 172.878906 C 198.617188 174.882812 204.851562 176.71875 210.96875 176.585938 C 217.007812 176.457031 223.105469 174.5625 227.429688 170.183594 C 232.277344 165.273438 234.539062 157.753906 233.1875 150.980469 C 232.828125 149.261719 232.285156 147.601562 231.558594 146 C 230.832031 144.402344 229.9375 142.902344 228.878906 141.5 C 227.820312 140.097656 226.617188 138.832031 225.277344 137.695312 C 223.933594 136.5625 222.484375 135.589844 220.925781 134.777344 C 219.882812 134.242188 219.027344 135.867188 219.925781 136.542969 Z M 219.925781 136.542969 " fill-opacity="1" fill-rule="nonzero"/></g></g></g><path fill="#ffffff" d="M 190.515625 140.628906 C 187.398438 142.984375 183.519531 143.054688 179.429688 142.359375 C 179.777344 140.765625 180.191406 139.171875 180.609375 137.648438 C 180.953125 136.261719 180.332031 134.875 179.152344 134.183594 L 177.699219 133.351562 C 177.28125 133.144531 176.796875 133.144531 176.382812 133.28125 C 175.964844 133.492188 175.6875 133.835938 175.550781 134.253906 L 173.957031 141.113281 L 172.5 140.695312 C 165.363281 138.828125 157.949219 136.816406 153.792969 142.914062 C 153.652344 143.121094 153.722656 143.46875 153.929688 143.609375 C 154.207031 143.816406 154.484375 143.746094 154.625 143.46875 C 158.433594 137.996094 165.085938 139.796875 172.222656 141.738281 L 173.75 142.152344 C 171.945312 150.328125 170.214844 159.890625 169.519531 168.34375 C 168.621094 179.292969 169.9375 185.460938 173.332031 186.636719 C 174.023438 186.847656 174.648438 186.984375 175.273438 186.984375 C 176.726562 186.984375 177.699219 186.359375 177.976562 186.152344 C 182.0625 184.003906 186.152344 174.859375 186.707031 173.609375 C 186.773438 173.332031 186.707031 173.058594 186.429688 172.917969 C 186.152344 172.78125 185.875 172.917969 185.734375 173.195312 C 185.734375 173.195312 184.210938 176.796875 182.132812 180.054688 C 180.398438 182.757812 178.875 184.488281 177.558594 185.253906 C 177.488281 185.253906 177.421875 185.320312 177.421875 185.320312 C 176.726562 185.667969 176.171875 185.738281 175.6875 185.53125 C 174.996094 185.253906 172.984375 183.382812 174.511719 169.382812 C 175.34375 161.761719 177.003906 152.546875 179.152344 143.332031 C 180.609375 143.609375 182.0625 143.746094 183.449219 143.746094 C 186.222656 143.746094 188.855469 143.191406 191.140625 141.460938 C 191.347656 141.320312 191.417969 140.972656 191.210938 140.765625 C 191.070312 140.558594 190.726562 140.488281 190.515625 140.628906 Z M 190.515625 140.628906 " fill-opacity="1" fill-rule="nonzero"/><path fill="#ffffff" d="M 222.457031 140.628906 C 219.339844 142.984375 215.460938 143.054688 211.371094 142.359375 C 211.71875 140.765625 212.132812 139.171875 212.550781 137.648438 C 212.894531 136.261719 212.273438 134.875 211.09375 134.183594 L 209.640625 133.351562 C 209.222656 133.144531 208.738281 133.144531 208.324219 133.28125 C 207.90625 133.492188 207.628906 133.835938 207.492188 134.253906 L 205.898438 141.113281 L 204.441406 140.695312 C 197.304688 138.828125 189.890625 136.816406 185.734375 142.914062 C 185.59375 143.121094 185.664062 143.46875 185.871094 143.609375 C 186.148438 143.816406 186.425781 143.746094 186.566406 143.46875 C 190.375 137.996094 197.027344 139.796875 204.164062 141.738281 L 205.691406 142.152344 C 203.886719 150.328125 202.15625 159.890625 201.460938 168.34375 C 200.5625 179.292969 201.878906 185.460938 205.273438 186.636719 C 205.964844 186.847656 206.589844 186.984375 207.214844 186.984375 C 208.667969 186.984375 209.640625 186.359375 209.917969 186.152344 C 214.003906 184.003906 218.09375 174.859375 218.648438 173.609375 C 218.714844 173.332031 218.648438 173.058594 218.371094 172.917969 C 218.09375 172.78125 217.816406 172.917969 217.675781 173.195312 C 217.675781 173.195312 216.152344 176.796875 214.074219 180.054688 C 212.339844 182.757812 210.816406 184.488281 209.5 185.253906 C 209.429688 185.253906 209.363281 185.320312 209.363281 185.320312 C 208.667969 185.667969 208.113281 185.738281 207.628906 185.53125 C 206.9375 185.253906 204.925781 183.382812 206.453125 169.382812 C 207.285156 161.761719 208.945312 152.546875 211.09375 143.332031 C 212.550781 143.609375 214.003906 143.746094 215.390625 143.746094 C 218.164062 143.746094 220.796875 143.191406 223.082031 141.460938 C 223.289062 141.320312 223.359375 140.972656 223.152344 140.765625 C 223.011719 140.558594 222.667969 140.488281 222.457031 140.628906 Z M 222.457031 140.628906 " fill-opacity="1" fill-rule="nonzero"/><path fill="#ffffff" d="M 60.859375 207.964844 C 59.574219 207.964844 55.871094 207.964844 55.871094 207.964844 L 55.871094 224.457031 L 57.734375 224.457031 L 57.734375 216.789062 L 59.625 216.789062 C 60.414062 216.789062 66.140625 216.8125 66.140625 212.085938 C 66.140625 208.460938 62.199219 207.964844 60.859375 207.964844 Z M 59.179688 216.367188 L 57.734375 216.367188 L 57.734375 208.382812 L 59.863281 208.382812 C 62.539062 208.382812 64.144531 209.484375 64.144531 212.375 C 64.144531 215.316406 62.25 216.367188 59.179688 216.367188 Z M 59.179688 216.367188 " fill-opacity="1" fill-rule="nonzero"/><path fill="#ffffff" d="M 86.203125 224.457031 L 80.03125 216.683594 C 81.976562 216.417969 84.917969 215.472656 84.917969 212.085938 C 84.917969 208.460938 80.976562 207.964844 79.636719 207.964844 C 78.351562 207.964844 74.648438 207.964844 74.648438 207.964844 L 74.648438 224.457031 L 76.511719 224.457031 L 76.511719 216.789062 L 77.71875 216.789062 L 83.8125 224.457031 Z M 76.511719 208.382812 L 78.640625 208.382812 C 81.316406 208.382812 82.921875 209.484375 82.921875 212.375 C 82.921875 215.316406 81.027344 216.367188 77.957031 216.367188 L 76.511719 216.367188 Z M 76.511719 208.382812 " fill-opacity="1" fill-rule="nonzero"/><path fill="#ffffff" d="M 94.761719 224.457031 L 96.625 224.457031 L 96.625 207.964844 L 94.761719 207.964844 Z M 94.761719 224.457031 " fill-opacity="1" fill-rule="nonzero"/><path fill="#ffffff" d="M 119.527344 207.964844 L 113.300781 221.960938 L 107.316406 207.964844 L 105.292969 207.964844 L 112.488281 224.796875 L 112.644531 224.796875 L 120.128906 207.964844 Z M 119.527344 207.964844 " fill-opacity="1" fill-rule="nonzero"/><path fill="#ffffff" d="M 140.902344 224.457031 L 142.925781 224.457031 L 135.703125 207.648438 L 135.570312 207.648438 L 128.085938 224.457031 L 128.664062 224.457031 L 131.632812 217.835938 L 138.039062 217.835938 Z M 131.816406 217.390625 L 134.890625 210.484375 L 137.855469 217.390625 Z M 131.816406 217.390625 " fill-opacity="1" fill-rule="nonzero"/><path fill="#ffffff" d="M 162.90625 207.964844 L 150.878906 207.964844 L 150.878906 208.382812 L 155.945312 208.382812 L 155.945312 224.457031 L 157.839844 224.457031 L 157.839844 208.382812 L 162.90625 208.382812 Z M 162.90625 207.964844 " fill-opacity="1" fill-rule="nonzero"/><path fill="#ffffff" d="M 179.558594 208.382812 L 179.558594 207.964844 L 171.207031 207.964844 L 171.207031 224.457031 L 179.558594 224.457031 L 179.558594 224.035156 L 173.070312 224.035156 L 173.070312 216.050781 L 178.847656 216.050781 L 178.847656 215.632812 L 173.070312 215.632812 L 173.070312 208.382812 Z M 179.558594 208.382812 " fill-opacity="1" fill-rule="nonzero"/><path fill="#ffffff" d="M 202.667969 224.035156 L 202.667969 207.964844 L 200.804688 207.964844 L 200.804688 224.457031 L 209.234375 224.457031 L 209.234375 224.035156 Z M 202.667969 224.035156 " fill-opacity="1" fill-rule="nonzero"/><path fill="#ffffff" d="M 217.925781 224.457031 L 219.789062 224.457031 L 219.789062 207.964844 L 217.925781 207.964844 Z M 217.925781 224.457031 " fill-opacity="1" fill-rule="nonzero"/><path fill="#ffffff" d="M 245.578125 207.648438 L 245.527344 207.648438 L 238.148438 221.621094 L 230.871094 207.648438 L 230.792969 207.648438 L 228.535156 224.457031 L 228.957031 224.457031 L 230.714844 211.429688 L 237.253906 224.007812 L 237.359375 224.007812 L 244.109375 211.21875 L 245.660156 224.457031 L 247.550781 224.457031 Z M 245.578125 207.648438 " fill-opacity="1" fill-rule="nonzero"/><path fill="#ffffff" d="M 256.292969 224.457031 L 258.15625 224.457031 L 258.15625 207.964844 L 256.292969 207.964844 Z M 256.292969 224.457031 " fill-opacity="1" fill-rule="nonzero"/><path fill="#ffffff" d="M 278.851562 207.964844 L 266.824219 207.964844 L 266.824219 208.382812 L 271.890625 208.382812 L 271.890625 224.457031 L 273.785156 224.457031 L 273.785156 208.382812 L 278.851562 208.382812 Z M 278.851562 207.964844 " fill-opacity="1" fill-rule="nonzero"/><path fill="#ffffff" d="M 295.5 208.382812 L 295.5 207.964844 L 287.148438 207.964844 L 287.148438 224.457031 L 295.5 224.457031 L 295.5 224.035156 L 289.011719 224.035156 L 289.011719 216.050781 L 294.789062 216.050781 L 294.789062 215.632812 L 289.011719 215.632812 L 289.011719 208.382812 Z M 295.5 208.382812 " fill-opacity="1" fill-rule="nonzero"/><path fill="#ffffff" d="M 310.835938 207.964844 L 304.035156 207.964844 L 304.035156 224.457031 L 309.601562 224.457031 C 310.390625 224.457031 319.1875 224.851562 319.1875 215.945312 C 319.1875 208.75 313.882812 207.964844 310.835938 207.964844 Z M 309.550781 224.035156 L 305.898438 224.035156 L 305.898438 208.410156 L 309.839844 208.410156 C 312.832031 208.410156 317.246094 209.511719 317.246094 215.945312 C 317.246094 222.355469 313.148438 224.035156 309.550781 224.035156 Z M 309.550781 224.035156 " fill-opacity="1" fill-rule="nonzero"/><path fill="#e4a740" d="M 138.445312 228.230469 L 135.773438 228.230469 L 135.773438 227.527344 L 141.929688 227.527344 L 141.929688 228.230469 L 139.257812 228.230469 L 139.257812 235.152344 L 138.445312 235.152344 Z M 138.445312 228.230469 " fill-opacity="1" fill-rule="nonzero"/><path fill="#e4a740" d="M 155.820312 233.121094 L 151.585938 233.121094 L 150.664062 235.152344 L 149.820312 235.152344 L 153.304688 227.527344 L 154.101562 227.527344 L 157.585938 235.152344 L 156.742188 235.152344 Z M 155.539062 232.464844 L 153.710938 228.371094 L 151.867188 232.464844 Z M 155.539062 232.464844 " fill-opacity="1" fill-rule="nonzero"/><path fill="#e4a740" d="M 169.539062 227.527344 C 170.507812 227.527344 171.265625 227.761719 171.820312 228.230469 C 172.371094 228.691406 172.648438 229.324219 172.648438 230.136719 C 172.648438 230.949219 172.371094 231.589844 171.820312 232.058594 C 171.265625 232.519531 170.507812 232.746094 169.539062 232.746094 L 167.492188 232.746094 L 167.492188 235.152344 L 166.679688 235.152344 L 166.679688 227.527344 Z M 169.523438 232.042969 C 170.273438 232.042969 170.84375 231.878906 171.242188 231.542969 C 171.648438 231.210938 171.851562 230.742188 171.851562 230.136719 C 171.851562 229.523438 171.648438 229.054688 171.242188 228.730469 C 170.84375 228.398438 170.273438 228.230469 169.523438 228.230469 L 167.492188 228.230469 L 167.492188 232.042969 Z M 169.523438 232.042969 " fill-opacity="1" fill-rule="nonzero"/><path fill="#e4a740" d="M 185.671875 235.214844 C 184.910156 235.214844 184.222656 235.050781 183.609375 234.714844 C 182.992188 234.371094 182.515625 233.910156 182.171875 233.324219 C 181.828125 232.730469 181.65625 232.070312 181.65625 231.339844 C 181.65625 230.613281 181.828125 229.957031 182.171875 229.371094 C 182.515625 228.777344 182.992188 228.316406 183.609375 227.980469 C 184.222656 227.636719 184.910156 227.464844 185.671875 227.464844 C 186.421875 227.464844 187.097656 227.632812 187.703125 227.964844 C 188.316406 228.300781 188.796875 228.761719 189.140625 229.355469 C 189.492188 229.949219 189.671875 230.613281 189.671875 231.339844 C 189.671875 232.070312 189.492188 232.730469 189.140625 233.324219 C 188.796875 233.917969 188.316406 234.382812 187.703125 234.714844 C 187.097656 235.050781 186.421875 235.214844 185.671875 235.214844 Z M 185.671875 234.496094 C 186.273438 234.496094 186.816406 234.363281 187.296875 234.089844 C 187.785156 233.820312 188.164062 233.445312 188.4375 232.964844 C 188.71875 232.476562 188.859375 231.933594 188.859375 231.339844 C 188.859375 230.746094 188.71875 230.210938 188.4375 229.730469 C 188.164062 229.242188 187.785156 228.863281 187.296875 228.589844 C 186.816406 228.320312 186.273438 228.183594 185.671875 228.183594 C 185.066406 228.183594 184.519531 228.320312 184.03125 228.589844 C 183.539062 228.863281 183.15625 229.242188 182.875 229.730469 C 182.59375 230.210938 182.453125 230.746094 182.453125 231.339844 C 182.453125 231.933594 182.59375 232.476562 182.875 232.964844 C 183.15625 233.445312 183.539062 233.820312 184.03125 234.089844 C 184.519531 234.363281 185.066406 234.496094 185.671875 234.496094 Z M 185.671875 234.496094 " fill-opacity="1" fill-rule="nonzero"/><path fill="#e4a740" d="M 200.78125 228.230469 L 198.109375 228.230469 L 198.109375 227.527344 L 204.265625 227.527344 L 204.265625 228.230469 L 201.59375 228.230469 L 201.59375 235.152344 L 200.78125 235.152344 Z M 200.78125 228.230469 " fill-opacity="1" fill-rule="nonzero"/><path fill="#e4a740" d="M 218.15625 233.121094 L 213.921875 233.121094 L 213 235.152344 L 212.15625 235.152344 L 215.640625 227.527344 L 216.4375 227.527344 L 219.921875 235.152344 L 219.078125 235.152344 Z M 217.875 232.464844 L 216.046875 228.371094 L 214.203125 232.464844 Z M 217.875 232.464844 " fill-opacity="1" fill-rule="nonzero"/><path fill="#e4a740" d="M 231.875 227.527344 C 232.84375 227.527344 233.601562 227.761719 234.15625 228.230469 C 234.707031 228.691406 234.984375 229.324219 234.984375 230.136719 C 234.984375 230.949219 234.707031 231.589844 234.15625 232.058594 C 233.601562 232.519531 232.84375 232.746094 231.875 232.746094 L 229.828125 232.746094 L 229.828125 235.152344 L 229.015625 235.152344 L 229.015625 227.527344 Z M 231.859375 232.042969 C 232.609375 232.042969 233.179688 231.878906 233.578125 231.542969 C 233.984375 231.210938 234.1875 230.742188 234.1875 230.136719 C 234.1875 229.523438 233.984375 229.054688 233.578125 228.730469 C 233.179688 228.398438 232.609375 228.230469 231.859375 228.230469 L 229.828125 228.230469 L 229.828125 232.042969 Z M 231.859375 232.042969 " fill-opacity="1" fill-rule="nonzero"/></svg>