<svg xmlns="http://www.w3.org/2000/svg" xmlns:xlink="http://www.w3.org/1999/xlink" width="500" zoomAndPan="magnify" viewBox="0 0 375 374.999991" height="500" preserveAspectRatio="xMidYMid meet" version="1.0"><defs><g/><clipPath id="c7afb7c832"><path d="M 128 134 L 234 134 L 234 177 L 128 177 Z M 128 134 " clip-rule="nonzero"/></clipPath><clipPath id="fc612a3aae"><path d="M 154.964844 61.113281 L 288.085938 114.019531 L 235.179688 247.144531 L 102.058594 194.234375 Z M 154.964844 61.113281 " clip-rule="nonzero"/></clipPath><clipPath id="2480a38247"><path d="M 235.074219 246.898438 L 101.953125 193.992188 L 154.859375 60.871094 L 287.980469 113.777344 Z M 235.074219 246.898438 " clip-rule="nonzero"/></clipPath></defs><rect x="-37.5" width="450" fill="#ffffff" y="-37.499999" height="449.999989" fill-opacity="1"/><rect x="-37.5" width="450" fill="#ffffff" y="-37.499999" height="449.999989" fill-opacity="1"/><rect x="-37.5" width="450" fill="#03234d" y="-37.499999" height="449.999989" fill-opacity="1"/><g clip-path="url(#c7afb7c832)"><g clip-path="url(#fc612a3aae)"><g clip-path="url(#2480a38247)"><path fill="#ffffff" d="M 219.925781 136.542969 C 225.242188 140.496094 229.378906 146.019531 230.234375 152.734375 C 231.035156 159.050781 228.382812 165.816406 223.273438 169.6875 C 218.097656 173.617188 211.648438 173.878906 205.425781 173.492188 C 198.292969 173.046875 191.394531 170.164062 184.929688 167.304688 C 177.441406 163.992188 170.160156 160.183594 162.449219 157.398438 C 156.460938 155.234375 149.945312 153.46875 143.535156 153.410156 C 138.503906 153.367188 132.125 154.6875 129.480469 159.519531 C 128.253906 161.769531 128.152344 164.613281 129.429688 166.863281 C 131.023438 169.667969 134.503906 171.035156 137.472656 171.761719 C 144.46875 173.46875 152.191406 171.589844 157.746094 167.046875 C 163.929688 161.996094 167.011719 154.515625 168.371094 146.828125 C 168.539062 145.882812 166.960938 145.464844 166.707031 146.414062 C 164.945312 152.96875 162.054688 159.824219 156.859375 164.40625 C 155.644531 165.476562 154.320312 166.394531 152.894531 167.164062 C 151.46875 167.9375 149.976562 168.535156 148.414062 168.96875 C 146.851562 169.402344 145.261719 169.652344 143.644531 169.722656 C 142.027344 169.796875 140.417969 169.683594 138.824219 169.394531 C 135.882812 168.863281 131.683594 167.714844 130.914062 164.351562 C 130.28125 161.582031 132.066406 159.285156 134.269531 157.859375 C 138.859375 154.894531 144.945312 155.449219 150.0625 156.359375 C 165.339844 159.074219 178.398438 167.828125 192.875 172.878906 C 198.617188 174.882812 204.851562 176.71875 210.96875 176.585938 C 217.007812 176.457031 223.105469 174.5625 227.429688 170.183594 C 232.277344 165.273438 234.539062 157.753906 233.1875 150.980469 C 232.828125 149.261719 232.285156 147.601562 231.558594 146 C 230.832031 144.402344 229.9375 142.902344 228.878906 141.5 C 227.820312 140.097656 226.617188 138.832031 225.277344 137.695312 C 223.933594 136.5625 222.484375 135.589844 220.925781 134.777344 C 219.882812 134.242188 219.027344 135.867188 219.925781 136.542969 Z M 219.925781 136.542969 " fill-opacity="1" fill-rule="nonzero"/></g></g></g><g fill="#ffffff" fill-opacity="1"><g transform="translate(153.723757, 187.263395)"><g><path d="M 36.792969 -46.632812 C 33.675781 -44.277344 29.796875 -44.207031 25.707031 -44.902344 C 26.054688 -46.496094 26.46875 -48.089844 26.886719 -49.613281 C 27.230469 -51 26.609375 -52.386719 25.429688 -53.078125 L 23.976562 -53.910156 C 23.558594 -54.117188 23.074219 -54.117188 22.660156 -53.980469 C 22.242188 -53.769531 21.964844 -53.425781 21.828125 -53.007812 L 20.234375 -46.148438 L 18.777344 -46.566406 C 11.640625 -48.433594 4.226562 -50.445312 0.0703125 -44.347656 C -0.0703125 -44.140625 0 -43.792969 0.207031 -43.652344 C 0.484375 -43.445312 0.761719 -43.515625 0.902344 -43.792969 C 4.710938 -49.265625 11.363281 -47.464844 18.5 -45.523438 L 20.027344 -45.109375 C 18.222656 -36.933594 16.492188 -27.371094 15.796875 -18.917969 C 14.898438 -7.96875 16.214844 -1.800781 19.609375 -0.625 C 20.300781 -0.414062 20.925781 -0.277344 21.550781 -0.277344 C 23.003906 -0.277344 23.976562 -0.902344 24.253906 -1.109375 C 28.339844 -3.257812 32.429688 -12.402344 32.984375 -13.652344 C 33.050781 -13.929688 32.984375 -14.203125 32.707031 -14.34375 C 32.429688 -14.480469 32.152344 -14.34375 32.011719 -14.066406 C 32.011719 -14.066406 30.488281 -10.464844 28.410156 -7.207031 C 26.675781 -4.503906 25.152344 -2.773438 23.835938 -2.007812 C 23.765625 -2.007812 23.699219 -1.941406 23.699219 -1.941406 C 23.003906 -1.59375 22.449219 -1.523438 21.964844 -1.730469 C 21.273438 -2.007812 19.261719 -3.878906 20.789062 -17.878906 C 21.621094 -25.5 23.28125 -34.714844 25.429688 -43.929688 C 26.886719 -43.652344 28.339844 -43.515625 29.726562 -43.515625 C 32.5 -43.515625 35.132812 -44.070312 37.417969 -45.800781 C 37.625 -45.941406 37.695312 -46.289062 37.488281 -46.496094 C 37.347656 -46.703125 37.003906 -46.773438 36.792969 -46.632812 Z M 36.792969 -46.632812 "/></g></g></g><g fill="#ffffff" fill-opacity="1"><g transform="translate(185.66386, 187.263395)"><g><path d="M 36.792969 -46.632812 C 33.675781 -44.277344 29.796875 -44.207031 25.707031 -44.902344 C 26.054688 -46.496094 26.46875 -48.089844 26.886719 -49.613281 C 27.230469 -51 26.609375 -52.386719 25.429688 -53.078125 L 23.976562 -53.910156 C 23.558594 -54.117188 23.074219 -54.117188 22.660156 -53.980469 C 22.242188 -53.769531 21.964844 -53.425781 21.828125 -53.007812 L 20.234375 -46.148438 L 18.777344 -46.566406 C 11.640625 -48.433594 4.226562 -50.445312 0.0703125 -44.347656 C -0.0703125 -44.140625 0 -43.792969 0.207031 -43.652344 C 0.484375 -43.445312 0.761719 -43.515625 0.902344 -43.792969 C 4.710938 -49.265625 11.363281 -47.464844 18.5 -45.523438 L 20.027344 -45.109375 C 18.222656 -36.933594 16.492188 -27.371094 15.796875 -18.917969 C 14.898438 -7.96875 16.214844 -1.800781 19.609375 -0.625 C 20.300781 -0.414062 20.925781 -0.277344 21.550781 -0.277344 C 23.003906 -0.277344 23.976562 -0.902344 24.253906 -1.109375 C 28.339844 -3.257812 32.429688 -12.402344 32.984375 -13.652344 C 33.050781 -13.929688 32.984375 -14.203125 32.707031 -14.34375 C 32.429688 -14.480469 32.152344 -14.34375 32.011719 -14.066406 C 32.011719 -14.066406 30.488281 -10.464844 28.410156 -7.207031 C 26.675781 -4.503906 25.152344 -2.773438 23.835938 -2.007812 C 23.765625 -2.007812 23.699219 -1.941406 23.699219 -1.941406 C 23.003906 -1.59375 22.449219 -1.523438 21.964844 -1.730469 C 21.273438 -2.007812 19.261719 -3.878906 20.789062 -17.878906 C 21.621094 -25.5 23.28125 -34.714844 25.429688 -43.929688 C 26.886719 -43.652344 28.339844 -43.515625 29.726562 -43.515625 C 32.5 -43.515625 35.132812 -44.070312 37.417969 -45.800781 C 37.625 -45.941406 37.695312 -46.289062 37.488281 -46.496094 C 37.347656 -46.703125 37.003906 -46.773438 36.792969 -46.632812 Z M 36.792969 -46.632812 "/></g></g></g><g fill="#ffffff" fill-opacity="1"><g transform="translate(54.608747, 224.429063)"><g><path d="M 6.25 -16.464844 C 4.964844 -16.464844 1.261719 -16.464844 1.261719 -16.464844 L 1.261719 0.0273438 L 3.125 0.0273438 L 3.125 -7.640625 L 5.015625 -7.640625 C 5.804688 -7.640625 11.53125 -7.617188 11.53125 -12.34375 C 11.53125 -15.96875 7.589844 -16.464844 6.25 -16.464844 Z M 4.570312 -8.0625 L 3.125 -8.0625 L 3.125 -16.046875 L 5.253906 -16.046875 C 7.929688 -16.046875 9.535156 -14.945312 9.535156 -12.054688 C 9.535156 -9.113281 7.640625 -8.0625 4.570312 -8.0625 Z M 4.570312 -8.0625 "/></g></g></g><g fill="#ffffff" fill-opacity="1"><g transform="translate(73.385087, 224.429063)"><g><path d="M 12.816406 0.0273438 L 6.644531 -7.746094 C 8.589844 -8.011719 11.53125 -8.957031 11.53125 -12.34375 C 11.53125 -15.96875 7.589844 -16.464844 6.25 -16.464844 C 4.964844 -16.464844 1.261719 -16.464844 1.261719 -16.464844 L 1.261719 0.0273438 L 3.125 0.0273438 L 3.125 -7.640625 L 4.332031 -7.640625 L 10.425781 0.0273438 Z M 3.125 -16.046875 L 5.253906 -16.046875 C 7.929688 -16.046875 9.535156 -14.945312 9.535156 -12.054688 C 9.535156 -9.113281 7.640625 -8.0625 4.570312 -8.0625 L 3.125 -8.0625 Z M 3.125 -16.046875 "/></g></g></g><g fill="#ffffff" fill-opacity="1"><g transform="translate(93.237995, 224.429063)"><g><path d="M 1.523438 0.0273438 L 3.386719 0.0273438 L 3.386719 -16.464844 L 1.523438 -16.464844 Z M 1.523438 0.0273438 "/></g></g></g><g fill="#ffffff" fill-opacity="1"><g transform="translate(104.425775, 224.429063)"><g><path d="M 15.101562 -16.464844 L 8.875 -2.46875 L 2.890625 -16.464844 L 0.867188 -16.464844 L 8.0625 0.367188 L 8.21875 0.367188 L 15.703125 -16.464844 Z M 15.101562 -16.464844 "/></g></g></g><g fill="#ffffff" fill-opacity="1"><g transform="translate(127.167066, 224.429063)"><g><path d="M 13.734375 0.0273438 L 15.757812 0.0273438 L 8.535156 -16.78125 L 8.402344 -16.78125 L 0.917969 0.0273438 L 1.496094 0.0273438 L 4.464844 -6.59375 L 10.871094 -6.59375 Z M 4.648438 -7.039062 L 7.722656 -13.945312 L 10.6875 -7.039062 Z M 4.648438 -7.039062 "/></g></g></g><g fill="#ffffff" fill-opacity="1"><g transform="translate(150.013383, 224.429063)"><g><path d="M 12.894531 -16.464844 L 0.867188 -16.464844 L 0.867188 -16.046875 L 5.933594 -16.046875 L 5.933594 0.0273438 L 7.828125 0.0273438 L 7.828125 -16.046875 L 12.894531 -16.046875 Z M 12.894531 -16.464844 "/></g></g></g><g fill="#ffffff" fill-opacity="1"><g transform="translate(169.945076, 224.429063)"><g><path d="M 9.613281 -16.046875 L 9.613281 -16.464844 L 1.261719 -16.464844 L 1.261719 0.0273438 L 9.613281 0.0273438 L 9.613281 -0.394531 L 3.125 -0.394531 L 3.125 -8.378906 L 8.902344 -8.378906 L 8.902344 -8.796875 L 3.125 -8.796875 L 3.125 -16.046875 Z M 9.613281 -16.046875 "/></g></g></g><g fill="#ffffff" fill-opacity="1"><g transform="translate(186.830841, 224.429063)"><g/></g></g><g fill="#ffffff" fill-opacity="1"><g transform="translate(199.541579, 224.429063)"><g><path d="M 3.125 -0.394531 L 3.125 -16.464844 L 1.261719 -16.464844 L 1.261719 0.0273438 L 9.691406 0.0273438 L 9.691406 -0.394531 Z M 3.125 -0.394531 "/></g></g></g><g fill="#ffffff" fill-opacity="1"><g transform="translate(216.401076, 224.429063)"><g><path d="M 1.523438 0.0273438 L 3.386719 0.0273438 L 3.386719 -16.464844 L 1.523438 -16.464844 Z M 1.523438 0.0273438 "/></g></g></g><g fill="#ffffff" fill-opacity="1"><g transform="translate(227.588854, 224.429063)"><g><path d="M 17.988281 -16.78125 L 17.9375 -16.78125 L 10.558594 -2.808594 L 3.28125 -16.78125 L 3.203125 -16.78125 L 0.945312 0.0273438 L 1.367188 0.0273438 L 3.125 -13 L 9.664062 -0.421875 L 9.769531 -0.421875 L 16.519531 -13.210938 L 18.070312 0.0273438 L 19.960938 0.0273438 Z M 17.988281 -16.78125 "/></g></g></g><g fill="#ffffff" fill-opacity="1"><g transform="translate(254.767746, 224.429063)"><g><path d="M 1.523438 0.0273438 L 3.386719 0.0273438 L 3.386719 -16.464844 L 1.523438 -16.464844 Z M 1.523438 0.0273438 "/></g></g></g><g fill="#ffffff" fill-opacity="1"><g transform="translate(265.955524, 224.429063)"><g><path d="M 12.894531 -16.464844 L 0.867188 -16.464844 L 0.867188 -16.046875 L 5.933594 -16.046875 L 5.933594 0.0273438 L 7.828125 0.0273438 L 7.828125 -16.046875 L 12.894531 -16.046875 Z M 12.894531 -16.464844 "/></g></g></g><g fill="#ffffff" fill-opacity="1"><g transform="translate(285.887212, 224.429063)"><g><path d="M 9.613281 -16.046875 L 9.613281 -16.464844 L 1.261719 -16.464844 L 1.261719 0.0273438 L 9.613281 0.0273438 L 9.613281 -0.394531 L 3.125 -0.394531 L 3.125 -8.378906 L 8.902344 -8.378906 L 8.902344 -8.796875 L 3.125 -8.796875 L 3.125 -16.046875 Z M 9.613281 -16.046875 "/></g></g></g><g fill="#ffffff" fill-opacity="1"><g transform="translate(302.772977, 224.429063)"><g><path d="M 8.0625 -16.464844 L 1.261719 -16.464844 L 1.261719 0.0273438 L 6.828125 0.0273438 C 7.617188 0.0273438 16.414062 0.421875 16.414062 -8.484375 C 16.414062 -15.679688 11.109375 -16.464844 8.0625 -16.464844 Z M 6.777344 -0.394531 L 3.125 -0.394531 L 3.125 -16.019531 L 7.066406 -16.019531 C 10.058594 -16.019531 14.472656 -14.917969 14.472656 -8.484375 C 14.472656 -2.074219 10.375 -0.394531 6.777344 -0.394531 Z M 6.777344 -0.394531 "/></g></g></g><g fill="#e4a740" fill-opacity="1"><g transform="translate(135.725011, 235.153461)"><g><path d="M 2.71875 -6.921875 L 0.046875 -6.921875 L 0.046875 -7.625 L 6.203125 -7.625 L 6.203125 -6.921875 L 3.53125 -6.921875 L 3.53125 0 L 2.71875 0 Z M 2.71875 -6.921875 "/></g></g></g><g fill="#e4a740" fill-opacity="1"><g transform="translate(149.805193, 235.153461)"><g><path d="M 6.015625 -2.03125 L 1.78125 -2.03125 L 0.859375 0 L 0.015625 0 L 3.5 -7.625 L 4.296875 -7.625 L 7.78125 0 L 6.9375 0 Z M 5.734375 -2.6875 L 3.90625 -6.78125 L 2.0625 -2.6875 Z M 5.734375 -2.6875 "/></g></g></g><g fill="#e4a740" fill-opacity="1"><g transform="translate(165.443798, 235.153461)"><g><path d="M 4.09375 -7.625 C 5.0625 -7.625 5.820312 -7.390625 6.375 -6.921875 C 6.925781 -6.460938 7.203125 -5.828125 7.203125 -5.015625 C 7.203125 -4.203125 6.925781 -3.5625 6.375 -3.09375 C 5.820312 -2.632812 5.0625 -2.40625 4.09375 -2.40625 L 2.046875 -2.40625 L 2.046875 0 L 1.234375 0 L 1.234375 -7.625 Z M 4.078125 -3.109375 C 4.828125 -3.109375 5.398438 -3.273438 5.796875 -3.609375 C 6.203125 -3.941406 6.40625 -4.410156 6.40625 -5.015625 C 6.40625 -5.628906 6.203125 -6.097656 5.796875 -6.421875 C 5.398438 -6.753906 4.828125 -6.921875 4.078125 -6.921875 L 2.046875 -6.921875 L 2.046875 -3.109375 Z M 4.078125 -3.109375 "/></g></g></g><g fill="#e4a740" fill-opacity="1"><g transform="translate(181.093294, 235.153461)"><g><path d="M 4.578125 0.0625 C 3.816406 0.0625 3.128906 -0.101562 2.515625 -0.4375 C 1.898438 -0.78125 1.421875 -1.242188 1.078125 -1.828125 C 0.734375 -2.421875 0.5625 -3.082031 0.5625 -3.8125 C 0.5625 -4.539062 0.734375 -5.195312 1.078125 -5.78125 C 1.421875 -6.375 1.898438 -6.835938 2.515625 -7.171875 C 3.128906 -7.515625 3.816406 -7.6875 4.578125 -7.6875 C 5.328125 -7.6875 6.003906 -7.519531 6.609375 -7.1875 C 7.222656 -6.851562 7.703125 -6.390625 8.046875 -5.796875 C 8.398438 -5.203125 8.578125 -4.539062 8.578125 -3.8125 C 8.578125 -3.082031 8.398438 -2.421875 8.046875 -1.828125 C 7.703125 -1.234375 7.222656 -0.769531 6.609375 -0.4375 C 6.003906 -0.101562 5.328125 0.0625 4.578125 0.0625 Z M 4.578125 -0.65625 C 5.179688 -0.65625 5.722656 -0.789062 6.203125 -1.0625 C 6.691406 -1.332031 7.070312 -1.707031 7.34375 -2.1875 C 7.625 -2.675781 7.765625 -3.21875 7.765625 -3.8125 C 7.765625 -4.40625 7.625 -4.941406 7.34375 -5.421875 C 7.070312 -5.910156 6.691406 -6.289062 6.203125 -6.5625 C 5.722656 -6.832031 5.179688 -6.96875 4.578125 -6.96875 C 3.972656 -6.96875 3.425781 -6.832031 2.9375 -6.5625 C 2.445312 -6.289062 2.0625 -5.910156 1.78125 -5.421875 C 1.5 -4.941406 1.359375 -4.40625 1.359375 -3.8125 C 1.359375 -3.21875 1.5 -2.675781 1.78125 -2.1875 C 2.0625 -1.707031 2.445312 -1.332031 2.9375 -1.0625 C 3.425781 -0.789062 3.972656 -0.65625 4.578125 -0.65625 Z M 4.578125 -0.65625 "/></g></g></g><g fill="#e4a740" fill-opacity="1"><g transform="translate(198.061453, 235.153461)"><g><path d="M 2.71875 -6.921875 L 0.046875 -6.921875 L 0.046875 -7.625 L 6.203125 -7.625 L 6.203125 -6.921875 L 3.53125 -6.921875 L 3.53125 0 L 2.71875 0 Z M 2.71875 -6.921875 "/></g></g></g><g fill="#e4a740" fill-opacity="1"><g transform="translate(212.141632, 235.153461)"><g><path d="M 6.015625 -2.03125 L 1.78125 -2.03125 L 0.859375 0 L 0.015625 0 L 3.5 -7.625 L 4.296875 -7.625 L 7.78125 0 L 6.9375 0 Z M 5.734375 -2.6875 L 3.90625 -6.78125 L 2.0625 -2.6875 Z M 5.734375 -2.6875 "/></g></g></g><g fill="#e4a740" fill-opacity="1"><g transform="translate(227.780234, 235.153461)"><g><path d="M 4.09375 -7.625 C 5.0625 -7.625 5.820312 -7.390625 6.375 -6.921875 C 6.925781 -6.460938 7.203125 -5.828125 7.203125 -5.015625 C 7.203125 -4.203125 6.925781 -3.5625 6.375 -3.09375 C 5.820312 -2.632812 5.0625 -2.40625 4.09375 -2.40625 L 2.046875 -2.40625 L 2.046875 0 L 1.234375 0 L 1.234375 -7.625 Z M 4.078125 -3.109375 C 4.828125 -3.109375 5.398438 -3.273438 5.796875 -3.609375 C 6.203125 -3.941406 6.40625 -4.410156 6.40625 -5.015625 C 6.40625 -5.628906 6.203125 -6.097656 5.796875 -6.421875 C 5.398438 -6.753906 4.828125 -6.921875 4.078125 -6.921875 L 2.046875 -6.921875 L 2.046875 -3.109375 Z M 4.078125 -3.109375 "/></g></g></g></svg>